<svg width="208" height="153" viewBox="0 0 208 153" fill="none" xmlns="http://www.w3.org/2000/svg">
<rect x="24" y="39" width="150" height="48" fill="black"/>
<path fill-rule="evenodd" clip-rule="evenodd" d="M177.595 21.4947C177.235 17.5805 176.545 14.0933 175.526 11.0331C174.026 6.54951 171.446 3.91631 167.787 3.13347C167.727 3.0623 167.487 3.02672 167.067 3.02672C166.707 2.95555 166.197 3.02671 165.537 3.24022C164.877 3.38255 164.158 3.66722 163.378 4.09423C162.598 4.45007 161.818 5.16174 161.038 6.22925C160.318 7.2256 159.628 8.47103 158.968 9.96555C158.369 11.4601 157.889 13.5239 157.529 16.1571C157.234 18.6714 157.142 21.5285 157.252 24.7282C157.221 24.2748 157.073 23.7663 156.809 23.2027C156.569 22.491 156.179 21.7082 155.639 20.8542C155.159 20.0002 154.739 19.3241 154.379 18.8259C154.079 18.2566 153.599 17.5449 152.939 16.6909C152.34 15.7657 152.01 15.2319 151.95 15.0896C148.95 10.7484 146.041 7.93727 143.221 6.65626C141.841 6.01575 140.462 5.76666 139.082 5.909C137.522 6.05133 136.112 6.58509 134.853 7.51027C133.593 8.43544 132.543 9.53854 131.703 10.8196C130.863 12.1006 130.113 13.773 129.454 15.8369C128.854 17.8296 128.374 19.7511 128.014 21.6014C127.654 23.3806 126.781 27.1593 126.542 29.7925C126.362 32.3545 126.226 34.3572 126.166 36.2076C126.106 37.9868 125.73 39.6121 125.79 42.2453C125.85 44.8785 126.874 46.0475 126.934 47.3285C126.994 48.5383 127.084 50.1752 127.204 52.239C127.264 52.9507 127.294 53.4489 127.294 53.7336C127.714 61.6332 128.494 67.1131 129.634 70.1733C130.833 73.5893 132.243 75.9734 133.863 77.3256C135.483 78.6066 137.012 78.9269 138.452 78.2863C139.952 77.6458 141.242 76.2581 142.321 74.1231L143.221 72.3083C143.821 71.0984 144.361 69.426 144.841 67.291C145.321 65.0848 145.441 63.0209 145.201 61.0994C146.281 64.1596 147.72 66.9707 149.52 69.5328C151.32 72.0948 153.329 73.7672 155.549 74.5501C158.309 75.4752 161.188 75.2617 164.188 73.9096C167.187 72.5574 169.677 70.5291 171.656 67.8247C172.376 66.8996 173.006 65.9032 173.546 64.8357C174.086 63.697 174.536 62.4516 174.896 61.0994C175.316 59.7472 175.645 58.6085 175.885 57.6834C176.125 56.687 176.335 55.3348 176.515 53.6268C176.695 51.8476 176.815 50.6022 176.875 49.8905C176.935 49.1789 177.025 47.8267 177.145 45.834C177.265 43.7701 177.355 42.4891 177.415 41.9909C177.715 37.4362 177.895 33.8778 177.955 31.3158C178.075 28.6826 177.955 25.4089 177.595 21.4947ZM71.7325 13.2154C72.3924 16.0621 71.3588 18.2076 69.8245 20.7626C68.5341 22.9114 67.9111 24.0807 65.7228 25.2909C64.1677 26.1508 62.6187 26.4052 60.5637 26.4052C59.9038 26.3341 58.644 26.1561 56.7843 25.8715C54.9846 25.5868 53.9348 25.4445 53.6349 25.4445C50.6684 25.4445 49.2624 28.1844 49.0224 29.1808C48.7825 30.1771 48.8725 31.1023 49.2924 31.9563C49.7123 32.8103 50.3122 33.4508 51.0921 33.8778C51.8719 34.3048 52.6818 34.5183 53.5217 34.5183C54.3015 34.5895 55.7113 34.4472 57.7509 34.0913C63.6745 33.0874 68.7276 34.7248 70.0192 37.7437C71.5938 47.0841 64.9019 48.0973 60.1137 51.2783C58.614 52.2035 57.0243 52.6305 55.3446 52.5593C54.5647 52.5593 53.4549 52.3814 52.0152 52.0255C50.5754 51.5985 49.4056 51.3139 48.5058 51.1715C47.6659 51.0292 46.6161 51.1715 45.3563 51.5985C44.7564 51.8832 44.2765 52.417 43.9166 53.1998C43.5567 53.9115 43.3467 54.9078 43.2867 56.1888C43.2267 57.3987 43.1667 58.395 43.1067 59.1779C43.1067 59.8896 43.1367 60.9927 43.1967 62.4872C43.3167 63.9817 43.3767 64.7645 43.3767 64.8357C43.4967 66.9707 43.5567 68.7143 43.5567 70.0665C43.4967 72.842 43.0167 75.0482 42.1169 76.6851C41.2771 78.3219 39.7773 79.3539 37.6177 79.7809C35.698 80.0655 33.7484 79.8876 31.7687 79.2471C29.8491 78.5354 28.2893 77.3612 27.0895 75.7243C26.5496 75.0126 26.0697 74.1231 25.6498 73.0555C25.2899 71.988 25.0199 71.0273 24.8399 70.1733C24.66 69.2481 24.51 68.0382 24.39 66.5437C24.33 64.978 24.3 63.8393 24.3 63.1277V59.4981V56.5091C24.3 55.0146 24.27 52.7728 24.21 49.7838C24.1501 46.7236 24.0901 44.1971 24.0301 42.2044C23.9701 40.2117 24.0001 37.792 24.1201 34.9453C24.3 32.0275 24.57 29.5366 24.9299 27.4727C25.3498 25.3377 25.9497 23.1315 26.7296 20.8542C27.5695 18.5768 28.6193 16.5485 29.8791 14.7693C32.6386 10.8551 36.4479 8.18636 41.307 6.76301C44.1865 5.909 48.3258 5.41083 53.7249 5.26849C59.5438 5.05499 63.8931 5.41082 66.7726 6.336C68.2123 6.76301 69.5321 7.65261 70.7319 9.00479C71.9317 10.357 71.3126 11.6497 71.7325 13.2154ZM124.062 15.9436C124.542 18.0075 126.286 25.0243 126.166 29.7925C125.986 38.6884 126.239 44.3395 125.039 53.7336C124.679 56.5803 121.813 58.7865 121.453 60.5657C121.153 62.3448 120.673 64.3731 120.013 66.6505C119.353 68.8567 118.453 70.8493 117.313 72.6285C116.234 74.4077 114.884 76.0446 113.264 77.5391C107.025 83.1613 99.5266 84.4423 90.7681 81.3821C82.0097 78.3931 76.8206 72.0948 75.2009 62.4872C74.361 57.2919 69.8245 51.5269 69.8245 45.2642C69.8245 35.9412 70.7727 27.2454 71.7325 19.6305C72.0924 16.6415 74.4545 10.6316 75.8342 8.28305C77.274 5.93452 81.7424 4.8653 83.722 4.50946C85.4617 4.15362 89.8985 6.28699 91.9854 9.41512C94.2691 12.838 96.1471 16.784 96.1471 23.4041C96.1471 25.6682 96.5011 28.7721 96.8984 30.9512C97.178 32.485 97.7482 33.5094 98.4008 34.3475C98.9672 35.0748 100.436 34.9441 101.03 34.3475C101.781 33.5928 101.908 33.4655 102.503 31.3019C103.016 29.4336 103.629 23.1208 103.629 22.6227C103.929 18.2814 105.734 14.8818 106.634 11.6793C107.594 8.40557 110.68 6.43098 113.02 4.50946C115.779 2.51677 117.134 6.90535 119.473 8.47103C121.813 9.96555 123.342 12.4564 124.062 15.9436Z" fill="black"/>
<path fill-rule="evenodd" clip-rule="evenodd" d="M106.562 127.661C105.535 126.397 104.031 125.682 102.05 125.513C101.756 125.345 99.482 125.303 95.2266 125.387C90.9711 125.471 88.6966 125.513 88.4031 125.513C86.8624 125.513 85.6884 124.797 84.8814 123.366C84.0743 121.85 83.9642 120.376 84.5512 118.944C85.1382 117.429 86.3488 116.671 88.183 116.671H90.9344C92.7687 116.671 94.7863 116.544 96.9874 116.292C99.2619 116.039 100.803 115.66 101.61 115.155C103.737 113.723 105.058 111.828 105.572 109.47C106.085 107.028 105.645 104.628 104.251 102.27C103.517 101.091 102.637 100.164 101.61 99.4907C100.583 98.817 99.3353 98.3959 97.8679 98.2275C96.4005 98.0591 95.2632 97.9749 94.4562 97.9749C93.6491 97.9749 92.3651 98.017 90.6042 98.1012C89.2836 98.1012 87.9262 98.1433 86.5322 98.2275C85.1382 98.2275 84.0009 97.7222 83.1205 96.7116C82.3134 95.6168 82.13 94.0167 82.5702 91.9114L82.7903 90.9008C82.9371 90.3113 83.3406 89.7218 84.0009 89.1323C84.6613 88.4585 85.5417 88.2059 86.6423 88.3743C92.2184 89.048 96.694 88.8796 100.069 87.869C101.316 87.5322 102.197 87.2795 102.71 87.1111C103.224 86.8585 103.884 86.4374 104.691 85.8479C105.498 85.2584 106.085 84.5004 106.452 83.5741C107.406 81.5529 107.773 78.479 107.553 74.3525C107.479 71.4892 106.636 69.089 105.021 67.1521C103.407 65.1309 101.316 63.7414 98.7483 62.9834C96.1804 62.1413 93.7591 61.5939 91.4847 61.3412C89.2102 61.0044 86.8624 60.8781 84.4411 60.9623C81.3596 61.1307 78.3881 62.015 75.5267 63.6151C75.3066 63.7835 75.0498 63.9519 74.7563 64.1203C72.922 65.2994 71.1978 66.8994 69.5837 68.9206C68.0429 70.9418 66.7223 73.1314 65.6217 75.4894C64.5945 77.8474 57.8815 78.3527 57.2945 80.795C55.3135 89.3849 54.9161 98.2091 55.503 108.146C55.7231 112.441 56.8338 115.66 58.2263 120.334C59.2729 123.847 59.8968 125.822 61.3737 129.177C63 132.871 64.9614 135.83 66.282 138.272C66.9424 139.535 67.7128 140.63 68.5932 141.556C69.4736 142.483 70.244 143.241 70.9044 143.83C71.6381 144.335 72.6652 144.841 73.9859 145.346C75.3066 145.767 76.2604 146.062 76.8473 146.23C77.4343 146.399 78.5715 146.651 80.259 146.988C81.9466 147.325 83.0471 147.536 83.5607 147.62L84.7713 147.746C85.5784 147.83 86.6056 147.872 87.8529 147.872C89.1735 147.788 90.6042 147.704 92.145 147.62C93.7592 147.536 95.3733 147.283 96.9874 146.862C98.675 146.441 100.216 145.893 101.61 145.22C103.077 144.546 104.361 143.619 105.462 142.44C106.562 141.177 107.296 139.703 107.663 138.019C108.03 135.998 108.176 134.103 108.103 132.335C108.103 130.482 107.589 128.924 106.562 127.661ZM58.8389 83.1798C58.8365 83.2265 58.8353 83.2737 58.8353 83.3214C58.8353 83.4832 58.8491 83.6386 58.8767 83.7877L58.8389 83.1798ZM59.3855 81.6792C60.7796 78.6475 61.073 75.4473 60.266 72.0787C59.7524 70.2259 58.7619 68.4995 57.2945 66.8994C55.8271 65.2994 54.2129 64.2467 52.4521 63.7414C48.9303 62.6466 43.611 62.2255 36.4941 62.4781C29.8907 62.6466 24.8282 63.2361 21.3064 64.2467C15.3635 65.931 10.7045 69.089 7.32943 73.7209C5.78866 75.8263 4.50468 78.2264 3.4775 80.9213C2.52369 83.6162 1.78999 86.2268 1.2764 88.7533C0.836176 91.1955 0.506011 94.1431 0.2859 97.5959C0.13916 100.965 0.102475 103.828 0.175845 106.186C0.249215 108.544 0.322586 111.534 0.395956 115.155C0.469326 118.692 0.506011 121.345 0.506011 123.113V126.65V130.945C0.506011 131.787 0.542696 133.135 0.616066 134.987C0.762806 136.756 0.946232 138.188 1.16634 139.282C1.38645 140.293 1.71662 141.43 2.15684 142.693C2.67043 143.956 3.25739 145.009 3.91772 145.851C5.38512 147.788 7.29275 149.178 9.64059 150.02C12.0618 150.778 14.4463 150.988 16.7942 150.651C19.4355 150.146 21.2698 148.925 22.2969 146.988C23.3975 145.051 23.9845 142.44 24.0578 139.156C24.0578 137.556 23.9845 135.493 23.8377 132.966C23.8377 132.882 23.7643 131.956 23.6176 130.187C23.5442 128.419 23.5075 127.113 23.5075 126.271C23.5809 125.345 23.6543 124.166 23.7277 122.734C23.801 121.218 24.0578 120.039 24.498 119.197C24.9383 118.271 25.5252 117.639 26.2589 117.302C27.7997 116.797 29.0837 116.629 30.1109 116.797C31.2114 116.965 32.6421 117.302 34.403 117.808C36.1639 118.229 37.5212 118.439 38.4751 118.439C40.5294 118.523 42.4737 118.018 44.308 116.923C46.1422 115.744 47.5729 114.144 48.6001 112.123C49.4072 110.691 49.9942 109.175 50.361 107.575C50.7279 105.975 50.7645 104.333 50.4711 102.649C50.1776 100.88 49.4806 99.4486 48.38 98.3538C46.986 97.1748 45.3352 96.5011 43.4275 96.3327C41.5933 96.08 39.3922 96.1642 36.8242 96.5853C34.3296 97.0064 32.6054 97.1748 31.6516 97.0906C30.6244 97.0906 29.634 96.838 28.6801 96.3327C27.7263 95.8274 26.9926 95.0694 26.479 94.0588C25.9654 93.0483 25.8554 91.9535 26.1489 90.7745C27.1027 87.069 30.5144 85.5952 36.384 86.3532C36.7509 86.3532 38.0348 86.5216 40.2359 86.8585C42.5104 87.1953 44.0512 87.4059 44.8583 87.4901H48.4901C50.1776 87.4901 51.645 87.3637 52.8923 87.1111C55.8271 86.5216 57.9915 84.711 59.3855 81.6792ZM151.728 98.2697C151.068 98.2697 150.151 98.1013 148.977 97.7644C147.803 97.3433 146.739 97.0065 145.785 96.7538C144.402 96.2247 141.212 95.5403 140.051 96.7538C139.096 97.7518 138.669 99.7028 139.193 101.709C139.657 103.489 140.051 104.713 140.921 106.186C142.872 109.489 144.553 111.281 146.314 114.397C148.148 117.429 149.248 120.166 149.615 122.608C151.156 132.293 148.882 139.703 142.792 144.841C140.371 146.862 137.326 148.293 133.657 149.136C129.989 149.894 126.43 149.978 122.982 149.388C119.534 148.715 116.489 147.072 113.847 144.462C111.206 141.851 109.702 138.482 109.335 134.356C109.115 131.577 109.629 129.261 110.876 127.408C112.197 125.471 113.994 124.418 116.269 124.25C116.709 124.166 118.066 124.25 120.341 124.503C122.615 124.755 124.413 124.671 125.733 124.25C127.127 123.745 128.045 122.65 128.485 120.966C128.852 119.702 127.542 118.271 127.176 116.671C126.809 115.071 125.125 115.997 124.171 114.397C123.218 112.713 121.294 111.64 120.341 110.292C119.387 108.861 113.899 104.417 112.725 102.901C111.552 101.301 110.744 100.164 110.304 99.4907C106.929 94.1852 105.829 87.9532 107.003 80.795C108.177 73.5524 111.185 68.0785 116.027 64.373C118.815 62.3518 130.025 61.2991 134.208 61.2149C138.39 61.1307 141.985 61.9308 144.993 63.6151C147.194 64.8783 149.212 66.6889 151.046 69.0469C152.329 70.6374 153.307 72.3102 153.98 74.0654C153.992 73.4958 154.044 72.9178 154.137 72.3313C154.357 70.4786 155.128 68.9627 156.448 67.7837C157.475 66.7731 158.869 65.9731 160.63 65.3836C162.391 64.7941 163.969 64.4993 165.363 64.4993L196.398 63.7414C197.866 63.7414 199.48 64.0782 201.241 64.752C203.002 65.3415 204.396 66.0994 205.423 67.0258C207.184 68.7101 207.991 71.1102 207.844 74.2262C207.697 77.2579 206.115 86.6358 204.427 88.4043C203.474 89.4149 202.635 90.1292 201.241 90.5502C199.92 90.9713 200.133 92.0572 197.785 92.3098C195.51 92.5625 194.19 92.7309 193.823 92.8151C192.106 99.1338 192.546 108.839 192.106 115.66C192.033 116.755 191.959 118.692 191.886 121.471C191.813 124.166 191.739 126.608 191.666 128.798C191.666 130.987 191.482 133.514 191.116 136.377C190.822 139.156 190.382 141.556 189.795 143.577C189.208 145.599 188.291 147.451 187.044 149.136C185.87 150.736 184.439 151.788 182.751 152.294C179.963 153.052 178.063 153.099 175.243 152.294C172.836 151.606 171.457 150.237 169.664 148.489C167.038 145.929 166.529 143.746 165.869 140.546C165.209 137.345 164.805 134.777 164.659 132.84C164.512 130.903 164.365 128.334 164.218 125.134C164.218 124.124 164.182 123.408 164.108 122.987C163.375 107.407 158.076 97.6511 156.36 94.842C155.45 93.3533 158.628 98.7222 151.728 98.2697Z" fill="black"/>
<path fill-rule="evenodd" clip-rule="evenodd" d="M106.383 130.987C105.357 129.888 103.856 129.266 101.878 129.119C101.585 128.973 99.3143 128.936 95.066 129.009C90.8177 129.082 88.5471 129.119 88.2541 129.119C86.7159 129.119 85.544 128.496 84.7383 127.251C83.9326 125.933 83.8227 124.651 84.4087 123.406C84.9946 122.087 86.2032 121.428 88.0343 121.428H90.7811C92.6122 121.428 94.6265 121.318 96.8239 121.099C99.0945 120.879 100.633 120.549 101.438 120.11C103.563 118.865 104.881 117.217 105.394 115.166C105.906 113.042 105.467 110.954 104.075 108.903C103.343 107.878 102.464 107.072 101.438 106.486C100.413 105.9 99.1678 105.534 97.7028 105.387C96.2379 105.241 95.1026 105.168 94.2969 105.168C93.4912 105.168 92.2094 105.204 90.4515 105.277C89.133 105.277 87.778 105.314 86.3863 105.387C84.9946 105.387 83.8593 104.948 82.9804 104.069C82.1746 103.117 81.9915 101.725 82.431 99.8938L82.6507 99.0149C82.7972 98.5021 83.2001 97.9894 83.8593 97.4767C84.5185 96.8907 85.3975 96.671 86.4962 96.8175C92.0629 97.4035 96.5309 97.257 99.9002 96.378C101.145 96.085 102.024 95.8653 102.537 95.7188C103.05 95.499 103.709 95.1328 104.515 94.6201C105.32 94.1074 105.906 93.4482 106.273 92.6424C107.225 90.8845 107.591 88.211 107.371 84.622C107.298 82.1316 106.456 80.0441 104.844 78.3594C103.233 76.6015 101.145 75.393 98.5818 74.7337C96.0182 74.0013 93.6011 73.5252 91.3304 73.3054C89.0598 73.0125 86.7159 72.9026 84.2988 72.9758C81.2224 73.1223 78.256 73.8914 75.3994 75.2831C75.1796 75.4296 74.9233 75.5761 74.6303 75.7226C72.7991 76.748 71.0778 78.1397 69.4664 79.8976C67.9283 81.6555 66.6098 83.5599 65.5111 85.6108C64.4857 87.6617 63.68 89.7492 63.094 91.8734C61.1164 99.3445 60.4205 107.402 61.0065 116.045C61.2262 119.78 61.4093 122.637 61.5558 124.614C61.7756 126.592 62.2517 129.156 62.9841 132.305C63.7898 135.455 64.8519 138.092 66.1703 140.216C66.8296 141.315 67.5986 142.267 68.4776 143.072C69.3566 143.878 70.1256 144.537 70.7849 145.05C71.5173 145.49 72.5428 145.929 73.8612 146.369C75.1796 146.735 76.1318 146.991 76.7178 147.138C77.3038 147.284 78.4391 147.504 80.1237 147.797C81.8084 148.09 82.9071 148.273 83.4198 148.346L84.6284 148.456C85.4341 148.529 86.4595 148.566 87.7047 148.566C89.0232 148.493 90.4515 148.419 91.9896 148.346C93.6011 148.273 95.2125 148.053 96.8239 147.687C98.5086 147.321 100.047 146.845 101.438 146.259C102.903 145.673 104.185 144.867 105.284 143.842C106.383 142.743 107.115 141.461 107.481 139.996C107.847 138.238 107.994 136.59 107.921 135.052C107.921 133.441 107.408 132.086 106.383 130.987ZM64.6358 93.947C64.6334 93.9878 64.6322 94.029 64.6322 94.0707C64.6322 94.2116 64.646 94.347 64.6737 94.4769L64.6358 93.947ZM59.2855 90.9944C60.6772 88.3575 60.9701 85.5742 60.1644 82.6443C59.6517 81.0329 58.6629 79.5314 57.198 78.1397C55.733 76.748 54.1216 75.8324 52.3637 75.393C48.8479 74.4408 43.5376 74.0745 36.4327 74.2943C29.8405 74.4408 24.7865 74.9535 21.2707 75.8324C15.3378 77.2974 10.6866 80.0441 7.31729 84.0726C5.77912 85.9038 4.49731 87.9913 3.47186 90.3352C2.51966 92.6791 1.7872 94.9497 1.27448 97.1471C0.834999 99.2712 0.505391 101.835 0.285653 104.838C0.13916 107.768 0.102537 110.258 0.175783 112.309C0.24903 114.36 0.322276 116.96 0.395522 120.11C0.468768 123.186 0.505391 125.493 0.505391 127.032V130.108V133.843C0.505391 134.576 0.542014 135.748 0.615261 137.359C0.761753 138.897 0.944869 140.143 1.16461 141.095C1.38435 141.974 1.71395 142.963 2.15343 144.061C2.66616 145.16 3.25213 146.076 3.91134 146.808C5.37627 148.493 7.28067 149.701 9.62455 150.434C12.0417 151.093 14.4222 151.276 16.7661 150.983C19.4029 150.544 21.2341 149.482 22.2595 147.797C23.3582 146.112 23.9442 143.842 24.0174 140.985C24.0174 139.593 23.9442 137.799 23.7977 135.601C23.7977 135.528 23.7244 134.722 23.578 133.184C23.5047 131.646 23.4681 130.511 23.4681 129.778C23.5413 128.973 23.6146 127.947 23.6878 126.702C23.7611 125.384 24.0174 124.358 24.4569 123.626C24.8964 122.82 25.4824 122.271 26.2148 121.978C27.753 121.538 29.0348 121.392 30.0602 121.538C31.1589 121.685 32.5872 121.978 34.3451 122.417C36.1031 122.783 37.4581 122.966 38.4103 122.966C40.4612 123.04 42.4022 122.6 44.2334 121.648C46.0645 120.623 47.4928 119.231 48.5183 117.473C49.324 116.228 49.91 114.909 50.2762 113.518C50.6424 112.126 50.6791 110.698 50.3861 109.233C50.0931 107.695 49.3973 106.449 48.2986 105.497C46.9069 104.472 45.2588 103.886 43.3544 103.739C41.5233 103.52 39.3259 103.593 36.7623 103.959C34.2719 104.325 32.5506 104.472 31.5984 104.398C30.573 104.398 29.5841 104.179 28.6319 103.739C27.6797 103.3 26.9473 102.641 26.4346 101.762C25.9218 100.883 25.812 99.9304 26.1049 98.905C27.0571 95.6822 30.4631 94.4004 36.3228 95.0596C36.689 95.0596 37.9708 95.2061 40.1682 95.499C42.4389 95.792 43.977 95.9751 44.7827 96.0484H48.4084C50.0931 96.0484 51.558 95.9385 52.8032 95.7188C55.7331 95.2061 57.8938 93.6313 59.2855 90.9944ZM148.044 95.7188C147.385 95.7188 146.47 95.5723 145.298 95.2793C144.126 94.9131 143.064 94.6201 142.112 94.4004C141.233 94.1074 140.317 93.9609 139.365 93.9609C138.413 93.8876 137.57 94.144 136.838 94.73C136.179 95.3159 135.702 96.2315 135.409 97.4767C134.824 99.8938 135.117 102.457 136.288 105.168C137.46 107.804 138.925 110.185 140.683 112.309C142.514 114.36 144.309 116.74 146.067 119.451C147.898 122.087 148.997 124.468 149.363 126.592C150.901 135.015 148.63 141.461 142.551 145.929C140.134 147.687 137.094 148.932 133.432 149.665C129.77 150.324 126.217 150.397 122.775 149.884C119.332 149.298 116.292 147.87 113.655 145.599C111.019 143.329 109.517 140.399 109.151 136.81C108.931 134.393 109.444 132.379 110.689 130.767C112.007 129.082 113.802 128.167 116.072 128.02C116.512 127.947 117.867 128.02 120.138 128.24C122.408 128.46 124.203 128.387 125.521 128.02C126.913 127.581 127.829 126.629 128.268 125.164C128.634 124.065 128.634 122.82 128.268 121.428C127.902 120.037 127.243 118.645 126.29 117.253C125.338 115.788 124.386 114.47 123.434 113.298C122.482 112.053 121.419 110.771 120.248 109.452C119.076 108.061 118.27 107.072 117.83 106.486C114.461 101.871 113.362 96.4512 114.534 90.2253C115.706 83.9261 118.709 79.1651 123.544 75.9423C126.327 74.1844 129.806 73.2688 133.981 73.1956C138.156 73.1223 141.745 73.8182 144.748 75.2831C146.946 76.3818 148.96 77.9566 150.791 80.0075C152.072 81.3907 153.048 82.8457 153.72 84.3723C153.732 83.8769 153.784 83.3742 153.877 82.8641C154.097 81.2527 154.866 79.9342 156.184 78.9088C157.21 78.0298 158.601 77.334 160.359 76.8213C162.117 76.3085 163.692 76.0522 165.084 76.0522L196.067 75.393C197.532 75.393 199.143 75.6859 200.901 76.2719C202.659 76.7846 204.051 77.4439 205.076 78.2496C206.834 79.7145 207.64 81.802 207.493 84.5121C207.347 87.149 206.431 89.2365 204.746 90.7747C203.794 91.6536 202.622 92.2762 201.231 92.6424C199.912 93.0087 198.081 93.3017 195.737 93.5214C193.467 93.7411 192.148 93.8876 191.782 93.9609C192.221 105.754 192.221 114.616 191.782 120.549C191.709 121.501 191.635 123.186 191.562 125.603C191.489 127.947 191.416 130.071 191.342 131.976C191.342 133.88 191.159 136.077 190.793 138.568C190.5 140.985 190.061 143.072 189.475 144.83C188.889 146.588 187.973 148.2 186.728 149.665C185.556 151.056 184.128 151.972 182.443 152.411C179.66 153.071 177.243 152.961 175.192 152.082C173.214 151.203 171.712 150.031 170.687 148.566C169.662 147.101 168.819 144.977 168.16 142.194C167.501 139.41 167.098 137.176 166.951 135.491C166.805 133.807 166.658 131.573 166.512 128.789C166.512 127.911 166.475 127.288 166.402 126.922C165.67 113.371 166.622 102.824 169.259 95.2793C169.185 95.499 167.977 95.499 165.633 95.2793C163.362 94.9863 161.861 94.7666 161.128 94.6201C159.297 94.1806 157.722 93.1552 156.404 91.5437C155.759 90.7003 155.215 89.8064 154.771 88.8622C154.799 90.4135 154.424 91.82 153.648 93.0819C152.476 94.9863 150.608 95.8653 148.044 95.7188Z" fill="white"/>
<path fill-rule="evenodd" clip-rule="evenodd" d="M70.692 9.20253C71.3989 11.7731 71.1418 14.2151 69.9208 16.5286C68.6998 18.842 66.8041 20.2237 64.2335 20.6736C63.141 20.8663 61.8558 20.9627 60.3777 20.9627H57.1967C56.4898 20.8985 55.1402 20.7378 53.1481 20.4808C51.2202 20.2237 50.0955 20.0952 49.7742 20.0952C44.6332 19.5168 41.6449 20.6414 40.8095 23.469C40.5524 24.3687 40.6488 25.2041 41.0987 25.9753C41.5485 26.7465 42.1911 27.3248 43.0266 27.7104C43.862 28.096 44.7295 28.2888 45.6292 28.2888C46.4647 28.353 47.9749 28.2245 50.1598 27.9032C52.409 27.5819 54.3369 27.5176 55.9435 27.7104C57.6144 27.8389 59.0603 28.353 60.2813 29.2527C61.2453 30.0882 61.8558 31.1806 62.1128 32.5302C62.3699 33.8154 62.3377 35.0686 62.0164 36.2896C61.6951 37.5106 61.181 38.6673 60.4741 39.7598C59.5744 41.3021 58.3213 42.5231 56.7147 43.4228C55.1081 44.2582 53.4051 44.6438 51.6057 44.5796C50.7703 44.5796 49.5814 44.4189 48.0391 44.0976C46.4968 43.712 45.2437 43.455 44.2797 43.3264C43.38 43.1979 42.2554 43.3264 40.9059 43.712C40.2632 43.9691 39.7491 44.451 39.3635 45.1579C38.978 45.8006 38.753 46.7003 38.6888 47.857C38.6245 48.9495 38.5603 49.8492 38.496 50.5561C38.496 51.1987 38.5281 52.1948 38.5924 53.5443C38.7209 54.8938 38.7852 55.6007 38.7852 55.665C38.9137 57.5929 38.978 59.1674 38.978 60.3884C38.9137 62.8947 38.3996 64.8868 37.4356 66.3649C36.536 67.8429 34.9294 68.7748 32.6159 69.1603C30.5595 69.4174 28.4709 69.2567 26.3502 68.6784C24.2938 68.0357 22.6229 66.9754 21.3376 65.4973C20.7593 64.8547 20.2452 64.0514 19.7953 63.0874C19.4097 62.1235 19.1206 61.2559 18.9278 60.4848C18.735 59.6493 18.5743 58.5569 18.4458 57.2073C18.3815 55.7935 18.3494 54.7653 18.3494 54.1227V50.8453V48.1462C18.3494 46.7967 18.3173 44.7724 18.253 42.0733C18.1887 39.31 18.1245 37.0286 18.0602 35.2292C17.9959 33.4299 18.0281 31.2449 18.1566 28.6744C18.3494 26.0396 18.6386 23.7903 19.0242 21.9267C19.474 19.9988 20.1166 18.0066 20.9521 15.9502C21.8518 13.8938 22.9764 12.0622 24.3259 10.4557C27.282 6.92117 31.3627 4.51129 36.5681 3.22602C39.6527 2.45486 44.0869 2.00502 49.8706 1.87649C56.1042 1.6837 60.7633 2.00501 63.8479 2.84044C65.3903 3.22602 66.804 4.02932 68.0893 5.25032C69.3746 6.47133 70.2421 7.78873 70.692 9.20253ZM125.219 11.516C125.733 13.3797 125.926 16.4643 125.798 20.77C125.605 28.8029 124.866 37.0607 123.581 45.5435C123.195 48.1141 122.809 50.2026 122.424 51.8092C122.103 53.4158 121.588 55.2473 120.882 57.3037C120.175 59.2959 119.211 61.0953 117.99 62.7019C116.833 64.3084 115.387 65.7865 113.652 67.136C106.968 72.2129 98.9355 73.3696 89.5531 70.6063C80.1706 67.9072 74.6118 62.2199 72.8767 53.5443C71.977 48.8531 71.5272 43.6799 71.5272 38.0247C71.5272 29.6062 72.0413 21.9588 73.0695 15.0826C73.4551 12.3836 74.3869 9.97369 75.8649 7.85299C77.4073 5.7323 79.2388 4.51129 81.3595 4.18997C83.2231 3.86866 85.1189 4.38276 87.0468 5.7323C90.9026 8.30283 93.2803 13.7974 94.18 22.2159C94.2443 22.6657 94.2764 23.5975 94.2764 25.0113C94.2764 26.4251 94.3086 27.7104 94.3728 28.8671C94.5013 30.0239 94.6941 31.2449 94.9512 32.5302C95.2082 33.8154 95.6902 34.8436 96.3971 35.6148C97.104 36.3217 97.9716 36.6752 98.9998 36.6752C100.285 36.6109 101.345 36.2896 102.181 35.7112C103.016 35.0686 103.595 34.1367 103.916 32.9157C104.237 31.6305 104.462 30.5059 104.591 29.5419C104.719 28.578 104.784 27.2927 104.784 25.6861C104.848 24.0795 104.88 23.0513 104.88 22.6015C105.201 18.6814 105.844 15.2754 106.808 12.3836C107.836 9.42745 109.603 7.08183 112.11 5.34672C115.066 3.54734 117.797 3.35455 120.303 4.76835C122.809 6.11788 124.448 8.3671 125.219 11.516ZM130.437 26.3645L129.413 21.1797L132.267 13.6154L137.082 6.56606L144.977 2.92817L147.449 7.5535L140.112 15.6754L137.959 22.7731L136.228 27.1622L130.437 26.3645ZM168.081 63.3196L175.236 58.801L179.754 49.764L176.365 47.8813L170.717 55.4121L167.328 58.801L164.316 58.048L162.057 62.5665L165.069 63.6961L168.081 63.3196Z" fill="white"/>
<path d="M70.6729 9.3434C71.3799 11.9054 71.1228 14.3394 69.9016 16.6452C68.6804 18.951 66.7843 20.3281 64.2133 20.7765C63.1207 20.9686 61.8352 21.0647 60.3568 21.0647C58.9428 21.0647 57.8823 21.0647 57.1753 21.0647C56.4682 21.0006 55.1185 20.8405 53.126 20.5843C51.1977 20.3281 50.0729 20.2 49.7516 20.2C44.6096 19.6235 41.6209 20.7444 40.7853 23.5627C40.5282 24.4594 40.6246 25.292 41.0745 26.0606C41.5244 26.8293 42.1672 27.4057 43.0028 27.79C43.8383 28.1743 44.706 28.3665 45.6059 28.3665C46.4414 28.4305 47.9519 28.3024 50.1372 27.9822C52.3868 27.6619 54.3151 27.5979 55.9219 27.79C57.5931 27.9181 59.0392 28.4305 60.2604 29.3272C61.2246 30.1599 61.8352 31.2488 62.0923 32.5938C62.3494 33.8748 62.3172 35.1238 61.9958 36.3408C61.6745 37.5578 61.1603 38.7107 60.4533 39.7995C59.5534 41.3368 58.3001 42.5537 56.6932 43.4504C55.0863 44.2831 53.3831 44.6674 51.5834 44.6033C50.7478 44.6033 49.5587 44.4432 48.0162 44.123C46.4736 43.7387 45.2202 43.4824 44.2561 43.3543C43.3563 43.2262 42.2315 43.3543 40.8817 43.7387C40.239 43.9949 39.7248 44.4752 39.3391 45.1798C38.9535 45.8203 38.7285 46.717 38.6642 47.8699C38.6 48.9588 38.5357 49.8555 38.4714 50.5601C38.4714 51.2006 38.5035 52.1934 38.5678 53.5384C38.6964 54.8835 38.7606 55.588 38.7606 55.6521C38.8892 57.5736 38.9535 59.1429 38.9535 60.3598C38.8892 62.8578 38.375 64.8434 37.4109 66.3165C36.511 67.7897 34.9042 68.7184 32.5903 69.1028C30.5335 69.359 28.4446 69.1988 26.3235 68.6224C24.2668 67.9819 22.5956 66.925 21.3101 65.4519C20.7317 64.8113 20.2175 64.0107 19.7675 63.05C19.3819 62.0892 19.0927 61.2245 18.8998 60.4559C18.707 59.6232 18.5463 58.5344 18.4178 57.1893C18.3535 55.7802 18.3214 54.7554 18.3214 54.1149C18.3214 53.4103 18.3214 52.3215 18.3214 50.8483C18.3214 49.3111 18.3214 48.4144 18.3214 48.1582C18.3214 46.8131 18.2892 44.7955 18.225 42.1054C18.1607 39.3512 18.0964 37.0774 18.0321 35.284C17.9679 33.4905 18 31.3128 18.1285 28.7508C18.3214 26.1247 18.6106 23.8829 18.9963 22.0254C19.4462 20.1039 20.0889 18.1184 20.9245 16.0687C21.8243 14.0191 22.9491 12.1937 24.2989 10.5924C27.2555 7.0696 31.3369 4.6677 36.5432 3.38668C39.6283 2.61808 44.0633 2.16972 49.848 2.04162C56.0826 1.84946 60.7425 2.16972 63.8277 3.00238C65.3703 3.38668 66.7843 4.18732 68.0698 5.40428C69.3553 6.62125 70.223 7.93429 70.6729 9.3434ZM22.2742 25.4842C22.7242 25.4842 23.1098 25.3241 23.4312 25.0038C23.7526 24.6836 23.9132 24.3313 23.9132 23.947C23.9132 23.4986 23.7526 23.1143 23.4312 22.7941C23.1098 22.4738 22.7242 22.3137 22.2742 22.3137C22.0172 22.3137 21.7601 22.3777 21.503 22.5058C21.2459 22.6339 21.053 22.8261 20.9245 23.0823C20.7959 23.3385 20.7317 23.6267 20.7317 23.947C20.7317 24.2032 20.7959 24.4594 20.9245 24.7156C21.053 24.9718 21.2459 25.1639 21.503 25.292C21.7601 25.4201 22.0172 25.4842 22.2742 25.4842ZM32.3975 67.7577C34.2614 67.5655 35.5469 66.861 36.2539 65.644C37.0252 64.363 37.3466 63.082 37.2181 61.801C37.1538 61.1605 36.7681 60.8722 36.0611 60.9363C35.3541 60.9363 35.0327 61.2886 35.097 61.9931C35.1613 62.3134 35.1613 62.6977 35.097 63.146C35.0327 63.5303 34.7435 64.0427 34.2293 64.6833C33.7794 65.2597 33.1045 65.58 32.2047 65.644C31.4976 65.7721 31.1763 66.1564 31.2405 66.7969C31.3048 67.4374 31.6583 67.7577 32.3011 67.7577C32.3653 67.7577 32.3975 67.7577 32.3975 67.7577ZM36.3503 9.7277C36.8003 9.4715 37.1216 9.11923 37.3145 8.67087C37.5073 8.22252 37.4752 7.77416 37.2181 7.3258C37.0252 6.8134 36.6717 6.49314 36.1575 6.36504C35.7076 6.17289 35.2577 6.17289 34.8078 6.36504C34.4864 6.5572 34.0686 6.78137 33.5544 7.03757C33.1045 7.22973 32.3011 7.71011 31.1441 8.47872C30.0515 9.24733 29.0231 10.08 28.0589 10.9767C27.0948 11.8094 26.0986 12.8982 25.0702 14.2433C24.0418 15.5884 23.2705 16.9334 22.7563 18.2785C22.692 18.5987 22.6599 18.919 22.6599 19.2392C22.7242 19.5595 22.8527 19.8477 23.0455 20.1039C23.3026 20.3601 23.5919 20.5523 23.9132 20.6804C24.1061 20.7444 24.2989 20.7765 24.4917 20.7765C25.3916 20.7765 25.97 20.3601 26.2271 19.5275C27.127 17.0295 29.0873 14.6596 32.1082 12.4178C33.7794 11.1368 35.1934 10.2401 36.3503 9.7277Z" fill="url(#paint0_linear_692_279)"/>
<path d="M125.21 11.6492C125.724 13.5067 125.917 16.5811 125.788 20.8725C125.595 28.8789 124.856 37.1094 123.571 45.5641C123.185 48.1261 122.799 50.2078 122.414 51.8091C122.092 53.4103 121.578 55.2358 120.871 57.2854C120.164 59.271 119.2 61.0644 117.979 62.6657C116.822 64.2669 115.376 65.7401 113.64 67.0852C106.956 72.1452 98.9212 73.2981 89.5372 70.5439C80.1531 67.8538 74.5934 62.1853 72.858 53.5384C71.9581 48.8627 71.5082 43.7066 71.5082 38.0702C71.5082 29.6795 72.0224 22.0575 73.0508 15.204C73.4364 12.5139 74.3684 10.112 75.8467 7.99834C77.3893 5.88466 79.2211 4.6677 81.3422 4.34744C83.2062 4.02719 85.1023 4.5396 87.0305 5.88466C90.887 8.44669 93.2651 13.923 94.1649 22.3137C94.2292 22.762 94.2614 23.6908 94.2614 25.0999C94.2614 26.509 94.2935 27.79 94.3578 28.9429C94.4863 30.0958 94.6791 31.3128 94.9362 32.5938C95.1933 33.8748 95.6754 34.8997 96.3824 35.6683C97.0894 36.3728 97.9571 36.7251 98.9855 36.7251C100.271 36.661 101.332 36.3408 102.167 35.7643C103.003 35.1238 103.581 34.1951 103.903 32.9781C104.224 31.6971 104.449 30.5762 104.577 29.6155C104.706 28.6547 104.77 27.3737 104.77 25.7724C104.835 24.1711 104.867 23.1463 104.867 22.698C105.188 18.7909 105.831 15.3962 106.795 12.5139C107.823 9.56758 109.591 7.22973 112.098 5.50036C115.054 3.70694 117.786 3.51479 120.293 4.9239C122.799 6.26897 124.438 8.51074 125.21 11.6492ZM74.2077 35.5722C74.5291 35.8284 74.8826 35.9565 75.2683 35.9565C75.6539 35.9565 75.9753 35.8284 76.2324 35.5722C76.5537 35.316 76.7144 34.9957 76.7144 34.6114C76.7144 34.1631 76.5537 33.8108 76.2324 33.5546C75.9753 33.2984 75.6539 33.1703 75.2683 33.1703C75.0112 33.1703 74.7541 33.2343 74.497 33.3624C74.3041 33.4905 74.1435 33.6827 74.0149 33.9389C73.8864 34.131 73.8221 34.3552 73.8221 34.6114C73.8221 34.9957 73.9506 35.316 74.2077 35.5722ZM80.2817 10.4963C80.9887 9.66365 80.9565 8.89505 80.1853 8.19049C79.7996 7.87024 79.3818 7.74213 78.9319 7.80618C78.482 7.80618 78.0963 7.96631 77.775 8.28656C77.7107 8.41467 77.6143 8.57479 77.4857 8.76694C77.3572 8.9591 77.1001 9.3434 76.7144 9.91986C76.3931 10.4963 76.1038 11.1688 75.8467 11.9375C75.5896 12.7061 75.2683 13.6989 74.8826 14.9158C74.5612 16.1328 74.3041 17.4778 74.1113 18.951C73.9185 20.3601 73.7578 22.0895 73.6293 24.1391C73.5007 26.1247 73.5007 28.2704 73.6293 30.5762C73.6935 30.8965 73.79 31.1847 73.9185 31.4409C74.047 31.6331 74.2399 31.8252 74.497 32.0174C74.7541 32.1455 75.0433 32.2095 75.3647 32.2095H75.4611C75.911 32.1455 76.2645 31.9533 76.5216 31.6331C76.843 31.3128 77.0037 30.9285 77.0037 30.4802C76.8751 28.3665 76.8751 26.4129 77.0037 24.6195C77.1322 22.8261 77.2608 21.2889 77.3893 20.0079C77.5179 18.6628 77.7107 17.4458 77.9678 16.357C78.2892 15.2681 78.5463 14.4034 78.7391 13.7629C78.9319 13.0583 79.1569 12.4499 79.414 11.9375C79.7353 11.361 79.9282 11.0087 79.9924 10.8806C80.121 10.6885 80.2174 10.5604 80.2817 10.4963ZM118.171 56.9972C118.364 56.5488 118.3 56.1645 117.979 55.8442C117.657 55.524 117.239 55.4279 116.725 55.556C116.275 55.6201 115.954 55.8763 115.761 56.3246C114.861 58.8867 113.544 61.0964 111.808 62.9539C110.073 64.8114 108.016 66.0283 105.638 66.6048C105.381 66.6688 105.156 66.8289 104.963 67.0852C104.835 67.2773 104.77 67.5015 104.77 67.7577C104.77 68.0139 104.835 68.2701 104.963 68.5263C105.092 68.7184 105.284 68.8786 105.542 69.0067C105.799 69.1348 106.056 69.1348 106.313 69.0067C109.141 68.3662 111.551 66.9571 113.544 64.7793C115.536 62.6016 117.079 60.0075 118.171 56.9972Z" fill="url(#paint1_linear_692_279)"/>
<path d="M180.349 7.22973C181.441 9.98391 182.181 13.1224 182.566 16.6452C182.952 20.168 183.08 23.1143 182.952 25.4842C182.888 27.79 182.695 30.9926 182.373 35.0918C182.309 35.5402 182.213 36.6931 182.084 38.5505C181.956 40.344 181.859 41.5609 181.795 42.2014C181.731 42.8419 181.602 43.9628 181.409 45.5641C181.216 47.1013 180.991 48.3183 180.734 49.215C180.477 50.0477 180.124 51.0725 179.674 52.2894C179.288 53.5064 178.806 54.6273 178.228 55.6521C177.649 56.6129 176.974 57.5096 176.203 58.3422C174.082 60.7762 171.415 62.6016 168.201 63.8186C164.987 65.0355 161.902 65.2277 158.945 64.395C156.567 63.6905 154.414 62.1853 152.486 59.8794C150.557 57.5736 149.015 55.0436 147.858 52.2894C148.115 54.0188 147.986 55.8763 147.472 57.8618C146.958 59.7834 146.38 61.2886 145.737 62.3774L144.773 64.0107C143.616 65.9322 142.234 67.1812 140.627 67.7577C139.084 68.3341 137.445 68.0459 135.71 66.893C133.975 65.676 132.464 63.5303 131.179 60.4559C129.958 57.7017 129.122 52.7698 128.672 45.6602C128.672 45.404 128.64 44.9556 128.576 44.3151C128.447 42.4576 128.351 40.9845 128.286 39.8956C128.222 38.7427 128.158 36.9813 128.094 34.6114C128.029 32.2415 128.029 30.256 128.094 28.6547C128.158 26.9894 128.286 25.0038 128.479 22.698C128.736 20.3281 129.058 18.3425 129.443 16.7413C129.829 15.0759 130.343 13.3466 130.986 11.5532C131.693 9.69568 132.496 8.19049 133.396 7.03757C134.296 5.88466 135.421 4.89187 136.771 4.05922C138.12 3.22656 139.631 2.74618 141.302 2.61807C142.78 2.48997 144.259 2.71415 145.737 3.29061C148.758 4.44352 151.875 6.97353 155.089 10.8806C155.153 11.0087 155.507 11.4891 156.149 12.3218C156.856 13.0904 157.371 13.7309 157.692 14.2433C158.078 14.6916 158.528 15.3001 159.042 16.0687C159.62 16.8373 160.038 17.5419 160.295 18.1824C160.616 18.7589 160.777 19.2713 160.777 19.7196C160.649 16.7733 160.745 14.1472 161.066 11.8414C161.452 9.4715 161.966 7.61403 162.609 6.26897C163.316 4.9239 164.055 3.80301 164.826 2.9063C165.662 1.94554 166.498 1.30503 167.333 0.984781C168.169 0.600474 168.94 0.34427 169.647 0.216171C170.354 0.024017 170.9 -0.0400329 171.286 0.0240209C171.736 0.0240209 171.993 0.0560458 172.057 0.120096C175.978 0.824652 178.742 3.19453 180.349 7.22973ZM131.468 25.0038C131.789 25.3241 132.175 25.4842 132.625 25.4842C133.075 25.4842 133.46 25.3241 133.782 25.0038C134.103 24.6836 134.264 24.2993 134.264 23.8509C134.264 23.4025 134.103 23.0182 133.782 22.698C133.46 22.3777 133.075 22.2176 132.625 22.2176C132.304 22.2176 132.014 22.2817 131.757 22.4098C131.564 22.5379 131.372 22.73 131.179 22.9862C131.05 23.2424 130.986 23.5306 130.986 23.8509C130.986 24.2993 131.147 24.6836 131.468 25.0038ZM143.23 8.38264C143.616 8.25454 143.905 8.03036 144.098 7.71011C144.355 7.38986 144.419 7.03758 144.291 6.65327C144.226 6.20492 144.001 5.88466 143.616 5.69251C143.294 5.50036 142.941 5.43631 142.555 5.50036C142.298 5.56441 141.945 5.69251 141.495 5.88466C141.109 6.01276 140.402 6.39707 139.374 7.03757C138.345 7.67808 137.413 8.47872 136.578 9.43948C135.742 10.3362 134.875 11.6813 133.975 13.4747C133.139 15.204 132.528 17.1896 132.143 19.4314C132.079 19.8157 132.143 20.2 132.336 20.5843C132.593 20.9046 132.914 21.0967 133.3 21.1608C133.428 21.1608 133.525 21.1608 133.589 21.1608C134.425 21.1608 134.907 20.7444 135.035 19.9118C135.357 18.0543 135.839 16.421 136.481 15.0119C137.188 13.5387 137.863 12.4178 138.506 11.6492C139.213 10.8806 139.952 10.2401 140.723 9.7277C141.495 9.15125 142.041 8.79897 142.362 8.67087C142.748 8.54277 143.037 8.44669 143.23 8.38264ZM178.42 51.8091C178.613 51.3607 178.549 50.9764 178.228 50.6561C177.906 50.3359 177.488 50.2398 176.974 50.3679C176.524 50.432 176.203 50.6882 176.01 51.1365C175.11 53.3142 173.793 55.2678 172.057 56.9972C170.322 58.6625 168.394 59.9115 166.273 60.7441C165.501 61.0003 165.244 61.5448 165.501 62.3774C165.758 63.146 166.24 63.4022 166.947 63.146C169.518 62.1853 171.8 60.7121 173.793 58.7265C175.849 56.741 177.392 54.4351 178.42 51.8091Z" fill="url(#paint2_linear_692_279)"/>
<path d="M60.1644 82.6443C60.9701 85.5742 60.6772 88.3575 59.2855 90.9944C57.8938 93.6313 55.7331 95.2061 52.8032 95.7188C51.558 95.9385 50.0931 96.0484 48.4084 96.0484C46.797 96.0484 45.5884 96.0484 44.7827 96.0484C43.977 95.9751 42.4389 95.792 40.1682 95.499C37.9708 95.2061 36.689 95.0596 36.3228 95.0596C30.4631 94.4004 27.0571 95.6822 26.1049 98.905C25.812 99.9304 25.9218 100.883 26.4346 101.762C26.9473 102.641 27.6797 103.3 28.6319 103.739C29.5841 104.179 30.573 104.398 31.5984 104.398C32.5506 104.472 34.2719 104.325 36.7623 103.959C39.3259 103.593 41.5233 103.52 43.3544 103.739C45.2588 103.886 46.9069 104.472 48.2986 105.497C49.3973 106.449 50.0931 107.695 50.3861 109.233C50.6791 110.698 50.6424 112.126 50.2762 113.518C49.91 114.909 49.324 116.228 48.5183 117.473C47.4928 119.231 46.0645 120.623 44.2334 121.648C42.4022 122.6 40.4612 123.04 38.4103 122.966C37.4581 122.966 36.1031 122.783 34.3451 122.417C32.5872 121.978 31.1589 121.685 30.0602 121.538C29.0348 121.392 27.753 121.538 26.2148 121.978C25.4824 122.271 24.8964 122.82 24.4569 123.626C24.0174 124.358 23.7611 125.384 23.6878 126.702C23.6146 127.947 23.5413 128.973 23.4681 129.778C23.4681 130.511 23.5047 131.646 23.578 133.184C23.7244 134.722 23.7977 135.528 23.7977 135.601C23.9442 137.799 24.0174 139.593 24.0174 140.985C23.9442 143.842 23.3582 146.112 22.2595 147.797C21.2341 149.482 19.4029 150.544 16.7661 150.983C14.4222 151.276 12.0417 151.093 9.62455 150.434C7.28067 149.701 5.37627 148.493 3.91134 146.808C3.25212 146.076 2.66616 145.16 2.15343 144.061C1.71395 142.963 1.38435 141.974 1.16461 141.095C0.944869 140.143 0.761753 138.897 0.615261 137.359C0.542014 135.748 0.505391 134.576 0.505391 133.843C0.505391 133.038 0.505391 131.793 0.505391 130.108C0.505391 128.35 0.505391 127.325 0.505391 127.032C0.505391 125.493 0.468768 123.186 0.395522 120.11C0.322276 116.96 0.24903 114.36 0.175783 112.309C0.102537 110.258 0.13916 107.768 0.285653 104.838C0.505391 101.835 0.834999 99.2712 1.27448 97.1471C1.7872 94.9497 2.51966 92.6791 3.47186 90.3352C4.49731 87.9913 5.77912 85.9038 7.31729 84.0726C10.6866 80.0441 15.3378 77.2974 21.2707 75.8324C24.7865 74.9535 29.8405 74.4408 36.4327 74.2943C43.5376 74.0745 48.8479 74.4408 52.3637 75.393C54.1216 75.8324 55.733 76.748 57.198 78.1397C58.6629 79.5314 59.6517 81.0329 60.1644 82.6443ZM5.01003 101.102C5.52276 101.102 5.96224 100.919 6.32847 100.553C6.6947 100.187 6.87781 99.784 6.87781 99.3445C6.87781 98.8318 6.6947 98.3923 6.32847 98.026C5.96224 97.6598 5.52276 97.4767 5.01003 97.4767C4.71705 97.4767 4.42406 97.5499 4.13108 97.6964C3.83809 97.8429 3.61836 98.0627 3.47186 98.3556C3.32537 98.6486 3.25213 98.9782 3.25213 99.3445C3.25213 99.6375 3.32537 99.9304 3.47186 100.223C3.61836 100.516 3.83809 100.736 4.13108 100.883C4.42406 101.029 4.71705 101.102 5.01003 101.102ZM16.5463 149.445C18.6705 149.225 20.1354 148.419 20.9411 147.028C21.82 145.563 22.1863 144.098 22.0398 142.633C21.9665 141.901 21.5271 141.571 20.7214 141.644C19.9156 141.644 19.5494 142.047 19.6227 142.853C19.6959 143.219 19.6959 143.658 19.6227 144.171C19.5494 144.611 19.2198 145.197 18.6338 145.929C18.1211 146.588 17.352 146.955 16.3266 147.028C15.5209 147.174 15.1546 147.614 15.2279 148.346C15.3011 149.079 15.704 149.445 16.4364 149.445C16.5097 149.445 16.5463 149.445 16.5463 149.445ZM21.051 83.0838C21.5637 82.7908 21.9299 82.388 22.1497 81.8752C22.3694 81.3625 22.3328 80.8498 22.0398 80.3371C21.82 79.7511 21.4172 79.3849 20.8312 79.2384C20.3185 79.0186 19.8058 79.0186 19.293 79.2384C18.9268 79.4581 18.4507 79.7145 17.8647 80.0075C17.352 80.2272 16.4364 80.7766 15.118 81.6555C13.8728 82.5345 12.7009 83.4867 11.6022 84.5121C10.5035 85.4643 9.36819 86.7095 8.19625 88.2477C7.02431 89.7858 6.14535 91.324 5.55938 92.8622C5.48614 93.2284 5.44951 93.5946 5.44951 93.9609C5.52276 94.3271 5.66925 94.6567 5.88899 94.9497C6.18197 95.2427 6.51158 95.4624 6.87781 95.6089C7.09755 95.6822 7.31729 95.7188 7.53703 95.7188C8.56248 95.7188 9.22169 95.2427 9.51468 94.2905C10.5401 91.4339 12.7741 88.7238 16.2167 86.1602C18.1211 84.6952 19.7325 83.6698 21.051 83.0838Z" fill="url(#paint3_linear_692_279)"/>
<path d="M101.878 129.119C103.856 129.266 105.357 129.888 106.383 130.987C107.408 132.086 107.921 133.441 107.921 135.052C107.994 136.59 107.847 138.238 107.481 139.996C107.115 141.461 106.383 142.743 105.284 143.842C104.185 144.867 102.903 145.673 101.438 146.259C100.047 146.845 98.5086 147.321 96.8239 147.687C95.2125 148.053 93.6011 148.273 91.9896 148.346C90.4515 148.419 89.0232 148.493 87.7047 148.566C86.4595 148.566 85.4341 148.529 84.6284 148.456L83.4198 148.346C82.9071 148.273 81.8084 148.09 80.1237 147.797C78.4391 147.504 77.3038 147.284 76.7178 147.138C76.1318 146.991 75.1796 146.735 73.8612 146.369C72.5428 145.929 71.5173 145.49 70.7849 145.05C70.1256 144.537 69.3566 143.878 68.4776 143.072C67.5986 142.267 66.8296 141.315 66.1703 140.216C64.8519 138.092 63.7898 135.455 62.9841 132.305C62.2517 129.156 61.7756 126.592 61.5558 124.614C61.4093 122.637 61.2262 119.78 61.0065 116.045C60.4205 107.402 61.1164 99.3445 63.094 91.8734C63.68 89.7492 64.4857 87.6617 65.5111 85.6108C66.6098 83.5599 67.9283 81.6555 69.4664 79.8976C71.0778 78.1397 72.7991 76.748 74.6303 75.7226C74.9233 75.5761 75.1796 75.4296 75.3994 75.2831C78.256 73.8914 81.2224 73.1223 84.2988 72.9758C86.7159 72.9026 89.0598 73.0125 91.3304 73.3054C93.6011 73.5252 96.0182 74.0013 98.5818 74.7337C101.145 75.393 103.233 76.6015 104.844 78.3594C106.456 80.0441 107.298 82.1316 107.371 84.622C107.591 88.211 107.225 90.8845 106.273 92.6424C105.906 93.4482 105.32 94.1074 104.515 94.6201C103.709 95.1328 103.05 95.499 102.537 95.7188C102.024 95.8653 101.145 96.085 99.9002 96.378C96.5309 97.257 92.0629 97.4035 86.4962 96.8175C85.3975 96.671 84.5185 96.8907 83.8593 97.4767C83.2001 97.9894 82.7972 98.5021 82.6507 99.0149L82.431 99.8938C81.9915 101.725 82.1746 103.117 82.9804 104.069C83.8593 104.948 84.9946 105.387 86.3863 105.387C87.778 105.314 89.133 105.277 90.4515 105.277C92.2094 105.204 93.4912 105.168 94.2969 105.168C95.1026 105.168 96.2379 105.241 97.7028 105.387C99.1678 105.534 100.413 105.9 101.438 106.486C102.464 107.072 103.343 107.878 104.075 108.903C105.467 110.954 105.906 113.042 105.394 115.166C104.881 117.217 103.563 118.865 101.438 120.11C100.633 120.549 99.0945 120.879 96.8239 121.099C94.6265 121.318 92.6122 121.428 90.7811 121.428H88.0343C86.2032 121.428 84.9946 122.087 84.4087 123.406C83.8227 124.651 83.9326 125.933 84.7383 127.251C85.544 128.496 86.7159 129.119 88.2541 129.119C88.5471 129.119 90.8177 129.082 95.066 129.009C99.3143 128.936 101.585 128.973 101.878 129.119ZM65.1815 95.3892C65.5478 95.7554 65.9872 95.9385 66.4999 95.9385C67.0127 95.9385 67.4522 95.7554 67.8184 95.3892C68.1846 95.0229 68.3677 94.5835 68.3677 94.0707C68.3677 93.558 68.1846 93.1185 67.8184 92.7523C67.4522 92.3861 67.0127 92.203 66.4999 92.203C65.9872 92.203 65.5478 92.3861 65.1815 92.7523C64.8153 93.1185 64.6322 93.558 64.6322 94.0707C64.6322 94.5835 64.8153 95.0229 65.1815 95.3892ZM80.783 80.0075C81.2957 79.7145 81.6253 79.3116 81.7718 78.7989C81.9183 78.2862 81.845 77.7735 81.5521 77.2607C81.2591 76.748 80.8196 76.4184 80.2336 76.2719C79.7209 76.1254 79.2448 76.1987 78.8053 76.4916C78.0729 76.9311 77.1939 77.4805 76.1684 78.1397C75.2162 78.7257 73.7147 79.9708 71.6638 81.8752C69.6862 83.7797 68.2945 85.6474 67.4888 87.4786C67.1958 87.9913 67.1592 88.504 67.3789 89.0168C67.5986 89.5295 67.9649 89.8957 68.4776 90.1154C68.6973 90.2619 68.9537 90.3352 69.2467 90.3352C70.1256 90.3352 70.7482 89.9323 71.1145 89.1266C72.0667 87.0757 73.9711 84.9516 76.8277 82.7542C78.5123 81.4358 79.8308 80.5202 80.783 80.0075ZM98.4719 145.49C101.329 144.83 103.343 143.585 104.515 141.754C105.76 139.923 106.309 138.165 106.163 136.48C106.09 135.675 105.65 135.308 104.844 135.382C104.112 135.382 103.782 135.784 103.856 136.59C103.856 136.81 103.819 137.066 103.746 137.359C103.746 137.579 103.636 138.018 103.416 138.678C103.27 139.264 103.013 139.813 102.647 140.326C102.281 140.838 101.695 141.388 100.889 141.974C100.083 142.487 99.0945 142.889 97.9226 143.182C97.1901 143.329 96.8971 143.768 97.0436 144.501C97.1901 145.16 97.5564 145.49 98.1423 145.49C98.2888 145.49 98.3987 145.49 98.4719 145.49Z" fill="url(#paint4_linear_692_279)"/>
<path d="M148.044 95.7188C147.385 95.7188 146.47 95.5723 145.298 95.2793C144.126 94.9131 143.064 94.6201 142.112 94.4004C141.233 94.1074 140.317 93.9609 139.365 93.9609C138.413 93.8876 137.57 94.144 136.838 94.73C136.179 95.3159 135.702 96.2315 135.409 97.4767C134.824 99.8938 135.117 102.457 136.288 105.168C137.46 107.804 138.925 110.185 140.683 112.309C142.514 114.36 144.309 116.74 146.067 119.451C147.898 122.087 148.997 124.468 149.363 126.592C150.901 135.015 148.63 141.461 142.551 145.929C140.134 147.687 137.094 148.932 133.432 149.665C129.77 150.324 126.217 150.397 122.775 149.884C119.332 149.298 116.292 147.87 113.655 145.599C111.019 143.329 109.517 140.399 109.151 136.81C108.931 134.393 109.444 132.379 110.689 130.767C112.007 129.082 113.802 128.167 116.072 128.02C116.512 127.947 117.867 128.02 120.138 128.24C122.408 128.46 124.203 128.387 125.521 128.02C126.913 127.581 127.829 126.629 128.268 125.164C128.634 124.065 128.634 122.82 128.268 121.428C127.902 120.037 127.243 118.645 126.29 117.253C125.338 115.788 124.386 114.47 123.434 113.298C122.482 112.053 121.419 110.771 120.248 109.452C119.076 108.061 118.27 107.072 117.83 106.486C114.461 101.871 113.362 96.4513 114.534 90.2253C115.706 83.9261 118.709 79.1651 123.544 75.9423C126.327 74.1844 129.806 73.2688 133.981 73.1956C138.156 73.1223 141.745 73.8182 144.748 75.2831C146.946 76.3818 148.96 77.9566 150.791 80.0075C152.622 81.9851 153.831 84.1093 154.417 86.3799C155.076 88.9435 154.82 91.1775 153.648 93.0819C152.476 94.9863 150.608 95.8653 148.044 95.7188ZM117.171 96.1583C117.537 96.1583 117.867 96.0484 118.16 95.8287C118.453 95.5357 118.599 95.2061 118.599 94.8398C118.599 94.4004 118.453 94.0341 118.16 93.7411C117.867 93.4482 117.501 93.3017 117.061 93.3017C116.695 93.3017 116.365 93.4482 116.072 93.7411C115.853 94.0341 115.743 94.3637 115.743 94.73C115.743 94.9497 115.78 95.1694 115.853 95.3892C115.926 95.5357 115.999 95.6822 116.072 95.8287C116.219 95.9019 116.365 95.9751 116.512 96.0484C116.732 96.1216 116.951 96.1583 117.171 96.1583ZM127.279 80.6667C128.305 80.2272 128.598 79.4947 128.158 78.4693C128.012 78.0298 127.719 77.7368 127.279 77.5903C126.84 77.3706 126.4 77.3706 125.961 77.5903C125.741 77.6636 125.448 77.8101 125.082 78.0298C124.789 78.1763 124.203 78.5792 123.324 79.2384C122.518 79.8244 121.712 80.5568 120.907 81.4358C120.174 82.2415 119.369 83.3768 118.49 84.8417C117.684 86.3066 116.988 87.9181 116.402 89.676C116.329 89.8957 116.292 90.1154 116.292 90.3352C116.292 90.5549 116.329 90.7747 116.402 90.9944C116.549 91.1409 116.695 91.2874 116.842 91.4339C117.061 91.5804 117.281 91.6902 117.501 91.7635C117.647 91.8367 117.794 91.8734 117.94 91.8734C118.746 91.8734 119.295 91.4705 119.588 90.6648C120.028 89.1999 120.577 87.8814 121.236 86.7095C121.969 85.4643 122.628 84.5121 123.214 83.8529C123.873 83.1204 124.532 82.4978 125.192 81.9851C125.851 81.4724 126.29 81.1428 126.51 80.9963C126.803 80.8498 127.059 80.7399 127.279 80.6667ZM143.76 137.359C142.002 141.534 138.266 143.988 132.553 144.721C131.527 144.867 131.088 145.453 131.234 146.478C131.308 147.284 131.747 147.65 132.553 147.577C139.511 146.625 144.089 143.695 146.287 138.788C146.726 137.835 146.433 137.14 145.408 136.7C144.675 136.407 144.126 136.627 143.76 137.359Z" fill="url(#paint5_linear_692_279)"/>
<path d="M205.076 78.2496C206.834 79.7145 207.64 81.802 207.493 84.5121C207.347 87.149 206.431 89.2365 204.746 90.7747C203.794 91.6536 202.622 92.2762 201.231 92.6424C199.912 93.0087 198.081 93.3017 195.737 93.5214C193.467 93.7411 192.148 93.8876 191.782 93.9609C192.221 105.754 192.221 114.616 191.782 120.549C191.709 121.501 191.635 123.186 191.562 125.603C191.489 127.947 191.416 130.071 191.342 131.976C191.342 133.88 191.159 136.077 190.793 138.568C190.5 140.985 190.061 143.072 189.475 144.83C188.889 146.588 187.973 148.2 186.728 149.665C185.556 151.056 184.128 151.972 182.443 152.411C179.66 153.071 177.243 152.961 175.192 152.082C173.214 151.203 171.712 150.031 170.687 148.566C169.662 147.101 168.819 144.977 168.16 142.194C167.501 139.41 167.098 137.176 166.951 135.491C166.805 133.807 166.658 131.573 166.512 128.789C166.512 127.911 166.475 127.288 166.402 126.922C165.67 113.371 166.622 102.824 169.259 95.2793C169.185 95.499 167.977 95.499 165.633 95.2793C163.362 94.9863 161.861 94.7666 161.128 94.6201C159.297 94.1806 157.722 93.1552 156.404 91.5437C155.452 90.2986 154.719 88.9435 154.207 87.4786C153.694 86.0137 153.584 84.4755 153.877 82.8641C154.097 81.2527 154.866 79.9342 156.184 78.9088C157.21 78.0298 158.601 77.334 160.359 76.8213C162.117 76.3085 163.692 76.0522 165.084 76.0522L196.067 75.393C197.532 75.393 199.143 75.6859 200.901 76.2719C202.659 76.7846 204.051 77.4439 205.076 78.2496ZM165.413 80.7766C165.853 80.7766 166.219 80.5934 166.512 80.2272C166.805 79.861 166.915 79.4581 166.842 79.0186C166.842 78.5792 166.658 78.2129 166.292 77.9199C165.926 77.5537 165.523 77.4072 165.084 77.4805C162.96 77.7002 160.872 78.4693 158.821 79.7877C156.77 81.1062 155.635 83.0838 155.415 85.7207C155.415 86.1602 155.562 86.563 155.855 86.9292C156.148 87.2955 156.514 87.4786 156.953 87.4786C156.953 87.4786 156.99 87.4786 157.063 87.4786C157.503 87.4786 157.869 87.3321 158.162 87.0391C158.528 86.7461 158.748 86.3799 158.821 85.9404C158.968 84.036 160.066 82.6077 162.117 81.6555C163.143 81.216 164.241 80.923 165.413 80.7766ZM189.145 142.084C189.292 141.131 188.889 140.545 187.936 140.326C187.058 140.106 186.545 140.436 186.398 141.315C186.105 143.292 185.336 144.977 184.091 146.369C182.846 147.76 181.234 148.566 179.257 148.786C178.671 148.859 178.268 149.152 178.048 149.665C177.828 150.177 177.828 150.653 178.048 151.093C178.268 151.532 178.671 151.716 179.257 151.642C181.894 151.349 184.091 150.36 185.849 148.676C187.68 146.918 188.779 144.721 189.145 142.084Z" fill="url(#paint6_linear_692_279)"/>
<path d="M61.3934 53.4768C62.7388 52.2003 64.9464 53.2836 64.7599 55.1288L64.0517 62.135C64.0291 62.3586 64.0443 62.5844 64.0968 62.8029L65.7401 69.6503C66.1729 71.4537 64.1309 72.8239 62.6262 71.7398L56.9128 67.6233C56.7304 67.492 56.5273 67.3923 56.3118 67.3285L49.5601 65.3279C47.7819 64.801 47.6163 62.3475 49.3075 61.5865L55.7292 58.6967C55.9341 58.6045 56.122 58.4784 56.285 58.3237L61.3934 53.4768Z" fill="url(#paint7_linear_692_279)"/>
<defs>
<linearGradient id="paint0_linear_692_279" x1="100.5" y1="0" x2="100.5" y2="72" gradientUnits="userSpaceOnUse">
<stop stop-color="#30C5DA"/>
<stop offset="1" stop-color="#B2FFBA"/>
</linearGradient>
<linearGradient id="paint1_linear_692_279" x1="100.5" y1="0" x2="100.5" y2="72" gradientUnits="userSpaceOnUse">
<stop stop-color="#30C5DA"/>
<stop offset="1" stop-color="#B2FFBA"/>
</linearGradient>
<linearGradient id="paint2_linear_692_279" x1="100.5" y1="0" x2="100.5" y2="72" gradientUnits="userSpaceOnUse">
<stop stop-color="#30C5DA"/>
<stop offset="1" stop-color="#B2FFBA"/>
</linearGradient>
<linearGradient id="paint3_linear_692_279" x1="103.825" y1="72.9539" x2="103.825" y2="152.835" gradientUnits="userSpaceOnUse">
<stop stop-color="#FFD88E"/>
<stop offset="1" stop-color="#F03C23"/>
</linearGradient>
<linearGradient id="paint4_linear_692_279" x1="103.825" y1="72.9539" x2="103.825" y2="152.835" gradientUnits="userSpaceOnUse">
<stop stop-color="#FFD88E"/>
<stop offset="1" stop-color="#F03C23"/>
</linearGradient>
<linearGradient id="paint5_linear_692_279" x1="103.825" y1="72.9539" x2="103.825" y2="152.835" gradientUnits="userSpaceOnUse">
<stop stop-color="#FFD88E"/>
<stop offset="1" stop-color="#F03C23"/>
</linearGradient>
<linearGradient id="paint6_linear_692_279" x1="103.825" y1="72.9539" x2="103.825" y2="152.835" gradientUnits="userSpaceOnUse">
<stop stop-color="#FFD88E"/>
<stop offset="1" stop-color="#F03C23"/>
</linearGradient>
<linearGradient id="paint7_linear_692_279" x1="65.3017" y1="49.7686" x2="52.494" y2="75.8681" gradientUnits="userSpaceOnUse">
<stop stop-color="#72FFBF"/>
<stop offset="1" stop-color="#40E5EF"/>
</linearGradient>
</defs>
</svg>
