<svg width="90" height="67" viewBox="0 0 90 67" fill="none" xmlns="http://www.w3.org/2000/svg">
<circle cx="18" cy="42" r="18" fill="#26D9DD"/>
<path opacity="0.3" fill-rule="evenodd" clip-rule="evenodd" d="M35.9995 42.1288C30.0729 39.1833 26 33.0673 26 26.0001C26 25.9571 26.0002 25.9142 26.0005 25.8713C31.9271 28.8168 36 34.9328 36 42.0001C36 42.043 35.9998 42.0859 35.9995 42.1288Z" fill="black"/>
<circle cx="45" cy="25" r="18" fill="#FF985B"/>
<path opacity="0.2" fill-rule="evenodd" clip-rule="evenodd" d="M53.0005 41.1288C58.9271 38.1833 63 32.0673 63 25.0001C63 24.9571 62.9999 24.9142 62.9995 24.8713C57.0729 27.8168 53 33.9328 53 41.0001C53 41.043 53.0001 41.0859 53.0005 41.1288Z" fill="black"/>
<circle cx="72" cy="42" r="18" fill="#3F3F3F"/>
<path d="M23.36 37.1L20.96 37.38V48.64L15.28 49.34L15.58 37.92L12.94 38.18L13.08 33.26L23.88 32.34L23.36 37.1Z" fill="white"/>
<path d="M40.22 12.7L45.12 18.88L49.84 14L54.74 27.48L49.92 31.42L47.74 24.92L45.02 29.68L41.74 24.64L39.8 30.56L35.14 27.54L40.22 12.7Z" fill="white"/>
<path d="M75.74 39.08C75.5533 38.6267 75.2533 38.3 74.84 38.1C74.44 37.8867 73.9867 37.78 73.48 37.78C72.9867 37.78 72.4733 37.8867 71.94 38.1C71.4067 38.3133 70.92 38.6133 70.48 39C70.04 39.3867 69.6733 39.86 69.38 40.42C69.1 40.98 68.96 41.6133 68.96 42.32C68.9467 42.9733 69.0467 43.5 69.26 43.9C69.4867 44.2867 69.7667 44.5667 70.1 44.74C70.4467 44.9133 70.8267 44.9933 71.24 44.98C71.6533 44.9533 72.06 44.8533 72.46 44.68C72.86 44.4933 73.22 44.2533 73.54 43.96C73.8733 43.6533 74.12 43.3067 74.28 42.92L71.44 43.46L71.76 40.24L80.48 39.14C80.6 39.98 80.56 40.8133 80.36 41.64C80.1733 42.4533 79.9067 43.2 79.56 43.88C79.2267 44.56 78.8733 45.1733 78.5 45.72C78.1267 46.2533 77.8133 46.66 77.56 46.94C77.32 47.22 77.1867 47.3733 77.16 47.4C76.68 47.88 76.0933 48.3 75.4 48.66C74.72 49.02 73.9867 49.2933 73.2 49.48C72.4133 49.6667 71.6 49.7467 70.76 49.72C69.92 49.7067 69.12 49.56 68.36 49.28C67.6 49.0133 66.8933 48.6 66.24 48.04C65.6 47.48 65.08 46.7533 64.68 45.86C64.2267 44.86 63.9667 43.8667 63.9 42.88C63.8333 41.88 63.9133 40.92 64.14 40C64.3667 39.0667 64.7267 38.1867 65.22 37.36C65.7267 36.5333 66.3267 35.7933 67.02 35.14C67.7267 34.4733 68.5133 33.9067 69.38 33.44C70.2467 32.9733 71.16 32.64 72.12 32.44C72.1467 32.44 72.2867 32.4267 72.54 32.4C72.8067 32.36 73.1867 32.3533 73.68 32.38C74.1733 32.4067 74.7267 32.5067 75.34 32.68C75.9533 32.84 76.62 33.12 77.34 33.52C78.06 33.9067 78.7733 34.4467 79.48 35.14L75.74 39.08Z" fill="white"/>
</svg>
