<svg width="271" height="12" viewBox="0 0 271 12" fill="none" xmlns="http://www.w3.org/2000/svg">
<path d="M249.583 2.30341H148.617C148.311 2.30341 148.018 2.18208 147.802 1.96609C147.586 1.7501 147.465 1.45716 147.465 1.1517C147.465 0.846254 147.586 0.553306 147.802 0.33732C148.018 0.121333 148.311 0 148.617 0H249.583C249.888 0 250.181 0.121333 250.397 0.33732C250.613 0.553306 250.735 0.846254 250.735 1.1517C250.735 1.45716 250.613 1.7501 250.397 1.96609C250.181 2.18208 249.888 2.30341 249.583 2.30341ZM142.056 2.30341H133.256C132.951 2.30341 132.658 2.18208 132.442 1.96609C132.225 1.7501 132.104 1.45716 132.104 1.1517C132.104 0.846254 132.225 0.553306 132.442 0.33732C132.658 0.121333 132.951 0 133.256 0H142.056C142.362 0 142.655 0.121333 142.871 0.33732C143.087 0.553306 143.208 0.846254 143.208 1.1517C143.208 1.45716 143.087 1.7501 142.871 1.96609C142.655 2.18208 142.362 2.30341 142.056 2.30341ZM3.80797 2.30341H1.15207C0.84652 2.30341 0.553492 2.18208 0.337438 1.96609C0.121383 1.7501 0 1.45716 0 1.1517C0 0.846254 0.121383 0.553306 0.337438 0.33732C0.553492 0.121333 0.84652 0 1.15207 0H3.80797C4.11352 0 4.40655 0.121333 4.6226 0.33732C4.83866 0.553306 4.96004 0.846254 4.96004 1.1517C4.96004 1.45716 4.83866 1.7501 4.6226 1.96609C4.40655 2.18208 4.11352 2.30341 3.80797 2.30341ZM126.696 2.30341H10.3686C10.0631 2.30341 9.77003 2.18208 9.55397 1.96609C9.33792 1.7501 9.21654 1.45716 9.21654 1.1517C9.21654 0.846254 9.33792 0.553306 9.55397 0.33732C9.77003 0.121333 10.0631 0 10.3686 0H126.696C127.001 0 127.294 0.121333 127.51 0.33732C127.726 0.553306 127.848 0.846254 127.848 1.1517C127.848 1.45716 127.726 1.7501 127.51 1.96609C127.294 2.18208 127.001 2.30341 126.696 2.30341Z" fill="#303443"/>
<path d="M128.152 11.8815H136.952C137.258 11.8815 137.551 11.7602 137.767 11.5442C137.983 11.3282 138.104 11.0353 138.104 10.7298C138.104 10.4244 137.983 10.1314 137.767 9.91544C137.551 9.69946 137.258 9.57812 136.952 9.57812H128.152C127.847 9.57812 127.554 9.69946 127.337 9.91544C127.121 10.1314 127 10.4244 127 10.7298C127 11.0353 127.121 11.3282 127.337 11.5442C127.554 11.7602 127.847 11.8815 128.152 11.8815ZM266.401 11.8815H269.056C269.362 11.8815 269.655 11.7602 269.871 11.5442C270.087 11.3282 270.208 11.0353 270.208 10.7298C270.208 10.4244 270.087 10.1314 269.871 9.91544C269.655 9.69946 269.362 9.57812 269.056 9.57812H266.401C266.095 9.57812 265.802 9.69946 265.586 9.91544C265.37 10.1314 265.248 10.4244 265.248 10.7298C265.248 11.0353 265.37 11.3282 265.586 11.5442C265.802 11.7602 266.095 11.8815 266.401 11.8815ZM143.513 11.8815H259.84C260.145 11.8815 260.438 11.7602 260.655 11.5442C260.871 11.3282 260.992 11.0353 260.992 10.7298C260.992 10.4244 260.871 10.1314 260.655 9.91544C260.438 9.69946 260.145 9.57812 259.84 9.57812H143.513C143.207 9.57812 142.914 9.69946 142.698 9.91544C142.482 10.1314 142.361 10.4244 142.361 10.7298C142.361 11.0353 142.482 11.3282 142.698 11.5442C142.914 11.7602 143.207 11.8815 143.513 11.8815Z" fill="#303443"/>
</svg>
