<svg width="141" height="217" viewBox="0 0 141 217" fill="none" xmlns="http://www.w3.org/2000/svg">
<path d="M97.3288 25.2006C95.8829 26.2542 96.3794 25.3983 94.2692 25.9444C91.9765 26.5375 92.0798 27.9184 89.5788 28.8124C88.8688 29.0664 87.9469 29.0864 86.1636 28.8066C81.4415 28.0651 83.6673 26.5545 81.6475 24.2092C79.6277 21.8644 82.4045 18.7999 83.0136 17.6296C83.6233 16.4592 88.1517 16.5642 90.2284 15.3699C90.7489 15.0688 91.3305 14.8889 91.9302 14.8437C92.3547 14.8017 92.783 14.8628 93.1788 15.0219C93.5746 15.1809 93.9262 15.4331 94.2036 15.7571C94.481 16.081 94.676 16.4671 94.7721 16.8826C94.8683 17.2981 94.8626 17.7306 94.7557 18.1434C94.5199 18.8594 94.0149 19.4556 93.3473 19.8059C93.9949 20.5174 94.7416 21.132 95.5643 21.6309C97.8734 23.0254 99.8351 22.8945 100.038 23.8502C100.198 24.6028 97.4415 25.1184 97.3288 25.2006Z" fill="#FFC1A9"/>
<path d="M95.5648 21.6306C95.2474 22.3768 94.9111 23.0467 94.66 23.7448C94.5346 24.0899 94.4334 24.4433 94.3572 24.8025C94.2955 25.1798 94.2662 25.5618 94.2697 25.9441C94.0391 25.5951 93.9112 25.1884 93.9006 24.7702C93.897 24.3528 93.9675 23.9381 94.109 23.5454C94.252 23.1618 94.4492 22.8007 94.6946 22.473C94.9313 22.1419 95.2262 21.8565 95.5648 21.6306ZM92.2738 23.1049C90.9989 23.0874 89.7378 23.3703 88.5927 23.9308C88.0374 24.2116 87.5316 24.5809 87.0951 25.0243C86.6439 25.4855 86.2339 25.9852 85.8699 26.5179C86.0367 25.8642 86.3372 25.2522 86.7524 24.7204C87.1704 24.171 87.7072 23.7232 88.3227 23.4105C88.9334 23.0948 89.6017 22.9062 90.2874 22.8561C90.9596 22.7982 91.6366 22.883 92.2738 23.1049Z" fill="#C58877"/>
<path d="M93.7266 22.3315C93.7266 22.3315 90.934 22.5797 89.8824 23.0337L89.6653 23.1182C90.0238 22.9948 90.349 22.7902 90.6153 22.5204C91.4326 21.7445 92.4237 21.1755 93.506 20.8608" fill="#FCDFC2"/>
<path d="M91.594 22.0437C91.6392 22.3453 92.0371 22.5359 92.4825 22.4696C92.9273 22.4028 93.2512 22.1036 93.206 21.8015C93.1608 21.4999 92.763 21.3093 92.3176 21.3762C91.8734 21.443 91.5489 21.7416 91.594 22.0437Z" fill="#232321"/>
<path d="M91.3668 18.0432C91.8122 18.4392 92.2212 18.8698 92.6338 19.3015C92.8344 19.5221 93.0316 19.7462 93.2206 19.9826C93.4343 20.2284 93.6062 20.5077 93.7293 20.8092C93.7477 20.859 93.7455 20.914 93.7233 20.9622C93.701 21.0103 93.6606 21.0477 93.6108 21.0661L93.6049 21.0679L93.5609 21.0825C93.0976 21.2371 92.6509 21.4377 92.2277 21.6815C91.8032 21.9245 91.4038 22.2088 91.0353 22.5303C90.6603 22.9406 90.1845 23.2455 89.6551 23.415C89.3674 23.4924 89.066 23.5042 88.7732 23.4495C88.4803 23.3947 88.2036 23.2749 87.9633 23.0988C87.9286 23.0733 87.9016 23.0388 87.8853 22.999C87.7429 22.6352 87.6362 22.2584 87.5666 21.8739C87.489 21.4925 87.4575 21.1031 87.4727 20.7141C87.4831 20.3226 87.565 19.9363 87.7145 19.5743C87.8693 19.2209 88.1127 18.9134 88.421 18.6815C88.1774 18.9578 87.9979 19.2845 87.8952 19.6383C87.8131 19.9892 87.7856 20.3507 87.8137 20.71C87.8795 21.4285 88.0635 22.1311 88.3582 22.7896L88.2802 22.6899C88.4616 22.8021 88.6643 22.8754 88.8755 22.9054C89.0866 22.9354 89.3017 22.9213 89.5072 22.8641C89.72 22.8031 89.9197 22.7035 90.0964 22.5702C90.2789 22.4406 90.4443 22.2781 90.6538 22.0945C91.0556 21.7479 91.4963 21.4493 91.9671 21.2046C92.4372 20.9559 92.936 20.7658 93.4524 20.6385L93.2839 20.9118C93.1892 20.6619 93.0632 20.425 92.909 20.2067C92.7529 19.9615 92.5815 19.7216 92.4108 19.4816C92.0775 18.9941 91.713 18.5278 91.3668 18.0432Z" fill="#C58877"/>
<path d="M18.0555 216.938C21.2307 216.938 24.3347 215.997 26.9749 214.234C29.615 212.47 31.6728 209.964 32.8879 207.031C34.1031 204.098 34.4211 200.871 33.8016 197.758C33.1822 194.645 31.6531 191.785 29.4079 189.541C27.1626 187.296 24.302 185.767 21.1877 185.148C18.0735 184.529 14.8455 184.847 11.9119 186.062C8.97835 187.276 6.47103 189.333 4.70698 191.973C2.94294 194.612 2.00141 197.715 2.00146 200.889C2.00154 205.146 3.69297 209.228 6.70366 212.238C9.71435 215.247 13.7977 216.938 18.0555 216.938ZM18.0555 189.343C20.3398 189.343 22.5728 190.02 24.4722 191.289C26.3715 192.558 27.8518 194.361 28.726 196.471C29.6001 198.58 29.8288 200.902 29.3832 203.142C28.9375 205.381 27.8375 207.439 26.2222 209.054C24.6069 210.668 22.549 211.768 20.3085 212.214C18.0681 212.659 15.7458 212.43 13.6353 211.557C11.5249 210.683 9.72103 209.203 8.45188 207.304C7.18274 205.405 6.5053 203.173 6.50524 200.889C6.5052 199.373 6.80394 197.872 7.38438 196.471C7.96482 195.07 8.8156 193.797 9.88815 192.725C10.9607 191.652 12.234 190.802 13.6353 190.222C15.0367 189.641 16.5387 189.343 18.0555 189.343Z" fill="black"/>
<path d="M6.50537 200.89C6.50543 198.606 7.18285 196.374 8.452 194.475C9.72114 192.576 11.525 191.096 13.6355 190.222C15.7459 189.348 18.0682 189.12 20.3087 189.565C22.5491 190.011 24.6071 191.111 26.2223 192.725C27.8376 194.34 28.9376 196.397 29.3833 198.637C29.829 200.877 29.6003 203.198 28.7261 205.308C27.852 207.418 26.3716 209.221 24.4723 210.49C22.573 211.759 20.3399 212.436 18.0556 212.436C16.5388 212.436 15.0368 212.138 13.6355 211.557C12.2341 210.977 10.9608 210.126 9.88826 209.054C8.81572 207.982 7.96494 206.709 7.3845 205.308C6.80406 203.907 6.50533 202.406 6.50537 200.89Z" fill="#4C4C4B"/>
<path d="M8.04712 195.129C9.50365 192.601 11.8633 190.717 14.6519 189.857C17.4405 188.997 20.4516 189.223 23.0801 190.491L26.7688 187.413C24.6113 186.017 22.1501 185.16 19.5924 184.914C17.0346 184.668 14.455 185.04 12.0709 185.998L9.33342 187.418C7.49816 188.608 5.92379 190.158 4.70581 191.974L8.04712 195.129Z" fill="#4C4C4B"/>
<path d="M18.0556 200.889L7.07227 204.463C7.82706 206.775 9.29125 208.789 11.2568 210.221L18.6812 202.188L18.0556 200.889Z" fill="#666766"/>
<path d="M8.18607 213.545L11.2041 210.28L11.1941 210.177C9.25964 208.747 7.81929 206.749 7.07348 204.463L2.78857 205.857C3.78179 208.9 5.66125 211.577 8.18607 213.545Z" fill="#4C4C4B"/>
<path d="M8.08334 195.297L7.87646 195.182C8.89272 193.376 10.3708 191.872 12.1594 190.826C13.948 189.779 15.9828 189.226 18.0554 189.224C19.8825 189.218 21.6848 189.646 23.3141 190.473L23.2069 190.685C21.611 189.875 19.8453 189.455 18.0554 189.461C16.025 189.463 14.0316 190.005 12.2793 191.03C10.5271 192.056 9.07901 193.528 8.08334 195.297Z" fill="#303443"/>
<path d="M28.6464 186.98C25.7997 184.803 22.3622 183.534 18.783 183.34C15.2038 183.146 11.6492 184.036 8.58372 185.893C5.51822 187.75 3.08427 190.489 1.59982 193.75C0.115373 197.012 -0.350555 200.645 0.262904 204.176C0.818224 204.518 1.48071 204.642 2.12233 204.524C2.76395 204.407 3.33916 204.056 3.73683 203.539C3.19778 200.675 3.5453 197.715 4.733 195.053C5.9207 192.392 7.89208 190.156 10.384 188.645C12.876 187.133 15.7699 186.416 18.6797 186.592C21.5894 186.767 24.3764 187.825 26.6689 189.625C26.6689 189.625 28.9398 190.097 28.6464 186.98Z" fill="#686B76"/>
<path d="M15.7136 196.728C14.7681 196.728 13.8613 197.103 13.1927 197.772C12.5241 198.44 12.1484 199.347 12.1484 200.292C12.1484 201.237 12.5241 202.144 13.1927 202.812C13.8613 203.48 14.7681 203.856 15.7136 203.856H97.0422C97.8324 203.856 98.6149 203.7 99.3449 203.398C100.075 203.096 100.738 202.653 101.297 202.094C101.856 201.536 102.299 200.873 102.601 200.143C102.904 199.413 103.059 198.631 103.059 197.841V197.202L115.313 181.69L113.386 173.805L94.5248 196.728H15.6661" fill="black"/>
<path d="M131.271 186.141L131.797 191.602C133.252 192.674 134.435 194.074 135.249 195.687C136.064 197.3 136.487 199.082 136.486 200.89C136.486 201.11 136.478 201.329 136.466 201.547L140.575 204.507C141.425 200.841 140.959 196.993 139.258 193.635C137.557 190.278 134.73 187.625 131.271 186.141Z" fill="#1D1D1B"/>
<path d="M124.935 184.84C121.76 184.84 118.656 185.782 116.016 187.545C113.376 189.308 111.318 191.815 110.103 194.748C108.888 197.68 108.57 200.907 109.189 204.021C109.809 207.134 111.338 209.994 113.583 212.238C115.828 214.483 118.689 216.011 121.803 216.63C124.917 217.25 128.145 216.932 131.079 215.717C134.012 214.502 136.52 212.445 138.284 209.806C140.048 207.167 140.989 204.064 140.989 200.889C140.989 196.633 139.298 192.551 136.287 189.541C133.276 186.531 129.193 184.84 124.935 184.84ZM124.935 212.436C122.651 212.436 120.418 211.759 118.519 210.49C116.619 209.221 115.139 207.418 114.265 205.308C113.391 203.198 113.162 200.877 113.608 198.637C114.053 196.397 115.153 194.34 116.768 192.725C118.384 191.11 120.442 190.011 122.682 189.565C124.923 189.12 127.245 189.348 129.355 190.222C131.466 191.096 133.27 192.576 134.539 194.475C135.808 196.373 136.485 198.606 136.485 200.889C136.485 202.406 136.187 203.907 135.606 205.308C135.026 206.709 134.175 207.982 133.103 209.054C132.03 210.126 130.757 210.977 129.355 211.557C127.954 212.137 126.452 212.436 124.935 212.436Z" fill="black"/>
<path d="M136.486 200.889C136.486 203.173 135.808 205.405 134.539 207.304C133.27 209.203 131.466 210.683 129.356 211.557C127.245 212.43 124.923 212.659 122.682 212.214C120.442 211.768 118.384 210.668 116.769 209.054C115.153 207.439 114.053 205.381 113.608 203.142C113.162 200.902 113.391 198.58 114.265 196.471C115.139 194.361 116.619 192.558 118.519 191.289C120.418 190.02 122.651 189.343 124.935 189.343C126.452 189.343 127.954 189.641 129.356 190.222C130.757 190.802 132.03 191.652 133.103 192.725C134.175 193.797 135.026 195.07 135.606 196.471C136.187 197.872 136.486 199.373 136.486 200.889Z" fill="#4C4C4B"/>
<path d="M134.944 206.65C133.487 209.178 131.128 211.062 128.339 211.922C125.55 212.783 122.539 212.556 119.911 211.288L116.222 214.366C118.38 215.762 120.841 216.619 123.399 216.865C125.956 217.111 128.536 216.74 130.92 215.781L133.658 214.361C135.493 213.171 137.067 211.621 138.285 209.805L134.944 206.65Z" fill="#4C4C4B"/>
<path d="M124.936 200.889L135.919 197.315C135.165 195.004 133.7 192.989 131.735 191.557L124.311 199.59L124.936 200.889Z" fill="#666766"/>
<path d="M134.806 188.234L131.788 191.499L131.798 191.601C133.732 193.032 135.172 195.029 135.918 197.316L140.203 195.921C139.21 192.879 137.33 190.202 134.806 188.234Z" fill="#4C4C4B"/>
<path d="M124.935 212.555C123.108 212.56 121.306 212.132 119.677 211.305L119.784 211.093C121.38 211.903 123.145 212.323 124.935 212.317C126.966 212.315 128.959 211.774 130.712 210.749C132.464 209.723 133.912 208.25 134.908 206.481L135.115 206.597C134.098 208.403 132.62 209.906 130.831 210.953C129.043 212 127.008 212.552 124.935 212.555Z" fill="#303443"/>
<path d="M135.527 186.98C132.68 184.803 129.242 183.534 125.663 183.34C122.084 183.146 118.529 184.036 115.464 185.893C112.398 187.75 109.964 190.489 108.48 193.75C106.995 197.012 106.53 200.645 107.143 204.176C107.698 204.518 108.361 204.642 109.002 204.524C109.644 204.407 110.219 204.055 110.617 203.539C110.078 200.675 110.425 197.715 111.613 195.053C112.801 192.392 114.772 190.156 117.264 188.644C119.756 187.133 122.65 186.416 125.56 186.592C128.47 186.767 131.257 187.825 133.549 189.625C133.549 189.625 135.82 190.097 135.527 186.98Z" fill="#333333"/>
<path d="M112.902 147.945C112.902 147.945 97.682 88.5066 96.8287 84.7528C95.9755 80.9984 99.2346 79.9624 99.2346 79.9624L102.168 78.0124L99.6765 72.8079L91.7434 81.9616L108.806 149.252" fill="#4C4C4B"/>
<path d="M110.255 148.791C109.883 147.346 95.5455 91.5493 95.2926 89.36C95.0361 87.1419 96.8905 82.2846 96.8905 82.2846C96.8905 82.2846 94.2398 79.5199 92.419 81.7708C92.247 81.9837 92.2441 82.9311 92.3796 84.4704L108.805 149.253L110.255 148.791Z" fill="#1E1E1C"/>
<path d="M33.9298 169.615C35.1054 168.356 36.1437 166.975 37.027 165.495C37.027 165.495 42.7812 167.868 43.6585 170.355L43.317 171.691C43.317 171.691 41.0413 173.995 39.9041 175.36C38.7657 176.725 33.4175 177.237 33.4175 177.237L33.9298 169.615ZM62.3793 186.901C62.5184 185.184 62.4745 183.457 62.2484 181.749C62.2484 181.749 68.2333 180.037 70.4649 181.442L71.0271 182.702C71.0271 182.702 70.6744 185.92 70.6304 187.696C70.5858 189.473 66.7117 193.194 66.7117 193.194L62.3793 186.901Z" fill="#FFC1A9"/>
<path d="M54.431 125.836C54.431 125.836 53.9293 132.957 53.9856 134.435C53.9856 134.435 47.1299 139.015 38.3676 161.197C38.3676 161.197 35.2956 158.979 35.21 163.671C35.21 163.671 45.1952 173.739 45.6218 173.739C46.0758 173.629 46.4774 173.364 46.7576 172.991C47.0379 172.617 47.1795 172.158 47.158 171.691L55.7777 163.842L59.1912 181.162C59.1912 181.162 56.7595 182.655 57.5704 184.404C58.3808 186.153 72.7612 184.532 72.8469 183.465C72.932 182.399 72.4197 181.801 71.5665 181.674C71.5665 181.674 72.1645 155.396 75.4072 145.669C75.4072 145.669 79.6745 143.565 81.2107 136.341C82.056 132.549 82.7014 128.715 83.1443 124.855C83.1443 124.855 77.1512 110.609 54.431 125.836Z" fill="#CC2525"/>
<path d="M47.1584 171.691C47.1584 171.691 42.7631 169.331 40.9845 166.203C39.5046 163.598 38.3679 161.197 38.3679 161.197C38.3679 161.197 40.3302 158.681 41.312 162.435C42.2937 166.189 43.4456 168.279 47.1584 171.691ZM83.1442 124.855C82.7012 128.715 82.0558 132.549 81.2106 136.341C79.6744 143.566 75.4071 145.669 75.4071 145.669L79.2178 123.789C79.2178 123.789 79.9003 121.673 83.1442 124.855Z" fill="#050505" fill-opacity="0.27"/>
<path d="M73.1516 141.959C72.9813 141.959 72.8111 141.948 72.6422 141.927C71.2555 141.671 70.0203 140.892 69.1924 139.751L69.6738 139.416C70.4129 140.417 71.5 141.105 72.7213 141.346C73.3504 141.392 73.9821 141.302 74.5738 141.083C75.1654 140.865 75.7033 140.522 76.151 140.077L76.5338 140.522C75.6184 141.396 74.4162 141.907 73.1516 141.959Z" fill="#303443"/>
<path d="M127.832 200.123L122.085 178.566C122.072 178.515 122.052 178.466 122.037 178.416L114.775 149.166C114.684 148.8 114.452 148.486 114.128 148.291C113.805 148.096 113.418 148.038 113.052 148.129L108.742 149.198C108.561 149.243 108.39 149.323 108.24 149.434C108.089 149.545 107.962 149.685 107.866 149.845C107.77 150.005 107.706 150.182 107.678 150.367C107.65 150.551 107.659 150.74 107.704 150.921L114.874 179.799C114.89 180.022 114.927 180.242 114.984 180.458L115.762 183.377L116.36 185.787C116.39 185.906 116.436 186.021 116.496 186.129L120.73 202.016C120.983 202.955 121.598 203.757 122.441 204.243C123.284 204.73 124.285 204.863 125.226 204.612C126.166 204.361 126.969 203.748 127.457 202.906C127.946 202.065 128.081 201.064 127.832 200.123Z" fill="#4C4C4B"/>
<path d="M26.2296 201.738H16.4192C16.042 201.738 15.6802 201.588 15.4134 201.321C15.1467 201.055 14.9968 200.693 14.9968 200.316C14.9968 199.939 15.1467 199.577 15.4134 199.31C15.6802 199.044 16.042 198.894 16.4192 198.894H26.2296C26.6068 198.894 26.9686 199.044 27.2354 199.31C27.5021 199.577 27.652 199.939 27.652 200.316C27.652 200.693 27.5021 201.055 27.2354 201.321C26.9686 201.588 26.6068 201.738 26.2296 201.738Z" fill="white" fill-opacity="0.48"/>
<path d="M53.9857 134.436C53.9857 134.436 49.7754 137.249 43.7371 149.139C43.7429 149.151 49.7448 161.622 50.1439 168.973L55.7778 163.842C55.7778 163.842 52.3509 143.816 53.9857 134.436ZM58.8435 179.394C58.8435 179.394 62.1878 179.797 63.7299 180.451C65.2726 181.105 71.5668 181.674 71.5668 181.674C68.8569 182.762 67.4702 182.804 64.7815 181.567C63.0098 180.837 61.0501 180.695 59.1915 181.162L58.8435 179.394Z" fill="#050505" fill-opacity="0.27"/>
<path d="M58.8436 126.151C58.8436 126.151 63.9078 159.918 57.3249 171.692L55.7775 163.843C55.7775 163.843 52.3511 143.816 53.986 134.436L54.4308 125.836C54.4308 125.836 56.2757 123.611 58.8436 126.151Z" fill="white" fill-opacity="0.48"/>
<path d="M54.4313 125.836C54.4313 125.836 54.3556 126.908 54.2664 128.305C59.2284 129.334 68.8909 127.898 75.5782 126.501C78.0192 125.981 80.5622 126.242 82.8465 127.248C83.0665 125.691 83.1446 124.855 83.1446 124.855C83.1446 124.855 77.1514 110.609 54.4313 125.836Z" fill="#050505" fill-opacity="0.27"/>
<path d="M95.4856 72.5812C98.4707 70.9192 101.819 70.0157 105.235 69.9502C110.527 69.993 110.356 79.7187 108.82 78.6951C108.82 78.6951 107.454 80.0179 106.473 80.8709C105.491 81.7238 104.595 82.2359 103.528 81.1694C103.528 81.1694 106.899 80.0214 104.894 75.8599C104.894 75.8599 100.456 71.9553 98.706 78.4821L97.324 78.5619C97.324 78.5619 93.7151 75.9373 95.4856 72.5812Z" fill="#FFC1A9"/>
<path d="M93.4435 39.4776C93.4435 39.4776 94.9798 43.8574 93.8989 46.5875C92.818 49.3177 91.3956 46.9289 91.3956 52.5031V71.1878C91.3956 71.1878 94.8666 69.737 95.8049 73.4908C96.7438 77.2447 98.7067 79.4633 95.8049 80.4019C95.8049 80.4019 95.8905 92.6876 87.9533 95.6736C87.9533 95.6736 88.4269 115.922 86.7251 122.293C85.0228 128.663 83.2025 122.406 75.5786 123.999C67.9536 125.592 56.4615 127.236 52.4782 125.22C48.4955 123.203 38.4534 121.269 38.4534 121.269C38.4534 121.269 43.0622 102.073 42.2941 97.9773C42.2941 97.9773 36.9458 93.9671 38.4534 88.2791C38.4534 88.2791 32.678 84.0707 36.7751 70.8745C38.8101 67.364 41.4265 64.2244 44.5128 61.5894C49.5911 57.2806 50.0318 55.5172 51.7388 51.8202C53.4458 48.1233 54.8108 40.2173 59.3057 37.032L60.8989 29.126C63.0612 28.0756 65.4112 27.4664 67.8116 27.3338C71.9087 27.0781 77.3702 27.7603 79.4187 30.3204C81.4673 32.8798 88.2661 38.4539 90.8551 38.9655L93.4435 39.4776Z" fill="#CC2525"/>
<path d="M91.3952 71.1873C82.0361 67.9878 71.7375 71.1444 71.7375 71.1444C75.0237 69.2678 74.2127 68.0729 73.4868 66.6227C73.2659 66.2705 73.1913 65.8458 73.279 65.4394C73.3667 65.0329 73.6097 64.6768 73.9563 64.4469L74.0983 63.8216L76.6304 60.3311L80.3572 49.5167C80.3572 49.5167 82.6898 47.7245 81.5667 67.8171C81.5667 67.8171 90.5132 69.7541 91.3952 71.1873Z" fill="#050505" fill-opacity="0.27"/>
<path d="M44.5125 61.5889C49.5902 57.2801 50.0309 55.5167 51.7379 51.8198C53.4455 48.1229 54.8105 40.2169 59.3055 37.0315L60.8987 29.1256C53.9154 28.5791 47.174 26.3229 41.2692 22.5559C41.2692 22.5559 38.5382 28.6991 34.1852 36.5482C29.8328 44.3972 8.04213 65.1011 36.7742 70.8741C38.8096 67.3637 41.4262 64.224 44.5125 61.5889Z" fill="#CC2525"/>
<path d="M108.926 78.7484L108.714 78.6425C109.242 77.5849 108.415 74.3207 108.407 74.288L108.636 74.229C108.671 74.3668 109.493 77.6124 108.926 78.7484ZM107.584 80.0194L107.375 79.9059C108.09 78.594 106.845 75.4859 106.833 75.4547L107.053 75.3659C107.106 75.4976 108.352 78.6095 107.584 80.0194Z" fill="#C58877"/>
<path d="M105.689 78.0125C105.689 78.7089 105.483 79.3897 105.096 79.9687C104.709 80.5478 104.158 80.9991 103.515 81.2655C102.871 81.532 102.163 81.6017 101.48 81.4657C100.796 81.3298 100.169 80.9944 99.6762 80.5019C99.1837 80.0094 98.8483 79.3819 98.7124 78.6989C98.5765 78.0158 98.6464 77.3078 98.913 76.6644C99.1797 76.021 99.6312 75.4711 100.21 75.0842C100.79 74.6974 101.471 74.4909 102.167 74.491C103.102 74.4912 103.997 74.8623 104.658 75.5226C105.318 76.183 105.689 77.0786 105.689 78.0125Z" fill="#1E1E1C"/>
<path d="M104.658 78.0122C104.658 78.5047 104.512 78.9861 104.238 79.3955C103.964 79.8049 103.575 80.124 103.12 80.3124C102.665 80.5008 102.164 80.5501 101.681 80.454C101.198 80.3578 100.754 80.1206 100.406 79.7724C100.058 79.4241 99.8204 78.9804 99.7243 78.4974C99.6283 78.0144 99.6776 77.5137 99.8662 77.0588C100.055 76.6038 100.374 76.215 100.784 75.9414C101.193 75.6679 101.675 75.5219 102.168 75.522C102.828 75.5221 103.462 75.7845 103.929 76.2515C104.396 76.7185 104.658 77.3518 104.658 78.0122Z" fill="#4C4C4B"/>
<path d="M103.789 78.0124C103.789 78.3331 103.694 78.6465 103.516 78.9131C103.337 79.1796 103.084 79.3874 102.788 79.51C102.491 79.6326 102.165 79.6647 101.851 79.602C101.536 79.5394 101.247 79.3849 101.02 79.1581C100.794 78.9314 100.639 78.6424 100.577 78.3279C100.514 78.0134 100.546 77.6874 100.669 77.3912C100.792 77.0949 101 76.8417 101.266 76.6636C101.533 76.4855 101.847 76.3904 102.167 76.3904C102.38 76.3903 102.591 76.4323 102.788 76.5138C102.985 76.5953 103.164 76.7148 103.315 76.8654C103.465 77.016 103.585 77.1949 103.666 77.3917C103.748 77.5885 103.789 77.7994 103.789 78.0124Z" fill="#1E1E1C"/>
<path d="M83.8901 23.8404L83.886 23.8386C87.8875 21.0005 87.0137 16.3281 87.0137 16.3281C78.3518 13.7686 74.9799 21.3613 74.7241 23.2309C74.6293 24.7799 74.668 26.3341 74.8397 27.8764C76.6788 28.3246 78.2855 29.0503 79.2578 30.1343H79.2584C79.2584 30.1343 88.9343 37.828 92.7316 36.6336C96.53 35.4392 96.2883 30.6635 96.6292 29.1564C96.9707 27.6488 97.3287 25.2002 97.3287 25.2002C92.8034 25.6092 88.2416 25.1476 83.8901 23.8404Z" fill="white"/>
<path d="M74.6784 25.3717C74.6784 25.3717 86.451 16.337 92.3867 12.9193C92.3867 12.9193 94.5244 6.94278 89.3182 3.985C84.1126 1.02723 79.3858 0.169579 73.3018 0.0035632C64.8816 -0.225808 57.2577 10.6966 57.1433 10.242C57.1433 10.242 69.2762 6.66648 70.5713 14.3372C72.0636 23.1783 74.6784 25.3717 74.6784 25.3717Z" fill="#CC2525"/>
<path d="M59.3056 37.032L60.6002 34.1599C60.6002 34.1599 65.9765 29.8083 72.1216 31.8134C78.2667 33.8179 80.6533 42.2588 79.7596 48.1515C78.7643 54.7212 76.0333 61.035 74.0986 63.8215C74.0986 63.8215 79.8452 60.6367 81.9507 46.1324C81.9507 46.1324 83.3051 36.0646 74.6191 31.1012C72.318 29.7617 69.6364 29.2257 66.997 29.5777C65.0425 29.8442 63.1725 30.545 61.5244 31.6286L61.2973 30.0928L60.5837 30.6894L59.3056 37.032ZM51.3373 27.4503C51.3795 27.3406 51.4071 27.2837 51.4071 27.2837C51.4071 27.2837 50.9341 27.289 51.3373 27.4503Z" fill="#050505" fill-opacity="0.27"/>
<path d="M59.3055 37.0316L60.8024 29.6037C59.6145 29.1772 58.3894 28.8622 57.1431 28.6628C57.0949 28.6545 57.0486 28.6463 57.0011 28.6381C56.8661 28.6147 56.7301 28.5906 56.5932 28.566C53.0377 27.933 51.7426 27.6121 51.3371 27.4502C51.0866 28.1055 50.2956 30.7236 51.407 35.4958C52.7056 41.0699 52.0231 47.6677 49.1777 52.332C46.3334 56.9957 43.4885 62.3422 39.9606 62.5698C36.4327 62.7974 30.0329 60.6064 24.3567 65.1146C26.4974 67.5685 30.3868 69.5906 36.7742 70.8741C38.8096 67.3637 41.4262 64.2241 44.5125 61.589C49.5902 57.2802 50.0309 55.5168 51.7379 51.8199C53.4456 48.123 54.8105 40.217 59.3055 37.0316Z" fill="#050505" fill-opacity="0.27"/>
<path d="M26.6045 55.3541C26.2884 55.0581 26.0685 54.6741 25.9731 54.2518C25.8777 53.8295 25.9112 53.3883 26.0693 52.9853C26.6004 51.5797 27.9125 48.8349 30.9709 45.1655C35.5228 39.7052 35.8638 42.4354 36.0914 44.1418C36.3197 45.8478 34.1573 46.2203 32.7918 49.1622C31.5971 51.7369 28.7463 57.2847 26.6045 55.3541ZM64.1988 40.6153C63.3884 39.6527 62.3967 38.4747 62.6056 37.1454C62.7781 36.0461 63.6918 35.3627 64.369 34.8705C65.3642 34.1653 66.4952 33.6747 67.6901 33.4299C68.8851 33.1851 70.118 33.1914 71.3104 33.4485C75.8165 34.4481 77.6656 38.737 77.8539 39.1934C79.5915 43.4141 77.6726 47.1445 77.2847 47.896C76.4784 49.4576 74.63 52.0352 73.2451 51.6498C73.1101 51.6123 72.7575 51.4973 72.0504 50.114C70.7124 47.4953 71.0006 46.5186 70.0024 45.1652C69.4173 44.3727 69.0382 44.4607 66.3172 42.4855C65.51 41.9868 64.7937 41.3544 64.1988 40.6153ZM42.6277 81.5701C42.083 81.2238 41.6197 80.7637 41.2696 80.2214C40.9196 79.6792 40.691 79.0676 40.5997 78.4287C40.5299 77.6004 40.7628 76.8566 41.5451 75.4944C42.8448 73.2306 44.1922 70.8829 47.0646 69.2961C47.8087 68.8849 50.5526 67.3696 51.6875 68.371C52.3095 68.9189 52.1986 70.0012 52.147 70.5016C51.9645 72.2797 50.8683 72.6733 49.6853 74.9436C48.8397 76.5685 49.2522 76.6518 48.1854 78.8617C47.28 80.7365 46.7906 81.7127 45.7167 82.0981C44.3154 82.6014 42.91 81.7426 42.6277 81.5701ZM81.868 5.32371C82.0392 4.94864 82.2896 4.61506 82.602 4.34591C82.9143 4.07675 83.2813 3.87839 83.6777 3.76446C84.3443 3.66431 85.0255 3.78373 85.6183 4.1047C87.1651 4.7277 88.77 5.37357 90.0258 7.05133C90.3515 7.48602 91.5521 9.0881 91.0187 9.89413C90.7265 10.3353 90.0311 10.3605 89.7095 10.3716C88.5688 10.4127 88.2231 9.75393 86.6822 9.20543C85.5795 8.81298 85.5631 9.08165 84.0708 8.60061C82.8045 8.19291 82.1432 7.96941 81.8052 7.32411C81.6724 7.00548 81.6093 6.66214 81.6201 6.31712C81.6309 5.97211 81.7154 5.6334 81.868 5.32371ZM40.8129 90.3558C40.3575 90.6298 40.6556 92.0523 41.1544 93.0291C41.3322 93.3769 42.2388 95.1533 43.3731 94.9632C43.6888 94.8864 43.973 94.714 44.1869 94.4695C44.4008 94.2251 44.5338 93.9205 44.5679 93.5975C44.6248 92.8144 43.8802 92.2512 42.5768 91.2657C41.679 90.5863 41.1251 90.1681 40.8129 90.3558ZM91.6225 72.0406C92.0785 73.2855 92.0479 74.6566 91.5369 75.8801C91.0539 76.8744 90.0429 77.867 85.9047 78.9516C84.2839 79.3758 80.6439 80.2182 73.9566 80.1454C68.6524 80.0885 67.1319 79.5177 66.2758 78.3544C65.7296 77.5871 65.4864 76.6451 65.5927 75.7093C65.8574 73.8538 69.1383 71.576 71.7372 71.1448C71.7372 71.1448 82.0358 67.9881 91.3949 71.1876L91.6225 72.0406Z" fill="white" fill-opacity="0.48"/>
<path d="M70.5717 14.3375C72.0639 23.1785 74.6787 25.372 74.6787 25.372C74.6787 25.372 78.7765 22.227 83.3554 18.9466C81.2432 17.8671 79.4462 16.2597 78.1392 14.2806C75.5783 10.2704 72.5058 7.71094 66.873 7.04453C62.2806 6.50132 58.7104 8.96867 57.5479 9.89906C57.4486 10.0124 57.3417 10.119 57.2281 10.2182C58.2973 9.92135 69.3393 7.03925 70.5717 14.3375ZM57.1564 10.2548C57.1693 10.2578 57.1939 10.2443 57.228 10.2185C57.1728 10.2331 57.144 10.2425 57.144 10.2425L57.1564 10.2548Z" fill="#050505" fill-opacity="0.27"/>
<path d="M58.2813 10.8105C58.2813 11.238 58.1546 11.6559 57.917 12.0114C57.6795 12.3669 57.3419 12.644 56.9468 12.8076C56.5518 12.9713 56.117 13.0141 55.6976 12.9308C55.2782 12.8475 54.8929 12.6417 54.5905 12.3394C54.2881 12.0372 54.0821 11.6521 53.9986 11.2328C53.9152 10.8135 53.9579 10.3789 54.1215 9.98397C54.2851 9.589 54.5622 9.25139 54.9177 9.01384C55.2732 8.77629 55.6912 8.64947 56.1189 8.64941C56.6923 8.64935 57.2422 8.87701 57.6478 9.28229C58.0533 9.68758 58.2812 10.2373 58.2813 10.8105Z" fill="white"/>
<path d="M96.2458 31.878C91.985 34.245 81.893 30.4337 80.5275 28.5565C79.1625 26.6799 83.8864 23.8383 83.8864 23.8383C85.1676 22.9138 86.136 21.6203 86.662 20.1308C86.8311 19.6248 86.9508 19.1035 87.0194 18.5745L75.9186 23.8359L74.7456 26.6547C74.7738 27.0741 74.806 27.4883 74.8395 27.876C76.6786 28.3242 78.2858 29.0505 79.2582 30.134H79.2588C79.2588 30.134 89.6817 38.4611 93.1586 36.5218C96.673 34.5618 95.8403 33.5863 96.2458 31.878Z" fill="#BFCBD7"/>
<path d="M74.6798 27.0302C74.3312 27.0304 73.9914 26.9208 73.7086 26.7171C73.4258 26.5133 73.2143 26.2257 73.1042 25.8951C72.9941 25.5644 72.991 25.2075 73.0952 24.875C73.1995 24.5424 73.4058 24.2511 73.685 24.0424C78.5577 20.4006 90.0876 11.8713 91.914 11.3285C92.3359 11.2032 92.7903 11.2505 93.1773 11.4601C93.5643 11.6697 93.8521 12.0244 93.9775 12.4462C94.1029 12.868 94.0556 13.3223 93.8459 13.7091C93.6362 14.096 93.2814 14.3838 92.8595 14.5091C91.6796 14.9886 83.1794 21.0889 75.6723 26.7C75.3859 26.9145 75.0377 27.0304 74.6798 27.0302Z" fill="white"/>
<path d="M69.3022 72.1977L71.5922 70.8898C74.4844 69.2379 73.9985 68.2801 73.3257 66.9541L73.2243 66.7539C72.9687 66.3361 72.8863 65.8351 72.9944 65.3575C73.1026 64.8799 73.3929 64.4633 73.8036 64.1963L74.1085 64.6976C73.9667 64.7915 73.8449 64.9124 73.75 65.0536C73.6552 65.1947 73.5892 65.3532 73.5558 65.5199C73.5224 65.6866 73.5223 65.8582 73.5555 66.025C73.5887 66.1917 73.6545 66.3503 73.7492 66.4915L73.8489 66.6889C74.4242 67.8229 75.0162 68.989 73.2753 70.4541C76.5698 69.7185 84.3393 68.4651 91.4905 70.9096L91.3002 71.4647C82.1376 68.3325 71.9257 71.3939 71.8237 71.4249L69.3022 72.1977Z" fill="#303443"/>
<path d="M60.9008 30.7846C60.8572 30.7846 60.8137 30.7828 60.7695 30.7794C53.5148 30.2114 46.5113 27.8676 40.3767 23.9547C40.1929 23.8375 40.0341 23.6853 39.9092 23.5068C39.7843 23.3282 39.6958 23.1268 39.6487 22.9141C39.6017 22.7014 39.597 22.4815 39.635 22.2669C39.673 22.0524 39.7529 21.8474 39.8701 21.6638C39.9873 21.4801 40.1395 21.3213 40.3181 21.1964C40.4967 21.0716 40.6982 20.9831 40.911 20.9361C41.1238 20.8891 41.3438 20.8844 41.5584 20.9224C41.773 20.9603 41.978 21.0402 42.1617 21.1573C47.8372 24.7777 54.3166 26.9462 61.0285 27.4716C61.4561 27.5049 61.8542 27.7024 62.1393 28.0226C62.4245 28.3429 62.5745 28.7611 62.5579 29.1895C62.5414 29.6179 62.3596 30.0233 62.0507 30.3207C61.7417 30.618 61.3296 30.7843 60.9008 30.7846Z" fill="white"/>
<path d="M33.93 169.615C33.93 169.615 32.9629 175.701 36.0918 175.474C39.2213 175.247 41.1554 173.483 41.1554 174.849C41.1554 176.214 41.3261 182.982 45.0242 186.508C48.7229 190.035 51.2832 193.391 49.6331 195.04C47.9829 196.689 43.2039 195.893 38.5388 192.424C33.8724 188.955 33.7592 187.54 33.119 186.196C32.4788 184.852 30.1462 183.38 28.695 183.039C27.2444 182.698 23.5751 180.48 23.034 177.607C22.4936 174.735 29.4062 170.384 33.93 169.615ZM62.3795 186.901C62.3795 186.901 65.4009 192.272 67.713 190.151C70.0244 188.031 70.4458 185.448 71.2937 186.518C72.1417 187.588 76.4788 192.788 81.5682 193.257C86.6576 193.726 90.7495 194.767 90.4801 197.085C90.2114 199.402 85.9699 201.744 80.1581 201.92C74.3457 202.096 73.3775 201.058 72.0413 200.401C70.7051 199.746 67.9624 200.039 66.6133 200.673C65.2636 201.306 61.0092 201.844 58.8017 199.929C56.5941 198.012 59.311 190.31 62.3795 186.901Z" fill="#4C4C4B"/>
<path d="M50.1353 193.59C48.2933 192.522 44.2431 194.019 40.2452 191.144C38.8268 190.123 36.7378 188.62 35.722 186.025C35.2825 184.901 35.0959 183.704 33.9305 182.612C33.1205 181.985 32.2307 181.469 31.2845 181.077C28.5594 179.725 28.334 179.897 27.871 179.37C26.3817 177.675 27.4574 174.463 27.7003 173.739C27.9651 172.945 28.3312 172.188 28.7894 171.487C25.5185 173.215 22.6807 175.727 23.034 177.607C23.575 180.479 27.2449 182.698 28.6955 183.039C30.1467 183.38 32.4793 184.852 33.1195 186.196C33.7597 187.54 33.873 188.954 38.5387 192.424C43.2039 195.893 47.9834 196.689 49.6336 195.04C49.8211 194.852 49.9636 194.624 50.0505 194.373C50.1374 194.121 50.1664 193.854 50.1353 193.59ZM90.3646 197.57C88.8554 198.292 87.2749 198.854 85.649 199.249C84.2635 199.556 77.4061 201.077 73.1317 198.054C72.3636 197.511 71.1677 196.484 69.5469 196.519C68.6531 196.591 67.7729 196.783 66.9297 197.088C65.5272 197.529 65.536 197.738 65.1094 197.714C63.5309 197.623 62.1977 194.697 61.6959 192.367C61.2458 190.279 61.5193 188.936 61.3427 188.234C58.7519 192.007 56.8483 198.232 58.8024 199.929C61.0099 201.844 65.2643 201.305 66.6134 200.672C67.9625 200.04 70.7053 199.745 72.0414 200.401C73.3782 201.057 74.3458 202.096 80.1582 201.92C85.5639 201.756 89.6088 199.719 90.3646 197.57Z" fill="#1E1E1C"/>
<path d="M88.2661 201.94C84.9089 202.776 75.6437 201.865 74.2454 203.174C74.2454 203.174 93.5579 203.458 95.265 202.719C96.9714 201.979 97.8247 200.899 98.2231 197.6C98.621 194.301 114.265 177.402 114.265 177.402L114.263 177.394L113.383 173.809L94.525 196.728H90.8838C90.8838 196.728 91.6232 201.103 88.2661 201.94Z" fill="#4C4C4B"/>
<path d="M124.279 204.744C124.776 204.744 125.269 204.643 125.726 204.447C126.183 204.251 126.596 203.965 126.94 203.605C127.283 203.245 127.55 202.819 127.723 202.353C127.897 201.887 127.975 201.391 127.951 200.894C127.935 200.973 127.599 202.45 124.534 202.27C121.382 202.086 111.65 156.192 110.74 153.462C110.193 151.98 110.029 150.384 110.262 148.821L108.742 149.198C108.561 149.243 108.39 149.324 108.24 149.435C108.089 149.546 107.962 149.685 107.866 149.845C107.77 150.005 107.706 150.183 107.678 150.367C107.65 150.552 107.659 150.74 107.704 150.921L114.874 179.799C114.891 180.022 114.927 180.243 114.984 180.459L115.762 183.378L116.36 185.787C116.391 185.906 116.436 186.021 116.495 186.129L120.73 202.016C120.939 202.798 121.4 203.489 122.042 203.982C122.683 204.475 123.47 204.743 124.279 204.744Z" fill="#1E1E1C"/>
<path d="M124.224 202.311C123.963 202.311 123.71 202.225 123.503 202.067C123.297 201.909 123.148 201.687 123.08 201.435L120.405 191.538C120.323 191.235 120.365 190.911 120.522 190.639C120.679 190.366 120.937 190.167 121.241 190.085C121.544 190.003 121.868 190.045 122.141 190.202C122.413 190.359 122.612 190.617 122.694 190.921L125.368 200.817C125.45 201.121 125.408 201.444 125.252 201.717C125.095 201.989 124.836 202.188 124.533 202.27C124.432 202.298 124.328 202.311 124.224 202.311Z" fill="white" fill-opacity="0.48"/>
<path d="M80.0131 19.6402L79.6785 19.1578C80.0991 18.8668 89.9832 12.0209 91.0061 11.4246L91.3018 11.9316C90.2984 12.5162 80.1157 19.5689 80.0131 19.6402Z" fill="#303443"/>
<path d="M91.3955 71.1875C91.3955 71.1875 94.8665 69.7368 95.8054 73.4912C96.7437 77.2451 98.7066 79.4631 95.8054 80.4017C95.5516 78.6001 94.6017 76.9697 93.1595 75.86L91.3955 71.1875Z" fill="white"/>
<path d="M71.8061 103.028C68.9145 103.028 65.7411 102.855 62.2859 102.511C55.3457 101.787 48.46 100.613 41.6724 98.9949C41.177 98.8707 40.7512 98.555 40.4885 98.1172C40.2258 97.6793 40.1478 97.1551 40.2715 96.6598C40.3952 96.1644 40.7106 95.7384 41.1483 95.4754C41.586 95.2123 42.1103 95.1337 42.6059 95.2569C52.9668 97.8406 81.3521 102.807 88.187 94.8579C88.352 94.666 88.5531 94.5086 88.779 94.3944C89.0048 94.2803 89.2509 94.2118 89.5032 94.1927C89.7556 94.1737 90.0092 94.2045 90.2496 94.2834C90.4901 94.3624 90.7126 94.4879 90.9045 94.6528C91.0964 94.8177 91.2539 95.0188 91.368 95.2445C91.4822 95.4703 91.5508 95.7164 91.5698 95.9686C91.5889 96.2209 91.558 96.4744 91.4791 96.7148C91.4001 96.9551 91.2746 97.1775 91.1096 97.3694C87.873 101.134 81.3968 103.028 71.8061 103.028Z" fill="black"/>
<path d="M92.2834 96.1132C92.2834 98.0297 91.5364 99.5831 90.6133 99.5831C89.6914 99.5831 88.9438 98.0297 88.9438 96.1132C88.9438 94.1967 89.6914 92.6433 90.6133 92.6433C91.5364 92.6433 92.2834 94.1967 92.2834 96.1132Z" fill="#090909"/>
<path d="M97.4799 26.8796C97.4793 26.8796 95.4912 27.2316 94.2965 27.2838C94.2965 27.2838 94.1668 29.8069 96.5076 29.9647C96.5445 29.6444 96.5815 29.3675 96.629 29.1563C96.8486 28.375 97.1332 27.6135 97.4799 26.8796Z" fill="#FFC1A9"/>
<path d="M85.4958 81.534C62.7022 91.526 43.8867 88.5307 40.3019 83.3549C35.8321 76.9008 41.78 70.4825 47.2345 64.4473C52.6889 58.4121 52.7505 49.1621 52.7505 49.1621L52.7499 49.1627C52.4078 50.1682 52.0798 51.0804 51.7383 51.8201C50.0306 55.517 49.5899 57.2805 44.5122 61.5892C41.4258 64.224 38.8093 67.3637 36.7745 70.8744C33.4104 81.7094 36.7006 86.4828 37.9863 87.8449L38.4528 88.2796C38.4528 88.2796 68.8896 101.755 95.8043 80.4018L94.6037 77.3519C93.1701 78.0259 85.4958 81.534 85.4958 81.534Z" fill="#050505" fill-opacity="0.27"/>
<path d="M88.7088 29.3783C89.0397 29.2744 91.9738 28.3253 94.6338 29.9332C95.3173 30.3257 95.9101 30.8582 96.3731 31.496C96.9335 32.2844 96.967 32.8042 97.4352 36.0095C97.7034 37.845 97.6676 39.7269 98.0608 41.5396C98.1741 42.0635 98.3131 42.6231 98.0608 42.812C97.6565 43.1136 96.5427 42.2459 95.0909 41.0627C89.8824 36.8161 90.0373 36.4143 88.0386 35.1788C85.9648 33.897 84.9232 33.7885 84.8041 32.8992C84.6193 31.5218 86.8744 29.952 88.7088 29.3783Z" fill="white"/>
<path d="M97.9343 40.5061C97.4566 40.6047 96.418 39.7975 95.0906 38.7158C89.8821 34.4692 90.037 34.0673 88.0389 32.8319C86.8125 32.074 85.9557 31.7267 85.4282 31.3853C85.2227 31.5789 85.0608 31.8139 84.9531 32.0749C84.8455 32.3358 84.7946 32.6166 84.8038 32.8988C84.9229 33.7881 85.9651 33.8966 88.0389 35.1784C90.037 36.4138 89.8821 36.8157 95.0906 41.0623C96.5424 42.2455 97.6562 43.1131 98.0605 42.8116C98.314 42.6221 98.1702 42.0595 98.0605 41.5392C97.9984 41.1976 97.9562 40.8526 97.9343 40.5061Z" fill="#BFCBD7"/>
<path d="M61.2723 92.8389C53.4231 92.8708 45.639 91.4144 38.3325 88.5469L38.5732 88.0118C38.8761 88.1479 69.078 101.348 95.5114 80.4807V80.4008C95.2518 78.695 94.347 77.1539 92.9837 76.0956L93.3333 75.6247C94.8471 76.78 95.841 78.4881 96.0971 80.3748L96.0977 80.6237L96.0971 80.7649L95.9865 80.8525C86.1389 88.721 73.8785 92.9543 61.2723 92.8389ZM37.0331 71.0128L36.5156 70.7361C38.5741 67.1972 41.2132 64.0296 44.3227 61.3658C48.8341 57.5375 49.6433 55.7436 50.9834 52.7712C51.1372 52.43 51.298 52.0737 51.4716 51.6973C51.9897 50.4806 52.4464 49.2387 52.84 47.9762C54.1495 44.0534 55.7792 39.171 59.1359 36.7927L59.4752 37.2711C56.2749 39.5388 54.679 44.3201 53.3968 48.1618C52.9967 49.4449 52.532 50.7069 52.0045 51.9431C51.8314 52.3177 51.6713 52.6726 51.5183 53.0123C50.1441 56.0598 49.3149 57.899 44.7026 61.8132C41.6487 64.4286 39.0561 67.5384 37.0331 71.0128Z" fill="#303443"/>
</svg>
