<svg width="1" height="478" viewBox="0 0 1 478" fill="none" xmlns="http://www.w3.org/2000/svg">
<path opacity="0.35" fill-rule="evenodd" clip-rule="evenodd" d="M-1.74117e-07 3.98333L0 -4.37114e-08L1 0L1 3.98333L-1.74117e-07 3.98333ZM-8.70585e-07 19.9167L-5.22351e-07 11.95L0.999999 11.95L0.999999 19.9167L-8.70585e-07 19.9167ZM-1.56705e-06 35.85L-1.21882e-06 27.8833L0.999999 27.8833L0.999998 35.85L-1.56705e-06 35.85ZM-2.26352e-06 51.7833L-1.91529e-06 43.8167L0.999998 43.8167L0.999998 51.7833L-2.26352e-06 51.7833ZM-2.95999e-06 67.7167L-2.61176e-06 59.75L0.999997 59.75L0.999997 67.7167L-2.95999e-06 67.7167ZM-3.65646e-06 83.65L-3.30822e-06 75.6833L0.999997 75.6833L0.999996 83.65L-3.65646e-06 83.65ZM-4.35293e-06 99.5833L-4.00469e-06 91.6167L0.999996 91.6167L0.999996 99.5833L-4.35293e-06 99.5833ZM-5.04939e-06 115.517L-4.70116e-06 107.55L0.999995 107.55L0.999995 115.517L-5.04939e-06 115.517ZM-5.74586e-06 131.45L-5.39763e-06 123.483L0.999995 123.483L0.999994 131.45L-5.74586e-06 131.45ZM-6.44233e-06 147.383L-6.0941e-06 139.417L0.999994 139.417L0.999994 147.383L-6.44233e-06 147.383ZM-7.1388e-06 163.317L-6.79056e-06 155.35L0.999993 155.35L0.999993 163.317L-7.1388e-06 163.317ZM-7.83526e-06 179.25L-7.48703e-06 171.283L0.999993 171.283L0.999992 179.25L-7.83526e-06 179.25ZM-8.53173e-06 195.183L-8.1835e-06 187.217L0.999992 187.217L0.999991 195.183L-8.53173e-06 195.183ZM-9.2282e-06 211.117L-8.87997e-06 203.15L0.999991 203.15L0.999991 211.117L-9.2282e-06 211.117ZM-9.92467e-06 227.05L-9.57643e-06 219.083L0.99999 219.083L0.99999 227.05L-9.92467e-06 227.05ZM-1.06211e-05 242.983L-1.02729e-05 235.017L0.99999 235.017L0.999989 242.983L-1.06211e-05 242.983ZM-1.13176e-05 258.917L-1.09694e-05 250.95L0.999989 250.95L0.999989 258.917L-1.13176e-05 258.917ZM-1.20141e-05 274.85L-1.16658e-05 266.883L0.999988 266.883L0.999988 274.85L-1.20141e-05 274.85ZM-1.27105e-05 290.783L-1.23623e-05 282.817L0.999988 282.817L0.999987 290.783L-1.27105e-05 290.783ZM-1.3407e-05 306.717L-1.30588e-05 298.75L0.999987 298.75L0.999987 306.717L-1.3407e-05 306.717ZM-1.41035e-05 322.65L-1.37552e-05 314.683L0.999986 314.683L0.999986 322.65L-1.41035e-05 322.65ZM-1.47999e-05 338.583L-1.44517e-05 330.617L0.999986 330.617L0.999985 338.583L-1.47999e-05 338.583ZM-1.54964e-05 354.517L-1.51482e-05 346.55L0.999985 346.55L0.999985 354.517L-1.54964e-05 354.517ZM-1.61929e-05 370.45L-1.58446e-05 362.483L0.999984 362.483L0.999984 370.45L-1.61929e-05 370.45ZM-1.68894e-05 386.383L-1.65411e-05 378.417L0.999983 378.417L0.999983 386.383L-1.68894e-05 386.383ZM-1.75858e-05 402.317L-1.72376e-05 394.35L0.999983 394.35L0.999982 402.317L-1.75858e-05 402.317ZM-1.82823e-05 418.25L-1.79341e-05 410.283L0.999982 410.283L0.999982 418.25L-1.82823e-05 418.25ZM-1.89788e-05 434.183L-1.86305e-05 426.217L0.999981 426.217L0.999981 434.183L-1.89788e-05 434.183ZM-1.96752e-05 450.117L-1.9327e-05 442.15L0.999981 442.15L0.99998 450.117L-1.96752e-05 450.117ZM-2.03717e-05 466.05L-2.00235e-05 458.083L0.99998 458.083L0.99998 466.05L-2.03717e-05 466.05ZM-2.0894e-05 478L-2.07199e-05 474.017L0.999979 474.017L0.999979 478L-2.0894e-05 478Z" fill="white"/>
</svg>
