<svg width="169" height="12" viewBox="0 0 169 12" fill="none" xmlns="http://www.w3.org/2000/svg">
<path opacity="0.78" d="M3.59125 12H3.92725L6.05525 7.44L8.19925 12H8.53525L11.4473 5.76H10.3753L8.35925 10.16L6.31125 5.76H5.76725L3.76725 10.16L1.70325 5.76H0.663252L3.59125 12ZM18.8431 12H19.1791L21.3071 7.44L23.4511 12H23.7871L26.6991 5.76H25.6271L23.6111 10.16L21.5631 5.76H21.0191L19.0191 10.16L16.9551 5.76H15.9151L18.8431 12ZM34.095 12H34.431L36.559 7.44L38.703 12H39.039L41.951 5.76H40.879L38.863 10.16L36.815 5.76H36.271L34.271 10.16L32.207 5.76H31.167L34.095 12ZM47.0504 12C47.4024 12 47.6744 11.712 47.6744 11.36C47.6744 11.024 47.4024 10.736 47.0504 10.736C46.6984 10.736 46.4264 11.024 46.4264 11.36C46.4264 11.712 46.6984 12 47.0504 12ZM55.38 12H55.716L57.844 7.44L59.988 12H60.324L63.236 5.76H62.164L60.148 10.16L58.1 5.76H57.556L55.556 10.16L53.492 5.76H52.452L55.38 12ZM71.2116 12C72.0916 12 72.8916 11.632 73.4676 11.056L72.8116 10.4C72.4116 10.816 71.8516 11.072 71.2276 11.072C70.0916 11.072 69.1636 10.272 68.9716 9.216H74.3636C74.3796 9.088 74.3956 8.944 74.3956 8.8C74.3956 7.04 72.9716 5.6 71.2116 5.6C69.4356 5.6 68.0116 7.04 68.0116 8.8C68.0116 10.56 69.4356 12 71.2116 12ZM69.0036 8.288C69.2436 7.28 70.1556 6.528 71.2436 6.528C72.2996 6.528 73.1956 7.28 73.4356 8.288H69.0036ZM83.3825 5.6C82.4865 5.6 81.6705 5.968 81.0945 6.576V-9.53674e-07H80.1505V12H81.0945V11.024C81.6705 11.632 82.4865 12 83.3825 12C85.1585 12 86.5825 10.56 86.5825 8.8C86.5825 7.04 85.1585 5.6 83.3825 5.6ZM83.3505 11.088C82.1185 11.088 81.0945 10.064 81.0945 8.816C81.0945 7.552 82.1185 6.528 83.3505 6.528C84.6305 6.528 85.6545 7.552 85.6545 8.816C85.6545 10.064 84.6305 11.088 83.3505 11.088ZM94.1125 12C95.1685 12 96.2245 11.248 96.2245 10.144C96.2245 9.12 95.1845 8.384 94.1765 8.384C93.3925 8.384 92.8965 7.936 92.8965 7.408C92.8965 6.832 93.4725 6.432 94.1125 6.432C94.7045 6.432 95.2965 6.816 95.2965 7.408H96.2245C96.2245 6.16 94.9925 5.6 94.1765 5.6C92.9445 5.6 91.9685 6.352 91.9685 7.456C91.9685 8.384 92.9285 9.216 94.1125 9.216C94.6565 9.216 95.2965 9.584 95.2965 10.144C95.2965 10.736 94.7365 11.136 94.0805 11.136C93.3925 11.136 92.8965 10.672 92.8965 10.176H91.9685C91.9685 11.088 92.8325 12 94.1125 12ZM102.619 4.08C102.971 4.08 103.243 3.792 103.243 3.44C103.243 3.104 102.971 2.816 102.619 2.816C102.267 2.816 101.995 3.104 101.995 3.44C101.995 3.792 102.267 4.08 102.619 4.08ZM102.123 12H103.067V5.76H102.123V12ZM112.204 6.704V5.76H110.924V3.2H109.98V5.76H108.7V6.704H109.98V9.616C109.98 10.624 110.188 11.168 110.924 12L111.58 11.36C111.068 10.8 110.924 10.368 110.924 9.408V6.704H112.204ZM121.049 12C121.929 12 122.729 11.632 123.305 11.056L122.649 10.4C122.249 10.816 121.689 11.072 121.065 11.072C119.929 11.072 119.001 10.272 118.809 9.216H124.201C124.217 9.088 124.233 8.944 124.233 8.8C124.233 7.04 122.809 5.6 121.049 5.6C119.273 5.6 117.849 7.04 117.849 8.8C117.849 10.56 119.273 12 121.049 12ZM118.841 8.288C119.081 7.28 119.993 6.528 121.081 6.528C122.137 6.528 123.033 7.28 123.273 8.288H118.841ZM129.644 12C129.996 12 130.268 11.712 130.268 11.36C130.268 11.024 129.996 10.736 129.644 10.736C129.292 10.736 129.02 11.024 129.02 11.36C129.02 11.712 129.292 12 129.644 12ZM138.565 12C139.557 12 140.325 11.616 140.901 11.04L140.261 10.416C139.845 10.816 139.237 11.072 138.709 11.072C137.429 11.072 136.437 10.064 136.437 8.816C136.437 7.552 137.461 6.528 138.741 6.528C139.301 6.528 139.845 6.8 140.245 7.184L140.917 6.56C140.261 5.936 139.509 5.6 138.709 5.6C136.933 5.6 135.509 7.04 135.509 8.8C135.509 10.56 136.933 12 138.565 12ZM149.211 12C150.971 12 152.395 10.56 152.395 8.8C152.395 7.04 150.971 5.6 149.211 5.6C147.435 5.6 146.011 7.04 146.011 8.8C146.011 10.56 147.435 12 149.211 12ZM149.243 11.088C147.963 11.088 146.939 10.064 146.939 8.816C146.939 7.552 147.963 6.528 149.243 6.528C150.475 6.528 151.499 7.552 151.499 8.816C151.499 10.064 150.475 11.088 149.243 11.088ZM165.762 5.6C164.85 5.6 164.082 5.936 163.394 6.8C162.882 6.048 162.018 5.6 161.122 5.6C160.386 5.6 159.73 5.872 159.25 6.32V5.76H158.306V12H159.25V8.384C159.25 7.424 160.018 6.528 161.074 6.528C162.21 6.528 162.946 7.36 162.946 8.56V12H163.89V8.384C163.89 7.424 164.658 6.528 165.714 6.528C166.818 6.528 167.538 7.36 167.538 8.56V12H168.482V8.384C168.482 6.72 167.138 5.6 165.762 5.6Z" fill="white"/>
</svg>
