<svg width="83" height="55" viewBox="0 0 83 55" fill="none" xmlns="http://www.w3.org/2000/svg">
<circle cx="61.5" cy="13.6111" r="5.5" fill="#FFD876"/>
<path fill-rule="evenodd" clip-rule="evenodd" d="M43.8889 54.2222C58.8619 54.2222 71 42.0842 71 27.1111C71 24.0726 70.5001 21.1508 69.5781 18.4235C67.972 20.9308 65.1615 22.5926 61.9629 22.5926C56.9719 22.5926 52.9259 18.5466 52.9259 13.5556C52.9259 9.44951 55.6643 5.98305 59.4144 4.88285C55.0168 1.80552 49.6637 0 43.8889 0C36.5723 0 29.9327 2.8983 25.0554 7.60944C33.5129 11.5745 39.3703 20.165 39.3703 30.1235C39.3703 38.2677 35.4528 45.4969 29.3993 50.0295C33.5905 52.6849 38.5602 54.2222 43.8889 54.2222Z" fill="#03ADB4"/>
<circle cx="20.5" cy="40.6111" r="10.5" fill="#B659FF"/>
<path d="M4.2 30.16H5.768C7.112 30.16 8.19467 29.7773 9.016 29.012C9.94933 28.1533 10.416 26.9307 10.416 25.344V23.216C10.416 21.648 9.94933 20.4347 9.016 19.576C8.176 18.792 7.09333 18.4 5.768 18.4H1.12V38H4.2V30.16ZM4.2 21.48H5.768C6.29067 21.48 6.67333 21.592 6.916 21.816C7.196 22.096 7.336 22.5627 7.336 23.216V25.344C7.336 26.016 7.196 26.4827 6.916 26.744C6.67333 26.968 6.29067 27.08 5.768 27.08H4.2V21.48ZM17.3497 34.892H13.8217L13.2617 38H10.1257L14.0457 18.4H17.1257L21.0457 38H17.9097L17.3497 34.892ZM16.8177 31.812L15.5857 24.784L14.3537 31.812H16.8177ZM26.8168 38.224C28.1608 38.224 29.2434 37.8413 30.0648 37.076C30.9981 36.18 31.4648 34.9573 31.4648 33.408V30.888H28.3848V33.408C28.3848 34.0987 28.2541 34.5653 27.9928 34.808C27.7501 35.032 27.3581 35.144 26.8168 35.144C26.2941 35.144 25.9114 35.032 25.6688 34.808C25.3888 34.5467 25.2488 34.08 25.2488 33.408V22.992C25.2488 22.32 25.3888 21.8533 25.6688 21.592C25.9114 21.368 26.2941 21.256 26.8168 21.256C27.3581 21.256 27.7501 21.368 27.9928 21.592C28.2541 21.8347 28.3848 22.3013 28.3848 22.992V24.728H31.4648V22.992C31.4648 21.4427 30.9981 20.22 30.0648 19.324C29.2434 18.5587 28.1608 18.176 26.8168 18.176C25.5101 18.176 24.4274 18.5587 23.5688 19.324C22.6354 20.2573 22.1688 21.48 22.1688 22.992V33.408C22.1688 34.92 22.6354 36.1427 23.5688 37.076C24.4274 37.8413 25.5101 38.224 26.8168 38.224ZM46.2669 18.4V38H43.1869V28.228L40.6949 34.92H38.9029L36.4109 28.228V38H33.3309V18.4H35.0949L39.7989 29.264L44.5029 18.4H46.2669ZM54.9747 34.892H51.4467L50.8867 38H47.7507L51.6707 18.4H54.7507L58.6707 38H55.5347L54.9747 34.892ZM54.4427 31.812L53.2107 24.784L51.9787 31.812H54.4427ZM69.6465 38H67.8545L63.1505 28.06V38H60.0705V18.4H61.8625L66.5665 28.312V18.4H69.6465V38ZM81.2403 38H79.4483L74.7443 28.06V38H71.6643V18.4H73.4563L78.1603 28.312V18.4H81.2403V38Z" fill="white"/>
</svg>
