<svg width="142" height="96" viewBox="0 0 142 96" fill="none" xmlns="http://www.w3.org/2000/svg">
<path d="M8.2 29.56H10.888C13.192 29.56 15.048 28.904 16.456 27.592C18.056 26.12 18.856 24.024 18.856 21.304V17.656C18.856 14.968 18.056 12.888 16.456 11.416C15.016 10.072 13.16 9.4 10.888 9.4H2.92V43H8.2V29.56ZM8.2 14.68H10.888C11.784 14.68 12.44 14.872 12.856 15.256C13.336 15.736 13.576 16.536 13.576 17.656V21.304C13.576 22.456 13.336 23.256 12.856 23.704C12.44 24.088 11.784 24.28 10.888 24.28H8.2V14.68ZM30.7424 37.672H24.6944L23.7344 43H18.3584L25.0784 9.4H30.3584L37.0784 43H31.7024L30.7424 37.672ZM29.8304 32.392L27.7184 20.344L25.6064 32.392H29.8304ZM46.9716 43.384C49.2756 43.384 51.1316 42.728 52.5396 41.416C54.1396 39.88 54.9396 37.784 54.9396 35.128V30.808H49.6596V35.128C49.6596 36.312 49.4356 37.112 48.9876 37.528C48.5716 37.912 47.8996 38.104 46.9716 38.104C46.0756 38.104 45.4196 37.912 45.0036 37.528C44.5236 37.08 44.2836 36.28 44.2836 35.128V17.272C44.2836 16.12 44.5236 15.32 45.0036 14.872C45.4196 14.488 46.0756 14.296 46.9716 14.296C47.8996 14.296 48.5716 14.488 48.9876 14.872C49.4356 15.288 49.6596 16.088 49.6596 17.272V20.248H54.9396V17.272C54.9396 14.616 54.1396 12.52 52.5396 10.984C51.1316 9.672 49.2756 9.016 46.9716 9.016C44.7316 9.016 42.8756 9.672 41.4036 10.984C39.8036 12.584 39.0036 14.68 39.0036 17.272V35.128C39.0036 37.72 39.8036 39.816 41.4036 41.416C42.8756 42.728 44.7316 43.384 46.9716 43.384ZM80.3148 9.4V43H75.0348V26.248L70.7628 37.72H67.6908L63.4188 26.248V43H58.1388V9.4H61.1628L69.2268 28.024L77.2908 9.4H80.3148ZM95.2424 37.672H89.1944L88.2344 43H82.8584L89.5784 9.4H94.8584L101.578 43H96.2024L95.2424 37.672ZM94.3304 32.392L92.2184 20.344L90.1064 32.392H94.3304ZM120.394 43H117.322L109.258 25.96V43H103.978V9.4H107.05L115.114 26.392V9.4H120.394V43ZM140.269 43H137.197L129.133 25.96V43H123.853V9.4H126.925L134.989 26.392V9.4H140.269V43Z" fill="white"/>
<path d="M13.008 85.672H6.96L6 91H0.624L7.344 57.4H12.624L19.344 91H13.968L13.008 85.672ZM12.096 80.392L9.984 68.344L7.872 80.392H12.096ZM29.2373 91.384C31.5413 91.384 33.3973 90.728 34.8053 89.416C36.4053 87.88 37.2053 85.784 37.2053 83.128V71.56H29.2853V76.84H31.9253V83.128C31.9253 84.312 31.7013 85.112 31.2533 85.528C30.8373 85.912 30.1653 86.104 29.2373 86.104C28.3413 86.104 27.6853 85.912 27.2693 85.528C26.7893 85.08 26.5493 84.28 26.5493 83.128V65.272C26.5493 64.12 26.7893 63.32 27.2693 62.872C27.6853 62.488 28.3413 62.296 29.2373 62.296C30.1653 62.296 30.8373 62.488 31.2533 62.872C31.7013 63.288 31.9253 64.088 31.9253 65.272V68.248H37.2053V65.272C37.2053 62.616 36.4053 60.52 34.8053 58.984C33.3973 57.672 31.5413 57.016 29.2373 57.016C26.9973 57.016 25.1413 57.672 23.6693 58.984C22.0693 60.584 21.2693 62.68 21.2693 65.272V83.128C21.2693 85.72 22.0693 87.816 23.6693 89.416C25.1413 90.728 26.9973 91.384 29.2373 91.384ZM45.9188 62.68V71.128H51.8708V76.408H45.9188V85.72H54.5588V91H40.6388V57.4H54.5588V62.68H45.9188ZM74.0659 91H70.9939L62.9299 73.96V91H57.6499V57.4H60.7219L68.7859 74.392V57.4H74.0659V91ZM85.2529 91.384C87.5569 91.384 89.4129 90.728 90.8209 89.416C92.4209 87.88 93.2209 85.784 93.2209 83.128V78.808H87.9409V83.128C87.9409 84.312 87.7169 85.112 87.2689 85.528C86.8529 85.912 86.1809 86.104 85.2529 86.104C84.3569 86.104 83.7009 85.912 83.2849 85.528C82.8049 85.08 82.5649 84.28 82.5649 83.128V65.272C82.5649 64.12 82.8049 63.32 83.2849 62.872C83.7009 62.488 84.3569 62.296 85.2529 62.296C86.1809 62.296 86.8529 62.488 87.2689 62.872C87.7169 63.288 87.9409 64.088 87.9409 65.272V68.248H93.2209V65.272C93.2209 62.616 92.4209 60.52 90.8209 58.984C89.4129 57.672 87.5569 57.016 85.2529 57.016C83.0129 57.016 81.1569 57.672 79.6849 58.984C78.0849 60.584 77.2849 62.68 77.2849 65.272V83.128C77.2849 85.72 78.0849 87.816 79.6849 89.416C81.1569 90.728 83.0129 91.384 85.2529 91.384ZM105.845 79.192V91H100.517V79.192L94.0369 57.4H99.6049L103.157 69.448L106.805 57.4H112.373L105.845 79.192Z" fill="#B06674"/>
</svg>
