<svg width="167" height="208" viewBox="0 0 167 208" fill="none" xmlns="http://www.w3.org/2000/svg">
<path fill-rule="evenodd" clip-rule="evenodd" d="M28.0278 207.646C6.43185 206.718 -4.43953 183.722 2.74238 163.335L3.75271 160.466C10.3766 141.663 32.3114 133.032 51.1775 126.588C62.6714 122.662 72.5079 114.979 79.101 104.778C85.6941 94.5775 88.6594 82.4535 87.5187 70.3612C85.6463 50.5129 84.5068 26.9691 98.9312 13.207L101.131 11.1079C116.771 -3.81345 142.203 -3.34548 151.918 15.9643C159.265 30.5683 163.894 46.5089 165.45 63.0097C168.243 92.6138 160.984 122.296 144.842 147.269C128.701 172.242 104.62 191.052 76.4803 200.663C60.796 206.021 44.3607 208.347 28.0278 207.646Z" fill="#FCD85B"/>
<path fill-rule="evenodd" clip-rule="evenodd" d="M130.56 88.0874C136.736 87.4409 141.224 81.9035 140.58 75.7571C139.934 69.5809 134.396 65.093 128.22 65.7395C122.044 66.386 117.556 71.9233 118.203 78.0996C118.846 84.246 124.383 88.7339 130.56 88.0874ZM130.375 86.327C125.184 86.8705 120.533 83.074 119.996 77.942C119.452 72.7504 123.222 68.1328 128.414 67.5894C133.605 67.0459 138.22 70.7858 138.763 75.9775C139.301 81.1094 135.567 85.7835 130.375 86.327ZM118.031 93.6024L117.772 95.3533L123.737 96.2367C125.755 96.5356 127.688 98.4293 127.293 101.1L129.014 101.355C129.199 100.109 129.038 98.3259 127.891 96.852L129.346 97.0674L129.605 95.3165L118.031 93.6024ZM127.103 120.321C126.495 120.065 126.195 119.385 126.451 118.777C126.707 118.169 127.403 117.908 128.011 118.164C128.592 118.408 128.892 119.088 128.636 119.696C128.38 120.305 127.684 120.565 127.103 120.321ZM112.438 113.791L113.125 112.159L123.909 116.698L123.222 118.329L112.438 113.791ZM96.1993 121.274L95.9997 121.537C94.1486 123.974 94.6652 127.757 97.2929 129.753L110.025 139.426L111.096 138.017L109.878 137.091C111.439 136.921 112.914 136.12 113.93 134.782C115.945 132.131 115.41 128.371 112.782 126.375C110.154 124.379 106.389 124.871 104.375 127.523C103.359 128.861 102.982 130.497 103.237 132.046L98.3397 128.326C96.4765 126.91 96.0967 124.286 97.5485 122.375L97.5848 122.327L96.1993 121.274ZM105.7 128.605C107.152 126.694 109.842 126.327 111.706 127.742C113.593 129.176 113.96 131.866 112.508 133.777C111.111 135.617 108.421 135.984 106.533 134.551C104.67 133.135 104.303 130.445 105.7 128.605ZM94.8661 151.031L95.816 152.23L94.4284 153.329L87.1648 144.157L88.5524 143.058L89.6885 144.492C89.8275 142.928 90.5985 141.437 91.9156 140.394C94.5262 138.327 98.2955 138.786 100.344 141.373C102.393 143.96 101.976 147.735 99.3654 149.802C98.0484 150.845 96.4205 151.254 94.8661 151.031ZM98.9615 142.43C97.5088 140.596 94.8116 140.282 92.9302 141.772C91.1192 143.206 90.806 145.904 92.2587 147.738C93.73 149.596 96.4272 149.909 98.2381 148.475C100.12 146.985 100.433 144.288 98.9615 142.43ZM77.1005 162.663C78.663 161.968 79.7227 160.807 80.2431 158.803C81.6933 159.701 83.5148 159.811 85.0499 159.128C86.3108 158.567 87.2274 157.601 87.7084 156.468L88.1351 157.427L89.7524 156.708L84.9981 146.018L83.3808 146.737L86.1359 152.932C86.8673 154.577 86.2342 156.697 84.425 157.501C82.4788 158.367 80.584 157.502 79.6697 155.446L77.0487 149.553L75.4315 150.272L78.1865 156.467C78.918 158.112 78.2849 160.232 76.4757 161.037C74.5843 161.878 72.7169 161.001 71.8026 158.945L69.1816 153.052L67.5644 153.771L70.3194 159.966C71.5872 162.817 74.7431 163.712 77.1005 162.663ZM60.3252 171.096C60.2154 170.446 60.6285 169.828 61.2793 169.718C61.9301 169.609 62.5228 170.056 62.6326 170.707C62.7374 171.328 62.3244 171.946 61.6735 172.055C61.0227 172.165 60.43 171.718 60.3252 171.096ZM57.9806 155.215L59.726 154.921L61.6723 166.458L59.927 166.752L57.9806 155.215Z" fill="black"/>
</svg>
