<svg width="163" height="214" viewBox="0 0 163 214" fill="none" xmlns="http://www.w3.org/2000/svg">
<path fill-rule="evenodd" clip-rule="evenodd" d="M152.423 6.53296C160.847 9.19859 164.322 18.8159 160.611 26.8355L119.53 115.612L78.4478 204.388C74.7367 212.407 65.1564 215.983 57.6714 211.286C35.5695 197.417 18.3423 177.017 8.84631 153.075C-2.57975 124.268 -1.87659 92.6927 10.8011 65.2967C23.4788 37.9007 47.0925 16.9278 76.4476 6.99176C100.844 -1.2659 127.545 -1.33823 152.423 6.53296Z" fill="#73FF8A"/>
<path d="M72.0713 121.727L66.367 124.213C65.0312 121.909 62.9564 120.004 60.2721 118.96C54.0981 116.561 47.1396 119.624 44.7514 125.768C42.3516 131.942 45.4147 138.9 51.5887 141.3C57.7627 143.7 64.7212 140.637 67.121 134.463C68.2223 131.629 68.1688 128.587 67.1742 125.935L71.1091 124.203L72.0713 121.727ZM65.343 133.737C63.3258 138.927 57.4972 141.468 52.3075 139.451C47.1177 137.434 44.5652 131.635 46.5824 126.445C48.5765 121.315 54.3984 118.703 59.5881 120.72C61.7654 121.566 63.5037 123.1 64.6274 124.979L56.5622 128.505L57.328 130.244L65.4048 126.689C66.2286 128.897 66.2473 131.411 65.343 133.737ZM75.6465 112.529C76.1798 111.157 76.1481 109.737 75.6607 108.518L77.0029 109.04L77.6869 107.28L66.0548 102.758L65.3708 104.518L71.8132 107.022C73.6028 107.718 74.7165 109.799 73.9514 111.767C73.1282 113.885 71.044 114.654 69.0456 113.877L62.6927 111.408L62.0087 113.168L68.4511 115.672C71.553 116.878 74.6263 115.154 75.6465 112.529ZM64.9786 96.2529C65.2336 95.5967 64.8938 94.881 64.2377 94.6259C63.6113 94.3825 62.8774 94.6808 62.6223 95.337C62.3673 95.9932 62.707 96.7089 63.3334 96.9524C63.9896 97.2074 64.7235 96.909 64.9786 96.2529ZM79.3831 102.916L80.0671 101.156L68.4349 96.635L67.7509 98.3948L79.3831 102.916ZM81.7606 96.7995L82.4446 95.0398L60.0751 86.3448L59.3911 88.1045L81.7606 96.7995ZM84.1382 90.6828L84.8222 88.9231L62.4526 80.2281L61.7686 81.9878L84.1382 90.6828ZM72.1112 77.9028C72.3662 77.2467 72.0265 76.5309 71.3703 76.2759C70.7439 76.0324 70.01 76.3308 69.7549 76.987C69.4999 77.6431 69.8397 78.3589 70.466 78.6023C71.1222 78.8574 71.8561 78.559 72.1112 77.9028ZM86.5157 84.5661L87.1997 82.8064L75.5675 78.285L74.8835 80.0447L86.5157 84.5661ZM88.8932 78.4495L89.5772 76.6897L82.8365 74.0696C81.047 73.374 79.9332 71.2932 80.6984 69.3246C81.5215 67.207 83.6057 66.4378 85.8427 67.3073L92.2553 69.7999L92.9393 68.0402L86.1986 65.4201C83.0967 64.2144 80.0234 65.9381 79.0032 68.5627C78.4699 69.9347 78.5017 71.3547 78.989 72.5741L77.9451 72.1683L77.2611 73.9281L88.8932 78.4495ZM106.709 62.9106L106.837 62.5826C108.019 59.5403 106.378 55.8125 103.097 54.5373L87.2001 48.358L86.5161 50.1178L88.0372 50.709C86.4864 51.3422 85.2092 52.5967 84.56 54.267C83.2731 57.5777 84.9256 61.2756 88.2065 62.5509C91.4874 63.8261 95.2035 62.215 96.4904 58.9043C97.1396 57.234 97.0449 55.4463 96.3288 53.932L102.443 56.3086C104.77 57.2129 105.93 59.7925 105.002 62.1786L104.979 62.2382L106.709 62.9106ZM94.8135 58.1838C93.886 60.5699 91.2352 61.7368 88.9088 60.8325C86.5525 59.9167 85.3856 57.2658 86.3131 54.8797C87.2057 52.5831 89.8566 51.4162 92.2128 52.3321C94.5393 53.2364 95.7062 55.8872 94.8135 58.1838Z" fill="black"/>
</svg>
