<svg width="189" height="144" viewBox="0 0 189 144" fill="none" xmlns="http://www.w3.org/2000/svg">
<path fill-rule="evenodd" clip-rule="evenodd" d="M66.3872 18.3316C17.0199 44.4722 -10.2862 89.674 5.39728 119.293C21.0807 148.911 73.8147 151.731 123.182 125.59C172.549 99.4498 199.855 54.2481 184.172 24.6294C168.488 -4.98934 115.754 -7.80894 66.3872 18.3316Z" fill="#FF92DA"/>
<path d="M56.6471 102.932L64.6412 98.6092C70.3531 95.4479 72.4839 88.2205 69.3484 82.422C66.213 76.6234 58.9986 74.4492 53.2258 77.4979L45.2317 81.8205L56.6471 102.932ZM57.4098 100.373L47.7904 82.5833L54.1238 79.1586C58.9524 76.5841 65.0545 78.4503 67.6877 83.32C70.3208 88.1897 68.5414 94.3176 63.7432 96.9485L57.4098 100.373ZM83.8033 88.2479C86.8996 86.5736 88.035 82.6856 86.3607 79.5893C84.6865 76.493 80.8114 75.3142 77.7151 76.9885C74.5906 78.678 73.4552 82.5659 75.1295 85.6623C76.8037 88.7586 80.6788 89.9373 83.8033 88.2479ZM82.992 86.613C80.7401 87.8306 77.9645 87.0032 76.7773 84.8076C75.5749 82.5839 76.4023 79.8083 78.6542 78.5906C80.8216 77.4187 83.5972 78.2461 84.7996 80.4698C85.9868 82.6654 85.1594 85.441 82.992 86.613ZM97.3552 80.92C100.452 79.2458 101.587 75.3578 99.9127 72.2614C98.2384 69.1651 94.3633 67.9864 91.267 69.6606C88.1425 71.3501 87.0072 75.2381 88.6814 78.3344C90.3557 81.4308 94.2307 82.6095 97.3552 80.92ZM96.5439 79.2851C94.2921 80.5028 91.5165 79.6754 90.3293 77.4798C89.1268 75.2561 89.9542 72.4804 92.2061 71.2628C94.3735 70.0908 97.1491 70.9182 98.3516 73.1419C99.5388 75.3375 98.7114 78.1131 96.5439 79.2851ZM103.517 50.3043L109.773 61.8733C108.181 61.3516 106.395 61.4804 104.819 62.3328C101.694 64.0223 100.559 67.9103 102.233 71.0066C103.908 74.1029 107.783 75.2816 110.907 73.5922C112.483 72.7398 113.569 71.3162 114.004 69.6986L114.932 71.4156L116.593 70.5176L105.178 49.4063L103.517 50.3043ZM110.096 71.9573C107.844 73.1749 105.068 72.3475 103.881 70.1519C102.679 67.9282 103.506 65.1526 105.758 63.935C107.925 62.763 110.701 63.5904 111.904 65.8141C113.091 68.0097 112.263 70.7853 110.096 71.9573ZM120.692 68.3011L122.353 67.4031L110.938 46.2918L109.277 47.1898L120.692 68.3011ZM131.194 62.6227C132.742 61.7856 133.799 60.3771 134.265 58.8158L132.487 58.2858C132.179 59.3982 131.437 60.3813 130.339 60.9749C128.341 62.0555 125.947 61.5309 124.605 59.8557L134.091 54.7264C133.997 54.486 133.888 54.2175 133.751 53.9641C132.077 50.8678 128.202 49.6891 125.106 51.3633C121.981 53.0528 120.846 56.9408 122.52 60.0371C124.194 63.1334 128.069 64.3122 131.194 62.6227ZM123.778 58.1927C123.242 56.191 124.131 54.0005 126.045 52.9655C127.903 51.9609 130.194 52.4316 131.575 53.9766L123.778 58.1927ZM142.613 56.448C144.471 55.4435 145.613 53.116 144.563 51.1737C143.589 49.3722 141.059 49.0667 139.286 50.0256C137.907 50.7714 136.608 50.4551 136.106 49.5262C135.558 48.5128 136.19 47.2612 137.316 46.6524C138.358 46.0892 139.765 46.2016 140.328 47.2431L141.96 46.3603C140.773 44.1647 138.073 44.3515 136.637 45.1278C134.47 46.2998 133.468 48.5512 134.519 50.4934C135.401 52.126 137.882 52.6765 139.965 51.5502C140.922 51.0327 142.398 51.0713 142.931 52.0565C143.494 53.098 142.889 54.3344 141.735 54.9585C140.525 55.6129 139.211 55.2685 138.739 54.3959L137.106 55.2787C137.974 56.8831 140.361 57.6657 142.613 56.448Z" fill="black"/>
</svg>
