<svg width="271" height="130" viewBox="0 0 271 130" fill="none" xmlns="http://www.w3.org/2000/svg">
<path fill-rule="evenodd" clip-rule="evenodd" d="M37.4841 33.3782C12.3979 39.4099 -3.36182 64.0155 1.19062 89.4118C5.80351 115.145 29.6621 132.812 55.5721 129.323C83.521 125.56 119.018 120.455 146.837 115.368C172.6 110.658 205.9 103.469 232.494 97.5215C258.035 91.8092 274.349 66.9389 269.731 41.1774C265.187 15.83 241.914 -1.74102 216.343 1.30134C188.872 4.56978 154.045 9.10524 127.074 13.9276C99.7507 18.8129 64.8228 26.8048 37.4841 33.3782Z" fill="#ED5440"/>
<path d="M95.3041 86.1811C99.3321 85.2782 102.522 81.8084 101.682 78.0614C101.011 75.0638 97.285 72.4883 92.57 73.5452C88.5732 74.4411 86.0461 72.384 85.6261 70.5105C85.0172 67.7939 87.1405 65.4159 90.4503 64.674C93.729 63.9391 96.7923 65.0233 97.3522 67.5213L99.1945 67.1083C98.3756 63.455 94.0202 61.8733 90.0546 62.7623C85.4957 63.7841 82.9859 67.3638 83.7978 70.9859C84.5818 74.4831 89.0486 76.2694 92.6395 75.4644C96.8237 74.5265 99.3993 76.5071 99.8402 78.4743C100.484 81.347 97.7326 83.7019 94.735 84.3738C91.8623 85.0178 88.632 83.7742 88.1141 81.4635L86.2718 81.8765C86.9857 85.0615 90.995 87.147 95.3041 86.1811ZM110.897 71.831L110.484 69.9887L107.986 70.5486L106.867 65.5526L105.024 65.9656L106.144 70.9616L103.646 71.5215L104.059 73.3638L106.557 72.8039L107.831 78.4868C108.272 80.454 108.916 81.4247 110.716 82.7264L111.716 81.1905C110.472 80.3216 110.002 79.5415 109.582 77.668L108.399 72.3909L110.897 71.831ZM114.771 65.5845C115.458 65.4306 115.862 64.7495 115.708 64.0626C115.561 63.4068 114.905 62.9638 114.218 63.1177C113.531 63.2717 113.126 63.9528 113.273 64.6085C113.427 65.2955 114.084 65.7385 114.771 65.5845ZM117.267 81.258L119.11 80.845L116.38 68.6672L114.538 69.0802L117.267 81.258ZM128.636 78.7097C130.572 78.2757 131.902 77.1904 132.775 75.8143L131.253 74.8765C130.616 75.8391 129.541 76.6047 128.511 76.8356C126.013 77.3956 123.636 75.8623 123.09 73.4268C122.537 70.96 124.087 68.5136 126.585 67.9537C127.678 67.7087 128.859 68.0016 129.808 68.576L130.846 67.0642C129.293 66.1334 127.678 65.8067 126.117 66.1566C122.651 66.9335 120.502 70.3667 121.272 73.8015C122.042 77.2363 125.451 79.4236 128.636 78.7097ZM136.509 76.9449L138.351 76.532L137.28 71.7545L138.038 70.6008L145.026 75.0029L147.618 74.422L139.048 68.9642L143.053 62.6884L140.461 63.2693L136.713 69.2253L133.101 53.1131L131.259 53.5261L136.509 76.9449ZM156.117 72.5497C157.834 72.1647 159.234 71.0966 160.107 69.7205L158.539 68.7272C157.941 69.7141 156.96 70.4587 155.742 70.7316C153.525 71.2286 151.364 70.0733 150.527 68.0964L161.05 65.7377C161.025 65.4809 160.994 65.1928 160.931 64.9118C160.161 61.477 156.752 59.2897 153.317 60.0596C149.851 60.8365 147.702 64.2697 148.472 67.7045C149.242 71.1393 152.651 73.3266 156.117 72.5497ZM150.184 66.2713C150.211 64.1992 151.662 62.3326 153.785 61.8567C155.846 61.3947 157.924 62.4704 158.833 64.3326L150.184 66.2713ZM165.599 70.4242L167.441 70.0112L166.035 63.7349C165.559 61.6116 166.703 58.9612 169.513 58.3313L169.107 56.5202C167.796 56.8142 166.082 57.6573 165.055 59.3634L164.712 57.8334L162.869 58.2463L165.599 70.4242ZM178.115 67.6187C180.176 67.1567 181.908 65.2272 181.425 63.0726C180.977 61.0742 178.625 60.0928 176.658 60.5338C175.128 60.8767 173.964 60.2194 173.733 59.189C173.481 58.0649 174.43 57.0323 175.679 56.7523C176.835 56.4933 178.158 56.9838 178.417 58.1391L180.228 57.7331C179.682 55.2976 177.033 54.7436 175.44 55.1006C173.036 55.6395 171.46 57.5341 171.943 59.6886C172.349 61.4997 174.587 62.7034 176.897 62.1855C177.959 61.9475 179.369 62.3857 179.614 63.4786C179.873 64.6339 178.955 65.6595 177.675 65.9465C176.332 66.2475 175.161 65.5589 174.944 64.5909L173.133 64.9969C173.532 66.7767 175.617 68.1786 178.115 67.6187Z" fill="black"/>
</svg>
