<svg width="286" height="128" viewBox="0 0 286 128" fill="none" xmlns="http://www.w3.org/2000/svg">
<rect x="4" y="9.17285" width="273" height="56" rx="8" transform="rotate(-1.92554 4 9.17285)" fill="#5CFF9D"/>
<rect x="4.42676" y="33.3459" width="281.314" height="81.299" rx="8" transform="rotate(2.63041 4.42676 33.3459)" fill="url(#paint0_radial_685_136)"/>
<rect x="11.5703" y="59" width="273" height="56" rx="8" transform="rotate(2.63041 11.5703 59)" fill="white"/>
<path d="M93.4653 98.711C91.8193 98.6294 90.4149 98.1993 89.252 97.4208C88.1059 96.6271 87.2373 95.5667 86.6463 94.2398C86.0561 92.897 85.8037 91.3626 85.8893 89.6367C85.9741 87.9268 86.3762 86.4409 87.0955 85.179C87.8157 83.9011 88.7853 82.9239 90.0043 82.2474C91.2392 81.5717 92.6797 81.2747 94.3257 81.3563C96.2433 81.4514 97.7784 81.992 98.931 82.9783C100.1 83.9494 100.812 85.2663 101.066 86.9289L98.8368 86.8184C98.6326 85.767 98.1464 84.9098 97.3783 84.247C96.6269 83.569 95.5801 83.1967 94.2377 83.1301C93.0392 83.0707 91.9786 83.2985 91.056 83.8134C90.1342 84.3124 89.3998 85.0689 88.8529 86.0831C88.3228 87.0821 88.0221 88.3007 87.9508 89.7389C87.8795 91.1772 88.0578 92.4275 88.4857 93.49C88.9304 94.5373 89.5863 95.3628 90.4535 95.9665C91.3214 96.5542 92.3547 96.8777 93.5532 96.9372C94.8956 97.0037 95.9733 96.7528 96.7865 96.1843C97.6164 95.6007 98.1845 94.8039 98.4909 93.7938L100.72 93.9043C100.305 95.5017 99.4669 96.7257 98.2073 97.5764C96.9636 98.4279 95.3829 98.8061 93.4653 98.711ZM108.656 99.4641C107.537 99.4086 106.543 99.103 105.674 98.5473C104.804 97.9916 104.129 97.2372 103.647 96.2842C103.183 95.316 102.982 94.2007 103.044 92.9382C103.107 91.6758 103.425 90.5942 103.998 89.6935C104.572 88.7768 105.319 88.0849 106.24 87.6179C107.176 87.1517 108.203 86.9463 109.322 87.0018C110.441 87.0572 111.435 87.3628 112.304 87.9186C113.174 88.4743 113.841 89.2363 114.305 90.2045C114.787 91.1575 114.996 92.2652 114.934 93.5277C114.871 94.7901 114.553 95.8797 113.979 96.7964C113.405 97.6971 112.651 98.3806 111.714 98.8468C110.794 99.3138 109.775 99.5196 108.656 99.4641ZM108.742 97.7382C109.429 97.7723 110.076 97.6362 110.684 97.3299C111.292 97.0236 111.797 96.544 112.197 95.8911C112.598 95.2381 112.823 94.4163 112.872 93.4255C112.921 92.4347 112.779 91.5946 112.445 90.9052C112.126 90.2166 111.68 89.6898 111.105 89.3249C110.53 88.96 109.908 88.7609 109.236 88.7277C108.549 88.6936 107.902 88.8297 107.294 89.136C106.686 89.4423 106.182 89.9219 105.781 90.5748C105.38 91.2278 105.155 92.0496 105.106 93.0404C105.057 94.0312 105.199 94.8713 105.534 95.5607C105.868 96.2501 106.314 96.7769 106.873 97.141C107.448 97.5059 108.07 97.7049 108.742 97.7382ZM117.439 99.6112L118.294 82.3524L120.308 82.4522L119.452 99.711L117.439 99.6112ZM122.752 99.8746L123.608 82.6158L125.622 82.7156L124.766 99.9744L122.752 99.8746ZM133.397 100.691C132.263 100.634 131.269 100.329 130.415 99.7739C129.562 99.203 128.903 98.4414 128.438 97.4892C127.988 96.5378 127.795 95.4309 127.858 94.1684C127.919 92.9219 128.221 91.8475 128.762 90.9452C129.304 90.027 130.028 89.3339 130.932 88.8661C131.853 88.3831 132.897 88.1706 134.063 88.2284C135.214 88.2854 136.192 88.5982 136.996 89.1668C137.818 89.7202 138.432 90.4314 138.837 91.3006C139.243 92.1697 139.421 93.0917 139.373 94.0665C139.364 94.2423 139.347 94.4176 139.323 94.5926C139.314 94.7684 139.304 94.9682 139.293 95.1919L129.825 94.7225C129.827 95.6357 129.997 96.4051 130.335 97.0306C130.689 97.6409 131.138 98.1117 131.683 98.443C132.243 98.7752 132.843 98.9571 133.482 98.9888C134.313 99.03 135.017 98.8727 135.596 98.5169C136.174 98.1611 136.607 97.6619 136.896 97.0194L138.885 97.1181C138.511 98.2049 137.85 99.0932 136.903 99.7832C135.972 100.458 134.804 100.76 133.397 100.691ZM133.931 89.9279C132.972 89.8804 132.103 90.1337 131.322 90.6877C130.559 91.2265 130.093 92.0525 129.926 93.1656L137.405 93.5364C137.41 92.4633 137.084 91.6061 136.427 90.9648C135.77 90.3235 134.938 89.9779 133.931 89.9279ZM147.165 101.373C146.03 101.317 145.02 101.011 144.134 100.454C143.266 99.8824 142.591 99.12 142.109 98.167C141.645 97.1988 141.443 96.0915 141.505 94.845C141.567 93.5985 141.876 92.5245 142.434 91.623C143.008 90.7063 143.755 90.0145 144.675 89.5475C145.612 89.0653 146.648 88.8523 147.783 88.9086C149.189 88.9783 150.353 89.4045 151.276 90.1871C152.214 90.9705 152.78 91.9838 152.975 93.227L150.914 93.1248C150.79 92.3818 150.427 91.795 149.823 91.3646C149.221 90.9183 148.504 90.6745 147.673 90.6333C147.002 90.6 146.362 90.7365 145.754 91.0428C145.146 91.349 144.642 91.8286 144.241 92.4816C143.84 93.1346 143.615 93.9564 143.566 94.9472C143.517 95.938 143.66 96.7781 143.994 97.4675C144.328 98.1569 144.782 98.692 145.356 99.0729C145.931 99.4378 146.554 99.6369 147.225 99.6702C148.056 99.7114 148.793 99.5477 149.436 99.179C150.08 98.7944 150.5 98.2306 150.697 97.4874L152.759 97.5896C152.46 98.7763 151.804 99.721 150.792 100.424C149.78 101.126 148.571 101.443 147.165 101.373ZM159.755 101.709C158.668 101.655 157.826 101.349 157.229 100.791C156.632 100.233 156.368 99.2664 156.436 97.8921L156.76 91.3481L154.699 91.2459L154.783 89.544L156.845 89.6462L157.25 86.8068L158.999 86.8935L158.858 89.746L162.358 89.9195L162.273 91.6214L158.774 91.4479L158.449 97.9919C158.412 98.743 158.538 99.2619 158.829 99.5486C159.12 99.8193 159.649 99.9737 160.416 100.012L161.662 100.074L161.577 101.799L159.755 101.709ZM166.269 87.4702C165.87 87.4504 165.54 87.3059 165.281 87.0368C165.039 86.7524 164.928 86.4105 164.948 86.011C164.967 85.6274 165.11 85.3142 165.379 85.0712C165.663 84.8289 166.005 84.7177 166.405 84.7375C166.788 84.7566 167.109 84.9006 167.368 85.1698C167.627 85.439 167.747 85.7653 167.728 86.1488C167.708 86.5483 167.556 86.8772 167.271 87.1354C166.987 87.3776 166.653 87.4892 166.269 87.4702ZM164.542 101.946L165.132 90.057L167.145 90.1569L166.556 102.046L164.542 101.946ZM175.465 102.776C174.346 102.721 173.352 102.415 172.482 101.86C171.613 101.304 170.937 100.549 170.456 99.5964C169.991 98.6282 169.79 97.5129 169.853 96.2504C169.915 94.988 170.233 93.9064 170.807 93.0057C171.381 92.089 172.128 91.3971 173.048 90.9301C173.984 90.4639 175.012 90.2585 176.131 90.314C177.249 90.3694 178.243 90.675 179.113 91.2308C179.982 91.7865 180.649 92.5485 181.114 93.5167C181.595 94.4697 181.805 95.5774 181.742 96.8399C181.68 98.1023 181.361 99.1919 180.787 100.109C180.214 101.009 179.459 101.693 178.523 102.159C177.603 102.626 176.583 102.832 175.465 102.776ZM175.55 101.05C176.237 101.084 176.885 100.948 177.493 100.642C178.101 100.336 178.605 99.8562 179.006 99.2033C179.407 98.5503 179.632 97.7284 179.681 96.7377C179.73 95.7469 179.587 94.9068 179.253 94.2174C178.935 93.5288 178.488 93.002 177.914 92.6371C177.339 92.2722 176.716 92.0731 176.045 92.0399C175.358 92.0058 174.71 92.1419 174.102 92.4482C173.494 92.7545 172.99 93.2341 172.589 93.887C172.188 94.54 171.963 95.3618 171.914 96.3526C171.865 97.3434 172.008 98.1835 172.342 98.8729C172.676 99.5623 173.123 100.089 173.681 100.453C174.256 100.818 174.879 101.017 175.55 101.05ZM184.247 102.923L184.837 91.034L186.658 91.1243L186.673 93.2636C187.093 92.5315 187.674 91.9676 188.414 91.5718C189.155 91.176 189.981 91.0006 190.892 91.0458C192.298 91.1155 193.395 91.6024 194.183 92.5066C194.988 93.3955 195.347 94.7269 195.259 96.5007L194.914 103.452L192.901 103.352L193.235 96.6167C193.357 94.1397 192.396 92.8505 190.351 92.7491C189.328 92.6984 188.454 93.0315 187.73 93.7486C187.022 94.4504 186.634 95.4884 186.566 96.8628L186.261 103.023L184.247 102.923ZM202.505 104.117C201.083 104.046 199.918 103.628 199.011 102.862C198.104 102.096 197.601 101.094 197.502 99.8559L199.563 99.9581C199.66 100.588 199.961 101.147 200.465 101.637C200.986 102.111 201.702 102.371 202.613 102.416C203.46 102.458 204.092 102.313 204.509 101.982C204.927 101.634 205.148 101.212 205.173 100.717C205.208 99.9977 204.968 99.5052 204.453 99.2394C203.953 98.9743 203.237 98.7225 202.304 98.484C201.671 98.3245 201.041 98.109 200.413 97.8376C199.786 97.5662 199.267 97.2041 198.857 96.7512C198.448 96.2824 198.261 95.6884 198.297 94.9693C198.348 93.9306 198.774 93.1026 199.573 92.4855C200.39 91.8531 201.461 91.5698 202.787 91.6356C204.05 91.6982 205.065 92.0689 205.832 92.7477C206.616 93.4113 207.043 94.3296 207.113 95.5025L205.124 95.4039C205.074 94.7927 204.833 94.3082 204.403 93.9504C203.989 93.5774 203.414 93.3727 202.679 93.3363C201.96 93.3006 201.393 93.4247 200.978 93.7085C200.58 93.9931 200.368 94.3832 200.344 94.8785C200.32 95.358 200.549 95.7458 201.031 96.042C201.529 96.339 202.205 96.6048 203.058 96.8393C203.785 97.0356 204.47 97.2698 205.114 97.542C205.774 97.799 206.3 98.1695 206.693 98.6535C207.102 99.1224 207.285 99.7883 207.242 100.651C207.205 101.723 206.754 102.589 205.888 103.251C205.039 103.898 203.911 104.187 202.505 104.117Z" fill="black" fill-opacity="0.94"/>
<path d="M87.3514 43.1571L93.0991 26.1999L95.2343 26.1437L101.842 42.7756L99.7071 42.8318L98.0579 38.5537L90.9084 38.7419L89.4626 43.1015L87.3514 43.1571ZM91.4652 37.0947L97.4152 36.9381L94.2217 28.7153L91.4652 37.0947ZM104.219 42.713L103.906 30.8131L105.729 30.7651L105.957 33.0399C106.304 32.2465 106.848 31.608 107.587 31.1244C108.327 30.6407 109.248 30.3844 110.352 30.3553L110.407 32.4666L109.856 32.4811C109.152 32.4997 108.508 32.6447 107.922 32.9162C107.337 33.1716 106.876 33.5999 106.54 34.201C106.204 34.802 106.049 35.6224 106.076 36.662L106.234 42.66L104.219 42.713ZM117.637 42.3598C116.549 42.3884 115.687 42.147 115.049 41.6356C114.411 41.1242 114.075 40.1808 114.038 38.8052L113.866 32.2555L111.803 32.3098L111.758 30.6064L113.821 30.5521L114.01 27.6901L115.761 27.644L115.836 30.499L119.339 30.4068L119.384 32.1102L115.881 32.2025L116.054 38.7522C116.073 39.5039 116.239 40.0118 116.55 40.2757C116.861 40.5236 117.4 40.6374 118.167 40.6172L119.415 40.5844L119.46 42.3118L117.637 42.3598ZM133.656 42.2262C132.504 42.2565 131.483 42.0753 130.593 41.6826C129.718 41.2735 129.022 40.6996 128.507 39.9609C128.007 39.2058 127.743 38.3084 127.715 37.2688C127.686 36.1332 127.987 35.1169 128.62 34.2199C129.268 33.3066 130.217 32.5773 131.467 32.0322C130.908 31.4548 130.501 30.9053 130.247 30.3838C129.993 29.8463 129.858 29.2656 129.841 28.6418C129.813 27.5702 130.166 26.6806 130.899 25.9731C131.648 25.2491 132.687 24.8696 134.014 24.8347C134.878 24.812 135.634 24.9601 136.283 25.2792C136.931 25.5822 137.439 26.017 137.806 26.5835C138.173 27.1501 138.35 27.8016 138.337 28.5382L136.346 28.5906C136.343 27.8705 136.105 27.3326 135.631 26.9769C135.174 26.6208 134.649 26.4506 134.057 26.4661C133.338 26.4851 132.783 26.6918 132.393 27.0861C132.003 27.4805 131.816 27.9736 131.832 28.5654C131.845 29.0773 131.994 29.5695 132.279 30.0422C132.579 30.5144 133.017 31.0391 133.593 31.6161L139.036 36.8267C139.482 36.1427 139.964 35.3217 140.483 34.3638L141.193 33.0486L143.328 32.9924L142.322 34.8916C141.651 36.1736 141.007 37.247 140.39 38.1115L144.109 41.6629L141.566 41.7298L139.275 39.5333C138.451 40.4673 137.589 41.1463 136.688 41.5701C135.786 41.978 134.776 42.1967 133.656 42.2262ZM129.729 37.1437C129.755 38.1354 130.129 38.9499 130.85 39.5871C131.571 40.2243 132.499 40.528 133.634 40.4981C134.482 40.4758 135.246 40.2957 135.925 39.9577C136.62 39.6032 137.293 39.0413 137.945 38.2719L132.723 33.2476C131.679 33.6912 130.909 34.2397 130.414 34.8929C129.935 35.5458 129.707 36.296 129.729 37.1437ZM159.977 41.5332C158.329 41.5766 156.896 41.2542 155.678 40.566C154.475 39.8615 153.528 38.87 152.838 37.5917C152.148 36.2975 151.78 34.7866 151.735 33.0592C151.69 31.3478 151.978 29.8357 152.6 28.5229C153.221 27.1941 154.114 26.1462 155.278 25.3793C156.458 24.612 157.872 24.2066 159.519 24.1633C161.439 24.1127 163.01 24.5355 164.234 25.4316C165.474 26.3113 166.283 27.5704 166.663 29.209L164.431 29.2678C164.148 28.2349 163.598 27.417 162.782 26.8143C161.982 26.1952 160.91 25.9033 159.566 25.9386C158.366 25.9702 157.326 26.2777 156.445 26.8611C155.564 27.4285 154.889 28.2385 154.42 29.2912C153.968 30.3275 153.76 31.5654 153.798 33.0049C153.836 34.4444 154.108 35.6776 154.616 36.7047C155.138 37.7152 155.855 38.4887 156.765 39.0249C157.675 39.5451 158.73 39.7894 159.93 39.7579C161.273 39.7225 162.329 39.3906 163.097 38.7622C163.88 38.1173 164.386 37.2797 164.615 36.2493L166.846 36.1906C166.553 37.8149 165.81 39.0989 164.619 40.0426C163.443 40.9858 161.896 41.4827 159.977 41.5332ZM169.751 40.9878L169.438 29.0879L171.261 29.0399L171.489 31.3147C171.836 30.5213 172.38 29.8828 173.119 29.3992C173.859 28.9155 174.78 28.6592 175.884 28.6301L175.939 30.7414L175.388 30.7559C174.684 30.7745 174.04 30.9195 173.454 31.191C172.869 31.4465 172.408 31.8747 172.072 32.4758C171.735 33.0769 171.581 33.8972 171.608 34.9368L171.766 40.9348L169.751 40.9878ZM182.433 40.9421C181.441 40.9682 180.613 40.8219 179.949 40.5033C179.284 40.1847 178.784 39.7497 178.45 39.1983C178.115 38.6469 177.939 38.0433 177.922 37.3875C177.89 36.172 178.329 35.2241 179.239 34.5439C180.15 33.8637 181.405 33.5025 183.004 33.4604L186.219 33.3758L186.215 33.2318C186.188 32.1922 185.895 31.4156 185.338 30.9021C184.78 30.3726 184.045 30.1199 183.133 30.1439C182.349 30.1645 181.675 30.3824 181.109 30.7974C180.56 31.196 180.223 31.773 180.099 32.5286L178.035 32.5829C178.093 31.7171 178.361 30.9818 178.842 30.3769C179.338 29.7716 179.958 29.3072 180.702 28.9835C181.445 28.6438 182.24 28.4628 183.088 28.4405C184.752 28.3967 186.011 28.8117 186.866 29.6855C187.737 30.5429 188.192 31.7073 188.231 33.1788L188.423 40.4963L186.624 40.5436L186.448 38.4115C186.13 39.0921 185.649 39.681 185.006 40.1781C184.378 40.6588 183.521 40.9134 182.433 40.9421ZM182.7 39.2304C183.468 39.2102 184.118 38.993 184.652 38.5789C185.201 38.1643 185.611 37.6333 185.882 36.9859C186.153 36.3386 186.279 35.663 186.261 34.9593L186.26 34.9353L183.213 35.0155C182.03 35.0466 181.195 35.2767 180.711 35.7056C180.241 36.1181 180.015 36.6282 180.031 37.236C180.047 37.8598 180.284 38.3577 180.742 38.7298C181.216 39.0855 181.868 39.2523 182.7 39.2304ZM192.094 40.3996L191.826 30.2031L190.027 30.2505L189.982 28.5471L191.781 28.4997L191.727 26.4365C191.696 25.2849 191.962 24.4376 192.524 23.8946C193.086 23.3516 193.919 23.0656 195.022 23.0365L196.222 23.005L196.268 24.7324L195.38 24.7557C194.772 24.7717 194.344 24.9111 194.094 25.1737C193.845 25.4204 193.728 25.8396 193.743 26.4314L193.796 28.4467L196.723 28.3696L196.768 30.073L193.841 30.1501L194.11 40.3466L192.094 40.3996ZM204.138 40.0825C203.051 40.1112 202.188 39.8698 201.55 39.3584C200.913 38.847 200.576 37.9035 200.54 36.528L200.367 29.9783L198.304 30.0326L198.259 28.3292L200.322 28.2749L200.511 25.4129L202.262 25.3668L202.338 28.2218L205.84 28.1296L205.885 29.833L202.382 29.9252L202.555 36.475C202.575 37.2267 202.74 37.7345 203.051 37.9984C203.362 38.2463 203.901 38.3602 204.669 38.34L205.916 38.3071L205.962 40.0345L204.138 40.0825Z" fill="black" fill-opacity="0.94"/>
<defs>
<radialGradient id="paint0_radial_685_136" cx="0" cy="0" r="1" gradientUnits="userSpaceOnUse" gradientTransform="translate(211.329 155.226) rotate(-159.549) scale(239.063 82.3025)">
<stop stop-opacity="0"/>
<stop offset="0.799519" stop-opacity="0.28"/>
<stop offset="1" stop-opacity="0"/>
</radialGradient>
</defs>
</svg>
