<svg width="120" height="123" viewBox="0 0 120 123" fill="none" xmlns="http://www.w3.org/2000/svg">
<rect opacity="0.06" x="0.5" y="91.5" width="27" height="31" rx="5.5" stroke="black"/>
<rect opacity="0.06" x="34.5" y="91.5" width="27" height="31" rx="5.5" stroke="black"/>
<rect opacity="0.06" x="68.5" y="91.5" width="27" height="31" rx="5.5" stroke="black"/>
<path d="M13.624 112.144C14.248 112.144 14.796 112.012 15.268 111.748C15.748 111.484 16.124 111.124 16.396 110.668C16.668 110.204 16.804 109.68 16.804 109.096C16.804 108.56 16.68 108.08 16.432 107.656C16.192 107.224 15.856 106.884 15.424 106.636C15 106.388 14.512 106.264 13.96 106.264C13.912 106.264 13.864 106.264 13.816 106.264L16.324 103.06H14.104L11.62 106.264C11.284 106.696 11.032 107.08 10.864 107.416C10.696 107.752 10.584 108.06 10.528 108.34C10.472 108.62 10.444 108.9 10.444 109.18C10.444 109.74 10.58 110.244 10.852 110.692C11.124 111.14 11.5 111.496 11.98 111.76C12.46 112.016 13.008 112.144 13.624 112.144ZM13.624 110.464C13.256 110.464 12.944 110.34 12.688 110.092C12.432 109.844 12.304 109.52 12.304 109.12C12.304 108.72 12.432 108.4 12.688 108.16C12.944 107.912 13.256 107.788 13.624 107.788C13.992 107.788 14.304 107.912 14.56 108.16C14.816 108.4 14.944 108.72 14.944 109.12C14.944 109.52 14.816 109.844 14.56 110.092C14.304 110.34 13.992 110.464 13.624 110.464Z" fill="black"/>
<path d="M44.84 112H46.904L50.408 104.62V103.06H44.324V104.62H48.452L44.84 112Z" fill="black"/>
<path d="M81.792 112.144C82.464 112.144 83.044 112.02 83.532 111.772C84.02 111.524 84.392 111.196 84.648 110.788C84.912 110.372 85.044 109.92 85.044 109.432C85.044 108.952 84.936 108.536 84.72 108.184C84.504 107.832 84.188 107.54 83.772 107.308C84.068 107.116 84.296 106.848 84.456 106.504C84.624 106.16 84.708 105.792 84.708 105.4C84.708 104.92 84.58 104.492 84.324 104.116C84.076 103.74 83.732 103.448 83.292 103.24C82.86 103.024 82.36 102.916 81.792 102.916C81.224 102.916 80.72 103.024 80.28 103.24C79.84 103.448 79.496 103.74 79.248 104.116C79 104.492 78.876 104.92 78.876 105.4C78.876 105.8 78.96 106.172 79.128 106.516C79.296 106.852 79.524 107.116 79.812 107.308C78.98 107.764 78.564 108.468 78.564 109.42C78.564 109.908 78.692 110.36 78.948 110.776C79.204 111.192 79.572 111.524 80.052 111.772C80.54 112.02 81.12 112.144 81.792 112.144ZM81.792 106.588C81.472 106.588 81.216 106.488 81.024 106.288C80.832 106.08 80.736 105.828 80.736 105.532C80.736 105.228 80.832 104.976 81.024 104.776C81.216 104.576 81.472 104.476 81.792 104.476C82.112 104.476 82.368 104.576 82.56 104.776C82.752 104.976 82.848 105.228 82.848 105.532C82.848 105.828 82.752 106.08 82.56 106.288C82.368 106.488 82.112 106.588 81.792 106.588ZM81.792 110.584C81.384 110.584 81.052 110.472 80.796 110.248C80.548 110.024 80.424 109.728 80.424 109.36C80.424 108.992 80.548 108.7 80.796 108.484C81.052 108.26 81.384 108.148 81.792 108.148C82.208 108.148 82.544 108.26 82.8 108.484C83.056 108.7 83.184 108.992 83.184 109.36C83.184 109.728 83.056 110.024 82.8 110.248C82.544 110.472 82.208 110.584 81.792 110.584Z" fill="black"/>
<path d="M3.176 32V9.6H7.272L17.8 25.376V9.6H21.896V32H17.8L7.272 16.256V32H3.176ZM28.3505 13.664C27.6038 13.664 26.9852 13.44 26.4945 12.992C26.0252 12.544 25.7905 11.9787 25.7905 11.296C25.7905 10.6133 26.0252 10.0587 26.4945 9.632C26.9852 9.184 27.6038 8.96 28.3505 8.96C29.0972 8.96 29.7052 9.184 30.1745 9.632C30.6652 10.0587 30.9105 10.6133 30.9105 11.296C30.9105 11.9787 30.6652 12.544 30.1745 12.992C29.7052 13.44 29.0972 13.664 28.3505 13.664ZM26.3025 32V16.128H30.3985V32H26.3025ZM34.6738 32V8.96H38.7698V22.56L44.4018 16.128H49.2658L42.7698 23.36L50.3218 32H45.2018L38.7698 24.032V32H34.6738ZM59.2608 32.384C57.6608 32.384 56.2421 32.0427 55.0048 31.36C53.7674 30.6773 52.7968 29.7173 52.0928 28.48C51.3888 27.2427 51.0368 25.8133 51.0368 24.192C51.0368 22.5493 51.3781 21.088 52.0608 19.808C52.7648 18.528 53.7248 17.536 54.9408 16.832C56.1781 16.1067 57.6288 15.744 59.2928 15.744C60.8501 15.744 62.2261 16.0853 63.4208 16.768C64.6154 17.4507 65.5434 18.3893 66.2048 19.584C66.8874 20.7573 67.2288 22.0693 67.2288 23.52C67.2288 23.7547 67.2181 24 67.1968 24.256C67.1968 24.512 67.1861 24.7787 67.1648 25.056H55.1008C55.1861 26.2933 55.6128 27.264 56.3808 27.968C57.1701 28.672 58.1194 29.024 59.2288 29.024C60.0608 29.024 60.7541 28.8427 61.3088 28.48C61.8848 28.096 62.3114 27.6053 62.5888 27.008H66.7488C66.4501 28.0107 65.9488 28.928 65.2448 29.76C64.5621 30.5707 63.7088 31.2107 62.6848 31.68C61.6821 32.1493 60.5408 32.384 59.2608 32.384ZM59.2928 19.072C58.2901 19.072 57.4048 19.36 56.6368 19.936C55.8688 20.4907 55.3781 21.344 55.1648 22.496H63.0688C63.0048 21.4507 62.6208 20.6187 61.9168 20C61.2128 19.3813 60.3381 19.072 59.2928 19.072Z" fill="black"/>
<path d="M2.176 74V51.6H7.04L14.176 65.808L21.216 51.6H26.08V74H21.984V58.544L15.744 70.8H12.512L6.272 58.544V74H2.176ZM35.802 74.384C34.4367 74.384 33.3167 74.1707 32.442 73.744C31.5673 73.296 30.9167 72.7093 30.49 71.984C30.0633 71.2587 29.85 70.4587 29.85 69.584C29.85 68.112 30.426 66.9173 31.578 66C32.73 65.0827 34.458 64.624 36.762 64.624H40.794V64.24C40.794 63.152 40.4847 62.352 39.866 61.84C39.2473 61.328 38.4793 61.072 37.562 61.072C36.73 61.072 36.0047 61.2747 35.386 61.68C34.7673 62.064 34.3833 62.64 34.234 63.408H30.234C30.3407 62.256 30.7247 61.2533 31.386 60.4C32.0687 59.5467 32.9433 58.896 34.01 58.448C35.0767 57.9787 36.2713 57.744 37.594 57.744C39.8553 57.744 41.6367 58.3093 42.938 59.44C44.2393 60.5707 44.89 62.1707 44.89 64.24V74H41.402L41.018 71.44C40.5487 72.2933 39.8873 72.9973 39.034 73.552C38.202 74.1067 37.1247 74.384 35.802 74.384ZM36.73 71.184C37.9033 71.184 38.81 70.8 39.45 70.032C40.1113 69.264 40.5273 68.3147 40.698 67.184H37.21C36.122 67.184 35.3433 67.3867 34.874 67.792C34.4047 68.176 34.17 68.656 34.17 69.232C34.17 69.8507 34.4047 70.3307 34.874 70.672C35.3433 71.0133 35.962 71.184 36.73 71.184ZM47.2948 74L53.0548 66.064L47.2948 58.128H51.6788L55.7108 63.76L59.7108 58.128H64.1268L58.3348 66.064L64.1268 74H59.7108L55.7108 68.368L51.6788 74H47.2948Z" fill="black"/>
<path d="M76.736 32L84.928 9.6H89.536L97.728 32H93.376L91.584 26.816H82.848L81.024 32H76.736ZM83.968 23.616H90.464L87.2 14.304L83.968 23.616ZM102.726 13.664C101.979 13.664 101.36 13.44 100.87 12.992C100.4 12.544 100.166 11.9787 100.166 11.296C100.166 10.6133 100.4 10.0587 100.87 9.632C101.36 9.184 101.979 8.96 102.726 8.96C103.472 8.96 104.08 9.184 104.55 9.632C105.04 10.0587 105.286 10.6133 105.286 11.296C105.286 11.9787 105.04 12.544 104.55 12.992C104.08 13.44 103.472 13.664 102.726 13.664ZM100.678 32V16.128H104.774V32H100.678ZM109.049 32V16.128H112.697L113.081 19.104C113.657 18.08 114.435 17.2693 115.417 16.672C116.419 16.0533 117.593 15.744 118.937 15.744V20.064H117.785C116.889 20.064 116.089 20.2027 115.385 20.48C114.681 20.7573 114.126 21.2373 113.721 21.92C113.337 22.6027 113.145 23.552 113.145 24.768V32H109.049Z" fill="black"/>
</svg>
