<svg width="260" height="31" viewBox="0 0 260 31" fill="none" xmlns="http://www.w3.org/2000/svg">
<path opacity="0.1" fill-rule="evenodd" clip-rule="evenodd" d="M251.432 3.1072C250.877 2.85241 250.147 3.22752 249.538 3.26184V3.26184V3.26184C249.48 3.2651 249.467 3.34485 249.521 3.36689C251.893 4.34347 253.761 5.34754 255.096 6.3667C256.754 7.633 257.5 8.8517 257.5 10C257.5 11.1483 256.754 12.367 255.096 13.6333C253.448 14.8916 250.986 16.1269 247.768 17.3159C241.337 19.6917 232.002 21.8404 220.432 23.6481C197.302 27.2623 165.329 29.5 130 29.5C94.6714 29.5 62.6984 27.2623 39.5675 23.6481C27.9982 21.8404 18.6634 19.6917 12.2321 17.3159C9.01364 16.1269 6.55187 14.8916 4.90395 13.6333C3.24556 12.367 2.5 11.1483 2.5 10C2.5 8.8517 3.24556 7.633 4.90395 6.3667C6.55187 5.10839 9.01364 3.87309 12.2321 2.68412C13.3309 2.27822 14.5144 1.87894 15.7793 1.48687C16.0155 1.41366 16.0603 0.933806 15.9702 0.703542V0.703542C15.9103 0.550673 15.7534 0.448334 15.5965 0.496721C14.2726 0.905093 13.0343 1.32173 11.8856 1.74608C8.62696 2.94988 6.05929 4.22632 4.29706 5.57191C2.5453 6.90951 1.5 8.38688 1.5 10C1.5 11.6131 2.5453 13.0905 4.29706 14.4281C6.05929 15.7737 8.62696 17.0501 11.8856 18.2539C18.4086 20.6636 27.8191 22.8246 39.4131 24.6361C62.6092 28.2605 94.6362 30.5 130 30.5C165.364 30.5 197.391 28.2605 220.587 24.6361C232.181 22.8246 241.591 20.6636 248.114 18.2539C251.373 17.0501 253.941 15.7737 255.703 14.4281C257.455 13.0905 258.5 11.6131 258.5 10C258.5 8.38688 257.455 6.90951 255.703 5.57191C254.591 4.72249 253.157 3.90063 251.432 3.1072Z" fill="black"/>
<ellipse cx="130" cy="9" rx="75" ry="9" fill="url(#paint0_radial_682_82)" fill-opacity="0.14"/>
<circle cx="2" cy="9" r="2" fill="black"/>
<circle cx="258" cy="9" r="2" fill="black"/>
<defs>
<radialGradient id="paint0_radial_682_82" cx="0" cy="0" r="1" gradientUnits="userSpaceOnUse" gradientTransform="translate(130 9) rotate(90) scale(13.5 112.5)">
<stop/>
<stop offset="1" stop-opacity="0"/>
</radialGradient>
</defs>
</svg>
