<svg width="265" height="260" viewBox="0 0 265 260" fill="none" xmlns="http://www.w3.org/2000/svg">
<path d="M255.029 249.855C256.266 248.5 256.009 246.361 254.484 245.34L238.118 234.37C237.2 233.755 236.019 233.694 235.042 234.211L233.519 235.019C231.921 235.866 231.43 237.924 232.475 239.401L244.33 256.168C245.436 257.731 247.703 257.873 248.995 256.459L255.029 249.855Z" fill="white"/>
<path d="M9.09567 12.5447C7.85779 13.8996 8.1157 16.0385 9.64015 17.0602L31.5556 31.7495C32.4734 32.3646 33.6549 32.4255 34.6311 31.908L37.7914 30.2326C39.3896 29.3854 39.8801 27.327 38.8357 25.85L22.7083 3.04217C21.6028 1.47878 19.3355 1.33709 18.044 2.75068L9.09567 12.5447Z" fill="white"/>
<path d="M264.947 226.257C264.947 224.939 263.694 223.982 262.422 224.327L252.664 226.978C252.121 227.125 251.686 227.532 251.502 228.063C251.176 229.005 251.726 230.025 252.693 230.27L262.456 232.739C263.72 233.059 264.947 232.104 264.947 230.8V226.257Z" fill="black"/>
<path d="M0 41.7446C0 43.0488 1.2281 44.0041 2.49215 43.6831L16.1785 40.2084C16.816 40.0466 17.3332 39.5816 17.5618 38.9649L17.589 38.8914C18.0066 37.7646 17.3432 36.5266 16.1738 36.2501L2.46016 33.0078C1.20421 32.7109 0 33.6636 0 34.9542L0 41.7446Z" fill="black"/>
</svg>
