<svg width="293" height="157" viewBox="0 0 293 157" fill="none" xmlns="http://www.w3.org/2000/svg">
<path d="M61.36 10.6V31.112L46.384 10.6H45.424V33H46.448V12.488L61.488 33H62.384V10.6H61.36ZM70.3238 32.008V21.8H80.4998V20.808H70.3238V11.624H81.3318V10.6H69.2678V33H81.6838V32.008H70.3238ZM113.492 10.6L106.932 31.176L99.6355 11.464H99.0915L91.9235 31.176L85.2675 10.6H84.1475L91.4755 33H92.3395L99.3795 13.64L106.548 33H107.412L114.612 10.6H113.492ZM142.808 33H143.96L134.2 10.6H133.304L123.8 33H124.92L127.672 26.536H139.992L142.808 33ZM133.752 12.136L139.576 25.544H128.088L133.752 12.136ZM163.118 16.968C163.118 13.288 160.238 10.6 156.302 10.6H148.174V33H149.23V23.304H156.11L161.902 33H163.086L157.262 23.24C160.686 22.856 163.118 20.328 163.118 16.968ZM149.23 11.624H156.27C159.662 11.624 162.062 13.864 162.062 16.968C162.062 20.04 159.662 22.28 156.27 22.28H149.23V11.624ZM183.368 16.968C183.368 13.288 180.488 10.6 176.552 10.6H168.424V33H169.48V23.304H176.36L182.152 33H183.336L177.512 23.24C180.936 22.856 183.368 20.328 183.368 16.968ZM169.48 11.624H176.52C179.912 11.624 182.312 13.864 182.312 16.968C182.312 20.04 179.912 22.28 176.52 22.28H169.48V11.624ZM188.674 33H189.73V10.6H188.674V33ZM212.356 10.6L203.876 31.4L195.172 10.6H194.02L203.428 33H204.324L213.476 10.6H212.356ZM232.558 33H233.71L223.95 10.6H223.054L213.55 33H214.67L217.422 26.536H229.742L232.558 33ZM223.502 12.136L229.326 25.544H217.838L223.502 12.136ZM238.98 32.008V10.6H237.924V33H249.924V32.008H238.98Z" fill="black"/>
<path opacity="0.78" d="M33.2308 127.144C33.8068 127.144 34.3388 127.044 34.8268 126.844C35.3228 126.636 35.7508 126.352 36.1108 125.992C36.4788 125.624 36.7628 125.2 36.9628 124.72C37.1628 124.232 37.2628 123.708 37.2628 123.148V122.476H33.2308V123.172H36.4828V123.22C36.4828 123.828 36.3388 124.372 36.0508 124.852C35.7708 125.332 35.3868 125.712 34.8988 125.992C34.4108 126.264 33.8548 126.4 33.2308 126.4C32.5428 126.4 31.9308 126.24 31.3948 125.92C30.8668 125.592 30.4508 125.14 30.1468 124.564C29.8508 123.98 29.7028 123.304 29.7028 122.536C29.7028 121.76 29.8548 121.084 30.1588 120.508C30.4628 119.924 30.8788 119.468 31.4068 119.14C31.9428 118.812 32.5508 118.648 33.2308 118.648C33.9188 118.648 34.5068 118.812 34.9948 119.14C35.4908 119.46 35.8588 119.896 36.0988 120.448L36.8188 120.112C36.6748 119.752 36.4348 119.404 36.0988 119.068C35.7708 118.732 35.3628 118.456 34.8748 118.24C34.3948 118.024 33.8468 117.916 33.2308 117.916C32.6068 117.916 32.0308 118.032 31.5028 118.264C30.9828 118.488 30.5268 118.808 30.1348 119.224C29.7508 119.64 29.4508 120.128 29.2348 120.688C29.0268 121.248 28.9228 121.864 28.9228 122.536C28.9228 123.208 29.0268 123.824 29.2348 124.384C29.4508 124.944 29.7508 125.432 30.1348 125.848C30.5188 126.256 30.9748 126.576 31.5028 126.808C32.0308 127.032 32.6068 127.144 33.2308 127.144ZM41.6683 127.144C42.2843 127.144 42.8283 126.996 43.3003 126.7C43.7723 126.404 44.1163 126.032 44.3323 125.584L43.7203 125.26C43.5043 125.628 43.2243 125.924 42.8803 126.148C42.5363 126.364 42.1323 126.472 41.6683 126.472C41.2363 126.472 40.8363 126.372 40.4683 126.172C40.1083 125.964 39.8163 125.676 39.5923 125.308C39.3683 124.94 39.2483 124.516 39.2323 124.036H44.4403C44.4563 123.94 44.4683 123.848 44.4763 123.76C44.4843 123.672 44.4883 123.588 44.4883 123.508C44.4883 122.964 44.3643 122.464 44.1163 122.008C43.8763 121.552 43.5363 121.184 43.0963 120.904C42.6563 120.624 42.1443 120.484 41.5603 120.484C40.9843 120.484 40.4643 120.628 40.0003 120.916C39.5363 121.204 39.1683 121.6 38.8963 122.104C38.6243 122.6 38.4883 123.164 38.4883 123.796C38.4883 124.428 38.6283 125 38.9083 125.512C39.1883 126.016 39.5683 126.416 40.0483 126.712C40.5283 127 41.0683 127.144 41.6683 127.144ZM41.5603 121.156C41.9683 121.156 42.3363 121.256 42.6643 121.456C42.9923 121.648 43.2523 121.912 43.4443 122.248C43.6363 122.584 43.7283 122.96 43.7203 123.376H39.2443C39.2923 122.936 39.4243 122.552 39.6403 122.224C39.8563 121.888 40.1323 121.628 40.4683 121.444C40.8043 121.252 41.1683 121.156 41.5603 121.156ZM48.2815 127.072C48.3455 127.072 48.4335 127.064 48.5455 127.048C48.6575 127.04 48.7575 127.024 48.8455 127V126.352C48.7895 126.36 48.7135 126.368 48.6175 126.376C48.5295 126.384 48.4535 126.388 48.3895 126.388C48.1015 126.388 47.8815 126.336 47.7295 126.232C47.5775 126.128 47.4735 125.992 47.4175 125.824C47.3695 125.656 47.3455 125.484 47.3455 125.308V121.312H48.7375V120.628H47.3455V119.14H46.6255V119.824C46.6255 120.072 46.5575 120.268 46.4215 120.412C46.2935 120.556 46.1135 120.628 45.8815 120.628H45.4255V121.312H46.6255V125.308C46.6255 125.884 46.7655 126.324 47.0455 126.628C47.3335 126.924 47.7455 127.072 48.2815 127.072ZM52.0714 127H52.7914V117.916H52.0714V127ZM57.4907 127.144C58.0907 127.144 58.6347 127 59.1227 126.712C59.6107 126.424 59.9947 126.028 60.2747 125.524C60.5627 125.02 60.7067 124.448 60.7067 123.808C60.7067 123.168 60.5667 122.6 60.2867 122.104C60.0067 121.6 59.6227 121.204 59.1347 120.916C58.6547 120.628 58.1067 120.484 57.4907 120.484C56.8747 120.484 56.3227 120.628 55.8347 120.916C55.3467 121.204 54.9627 121.6 54.6827 122.104C54.4027 122.6 54.2627 123.168 54.2627 123.808C54.2627 124.44 54.4027 125.008 54.6827 125.512C54.9707 126.016 55.3587 126.416 55.8467 126.712C56.3347 127 56.8827 127.144 57.4907 127.144ZM57.4907 126.436C57.0347 126.436 56.6187 126.32 56.2427 126.088C55.8747 125.856 55.5787 125.544 55.3547 125.152C55.1387 124.752 55.0307 124.304 55.0307 123.808C55.0307 123.312 55.1387 122.868 55.3547 122.476C55.5707 122.076 55.8627 121.764 56.2307 121.54C56.6067 121.308 57.0267 121.192 57.4907 121.192C57.9547 121.192 58.3707 121.308 58.7387 121.54C59.1067 121.764 59.3987 122.076 59.6147 122.476C59.8307 122.868 59.9387 123.312 59.9387 123.808C59.9387 124.304 59.8307 124.752 59.6147 125.152C59.3987 125.544 59.1027 125.856 58.7267 126.088C58.3587 126.32 57.9467 126.436 57.4907 126.436ZM64.3449 127.144C64.7689 127.144 65.1489 127.068 65.4849 126.916C65.8209 126.756 66.0849 126.54 66.2769 126.268C66.4689 125.996 66.5649 125.688 66.5649 125.344C66.5649 124.92 66.4209 124.552 66.1329 124.24C65.8529 123.928 65.4529 123.7 64.9329 123.556L63.8649 123.244C63.6089 123.172 63.3769 123.06 63.1689 122.908C62.9609 122.748 62.8569 122.52 62.8569 122.224C62.8569 121.912 62.9769 121.656 63.2169 121.456C63.4569 121.248 63.7689 121.144 64.1529 121.144C64.5209 121.144 64.8569 121.248 65.1609 121.456C65.4649 121.656 65.7009 121.936 65.8689 122.296L66.5169 121.996C66.3409 121.532 66.0369 121.164 65.6049 120.892C65.1729 120.62 64.6929 120.484 64.1649 120.484C63.7889 120.484 63.4449 120.56 63.1329 120.712C62.8209 120.856 62.5729 121.064 62.3889 121.336C62.2049 121.6 62.1129 121.912 62.1129 122.272C62.1129 122.672 62.2409 123.02 62.4969 123.316C62.7609 123.604 63.1689 123.828 63.7209 123.988L64.7049 124.264C64.9849 124.344 65.2409 124.468 65.4729 124.636C65.7049 124.804 65.8209 125.044 65.8209 125.356C65.8209 125.692 65.6769 125.964 65.3889 126.172C65.1089 126.372 64.7609 126.472 64.3449 126.472C63.9369 126.472 63.5649 126.36 63.2289 126.136C62.8929 125.904 62.6249 125.592 62.4249 125.2L61.8009 125.488C62.0089 126 62.3369 126.404 62.7849 126.7C63.2409 126.996 63.7609 127.144 64.3449 127.144ZM70.3666 127.072C70.4306 127.072 70.5186 127.064 70.6306 127.048C70.7426 127.04 70.8426 127.024 70.9306 127V126.352C70.8746 126.36 70.7986 126.368 70.7026 126.376C70.6146 126.384 70.5386 126.388 70.4746 126.388C70.1866 126.388 69.9666 126.336 69.8146 126.232C69.6626 126.128 69.5586 125.992 69.5026 125.824C69.4546 125.656 69.4306 125.484 69.4306 125.308V121.312H70.8226V120.628H69.4306V119.14H68.7106V119.824C68.7106 120.072 68.6426 120.268 68.5066 120.412C68.3786 120.556 68.1986 120.628 67.9666 120.628H67.5106V121.312H68.7106V125.308C68.7106 125.884 68.8506 126.324 69.1306 126.628C69.4186 126.924 69.8306 127.072 70.3666 127.072ZM74.1566 119.38H74.8766V118.06H74.1566V119.38ZM74.1566 127H74.8766V120.628H74.1566V127ZM76.6119 127H77.3319V123.16C77.3319 122.584 77.4919 122.112 77.8119 121.744C78.1399 121.376 78.5759 121.192 79.1199 121.192C79.6319 121.192 80.0559 121.356 80.3919 121.684C80.7279 122.012 80.8959 122.464 80.8959 123.04V127H81.6159V122.836C81.6159 122.372 81.5079 121.964 81.2919 121.612C81.0759 121.26 80.7879 120.984 80.4279 120.784C80.0679 120.584 79.6679 120.484 79.2279 120.484C78.8199 120.484 78.4479 120.572 78.1119 120.748C77.7759 120.924 77.5159 121.168 77.3319 121.48V120.628H76.6119V127ZM86.3715 127H87.1035L88.6875 121.732L90.2595 127H90.9915L93.1875 120.628H92.3835L90.6315 125.908L89.0475 120.628H88.3155L86.7315 125.908L84.9915 120.628H84.1875L86.3715 127ZM96.9848 127.144C97.5848 127.144 98.1288 127 98.6168 126.712C99.1048 126.424 99.4888 126.028 99.7688 125.524C100.057 125.02 100.201 124.448 100.201 123.808C100.201 123.168 100.061 122.6 99.7808 122.104C99.5008 121.6 99.1168 121.204 98.6288 120.916C98.1488 120.628 97.6008 120.484 96.9848 120.484C96.3688 120.484 95.8168 120.628 95.3288 120.916C94.8408 121.204 94.4568 121.6 94.1768 122.104C93.8968 122.6 93.7568 123.168 93.7568 123.808C93.7568 124.44 93.8968 125.008 94.1768 125.512C94.4648 126.016 94.8528 126.416 95.3408 126.712C95.8288 127 96.3768 127.144 96.9848 127.144ZM96.9848 126.436C96.5288 126.436 96.1128 126.32 95.7368 126.088C95.3688 125.856 95.0728 125.544 94.8488 125.152C94.6328 124.752 94.5248 124.304 94.5248 123.808C94.5248 123.312 94.6328 122.868 94.8488 122.476C95.0648 122.076 95.3568 121.764 95.7248 121.54C96.1008 121.308 96.5208 121.192 96.9848 121.192C97.4488 121.192 97.8648 121.308 98.2328 121.54C98.6008 121.764 98.8928 122.076 99.1088 122.476C99.3248 122.868 99.4328 123.312 99.4328 123.808C99.4328 124.304 99.3248 124.752 99.1088 125.152C98.8928 125.544 98.5968 125.856 98.2208 126.088C97.8528 126.32 97.4408 126.436 96.9848 126.436ZM101.691 127H102.411V123.1C102.411 122.54 102.559 122.096 102.855 121.768C103.159 121.432 103.567 121.264 104.079 121.264H104.571V120.544H104.163C103.771 120.544 103.423 120.624 103.119 120.784C102.815 120.936 102.579 121.152 102.411 121.432V120.628H101.691V127ZM105.517 127H106.237V117.916H105.517V127ZM110.841 127.144C111.377 127.144 111.861 127.024 112.293 126.784C112.733 126.536 113.073 126.204 113.313 125.788V127H114.033V117.916H113.313V121.804C113.057 121.396 112.713 121.076 112.281 120.844C111.857 120.604 111.377 120.484 110.841 120.484C110.249 120.484 109.713 120.632 109.233 120.928C108.761 121.216 108.389 121.612 108.117 122.116C107.845 122.612 107.709 123.176 107.709 123.808C107.709 124.44 107.845 125.008 108.117 125.512C108.389 126.016 108.761 126.416 109.233 126.712C109.705 127 110.241 127.144 110.841 127.144ZM110.865 126.424C110.409 126.424 110.001 126.312 109.641 126.088C109.281 125.856 108.997 125.544 108.789 125.152C108.581 124.752 108.477 124.304 108.477 123.808C108.477 123.312 108.581 122.868 108.789 122.476C108.997 122.084 109.281 121.776 109.641 121.552C110.001 121.32 110.409 121.204 110.865 121.204C111.329 121.204 111.741 121.32 112.101 121.552C112.469 121.776 112.761 122.084 112.977 122.476C113.193 122.868 113.301 123.312 113.301 123.808C113.301 124.304 113.193 124.752 112.977 125.152C112.761 125.544 112.469 125.856 112.101 126.088C111.741 126.312 111.329 126.424 110.865 126.424ZM120.488 127.144C121.088 127.144 121.632 127 122.12 126.712C122.608 126.424 122.992 126.028 123.272 125.524C123.56 125.02 123.704 124.448 123.704 123.808C123.704 123.168 123.564 122.6 123.284 122.104C123.004 121.6 122.62 121.204 122.132 120.916C121.652 120.628 121.104 120.484 120.488 120.484C119.872 120.484 119.32 120.628 118.832 120.916C118.344 121.204 117.96 121.6 117.68 122.104C117.4 122.6 117.26 123.168 117.26 123.808C117.26 124.44 117.4 125.008 117.68 125.512C117.968 126.016 118.356 126.416 118.844 126.712C119.332 127 119.88 127.144 120.488 127.144ZM120.488 126.436C120.032 126.436 119.616 126.32 119.24 126.088C118.872 125.856 118.576 125.544 118.352 125.152C118.136 124.752 118.028 124.304 118.028 123.808C118.028 123.312 118.136 122.868 118.352 122.476C118.568 122.076 118.86 121.764 119.228 121.54C119.604 121.308 120.024 121.192 120.488 121.192C120.952 121.192 121.368 121.308 121.736 121.54C122.104 121.764 122.396 122.076 122.612 122.476C122.828 122.868 122.936 123.312 122.936 123.808C122.936 124.304 122.828 124.752 122.612 125.152C122.396 125.544 122.1 125.856 121.724 126.088C121.356 126.32 120.944 126.436 120.488 126.436ZM125.549 127H126.269V121.312H127.853V120.628H126.269V120.016C126.269 119.536 126.397 119.18 126.653 118.948C126.909 118.708 127.245 118.588 127.661 118.588C127.717 118.588 127.789 118.592 127.877 118.6C127.965 118.6 128.037 118.608 128.093 118.624V117.976C127.949 117.936 127.781 117.916 127.589 117.916C127.213 117.916 126.869 118 126.557 118.168C126.245 118.328 125.997 118.564 125.813 118.876C125.637 119.188 125.549 119.568 125.549 120.016V120.628H124.253V121.312H125.549V127ZM131.066 127H131.786V123.16C131.786 122.584 131.946 122.112 132.266 121.744C132.586 121.376 133.002 121.192 133.514 121.192C133.994 121.192 134.398 121.356 134.726 121.684C135.062 122.012 135.23 122.464 135.23 123.04V127H135.95V123.16C135.95 122.584 136.11 122.112 136.43 121.744C136.758 121.376 137.178 121.192 137.69 121.192C138.162 121.192 138.566 121.356 138.902 121.684C139.238 122.012 139.406 122.464 139.406 123.04V127H140.126V122.836C140.126 122.372 140.014 121.964 139.79 121.612C139.574 121.26 139.286 120.984 138.926 120.784C138.574 120.584 138.186 120.484 137.762 120.484C137.314 120.484 136.902 120.6 136.526 120.832C136.158 121.056 135.886 121.364 135.71 121.756C135.518 121.372 135.234 121.064 134.858 120.832C134.482 120.6 134.07 120.484 133.622 120.484C133.23 120.484 132.87 120.572 132.542 120.748C132.222 120.924 131.97 121.164 131.786 121.468V120.628H131.066V127ZM143.992 127.144C144.408 127.144 144.78 127.056 145.108 126.88C145.444 126.696 145.704 126.452 145.888 126.148V127H146.608V120.628H145.888V124.456C145.888 125.04 145.728 125.516 145.408 125.884C145.088 126.252 144.652 126.436 144.1 126.436C143.596 126.436 143.172 126.276 142.828 125.956C142.492 125.636 142.324 125.196 142.324 124.636V120.628H141.604V124.696C141.604 125.192 141.712 125.624 141.928 125.992C142.152 126.36 142.444 126.644 142.804 126.844C143.164 127.044 143.56 127.144 143.992 127.144ZM150.511 127.144C150.935 127.144 151.315 127.068 151.651 126.916C151.987 126.756 152.251 126.54 152.443 126.268C152.635 125.996 152.731 125.688 152.731 125.344C152.731 124.92 152.587 124.552 152.299 124.24C152.019 123.928 151.619 123.7 151.099 123.556L150.031 123.244C149.775 123.172 149.543 123.06 149.335 122.908C149.127 122.748 149.023 122.52 149.023 122.224C149.023 121.912 149.143 121.656 149.383 121.456C149.623 121.248 149.935 121.144 150.319 121.144C150.687 121.144 151.023 121.248 151.327 121.456C151.631 121.656 151.867 121.936 152.035 122.296L152.683 121.996C152.507 121.532 152.203 121.164 151.771 120.892C151.339 120.62 150.859 120.484 150.331 120.484C149.955 120.484 149.611 120.56 149.299 120.712C148.987 120.856 148.739 121.064 148.555 121.336C148.371 121.6 148.279 121.912 148.279 122.272C148.279 122.672 148.407 123.02 148.663 123.316C148.927 123.604 149.335 123.828 149.887 123.988L150.871 124.264C151.151 124.344 151.407 124.468 151.639 124.636C151.871 124.804 151.987 125.044 151.987 125.356C151.987 125.692 151.843 125.964 151.555 126.172C151.275 126.372 150.927 126.472 150.511 126.472C150.103 126.472 149.731 126.36 149.395 126.136C149.059 125.904 148.791 125.592 148.591 125.2L147.967 125.488C148.175 126 148.503 126.404 148.951 126.7C149.407 126.996 149.927 127.144 150.511 127.144ZM154.217 119.38H154.937V118.06H154.217V119.38ZM154.217 127H154.937V120.628H154.217V127ZM159.576 127.144C159.968 127.144 160.336 127.076 160.68 126.94C161.024 126.796 161.328 126.608 161.592 126.376C161.856 126.136 162.056 125.868 162.192 125.572L161.556 125.224C161.364 125.6 161.096 125.896 160.752 126.112C160.416 126.328 160.024 126.436 159.576 126.436C159.12 126.436 158.708 126.324 158.34 126.1C157.98 125.876 157.692 125.568 157.476 125.176C157.26 124.776 157.152 124.32 157.152 123.808C157.152 123.288 157.26 122.832 157.476 122.44C157.692 122.048 157.98 121.74 158.34 121.516C158.708 121.292 159.12 121.18 159.576 121.18C160.024 121.18 160.416 121.288 160.752 121.504C161.096 121.72 161.364 122.012 161.556 122.38L162.192 122.044C161.984 121.596 161.644 121.224 161.172 120.928C160.7 120.632 160.168 120.484 159.576 120.484C158.968 120.484 158.424 120.628 157.944 120.916C157.472 121.204 157.096 121.6 156.816 122.104C156.544 122.6 156.408 123.168 156.408 123.808C156.408 124.44 156.544 125.008 156.816 125.512C157.096 126.016 157.472 126.416 157.944 126.712C158.424 127 158.968 127.144 159.576 127.144ZM166.807 127H167.539L169.123 121.732L170.695 127H171.427L173.623 120.628H172.819L171.067 125.908L169.483 120.628H168.751L167.167 125.908L165.427 120.628H164.623L166.807 127ZM174.573 119.38H175.293V118.06H174.573V119.38ZM174.573 127H175.293V120.628H174.573V127ZM179.344 127.072C179.408 127.072 179.496 127.064 179.608 127.048C179.72 127.04 179.82 127.024 179.908 127V126.352C179.852 126.36 179.776 126.368 179.68 126.376C179.592 126.384 179.516 126.388 179.452 126.388C179.164 126.388 178.944 126.336 178.792 126.232C178.64 126.128 178.536 125.992 178.48 125.824C178.432 125.656 178.408 125.484 178.408 125.308V121.312H179.8V120.628H178.408V119.14H177.688V119.824C177.688 120.072 177.62 120.268 177.484 120.412C177.356 120.556 177.176 120.628 176.944 120.628H176.488V121.312H177.688V125.308C177.688 125.884 177.828 126.324 178.108 126.628C178.396 126.924 178.808 127.072 179.344 127.072ZM181.394 127H182.114V123.16C182.114 122.584 182.278 122.112 182.606 121.744C182.934 121.376 183.366 121.192 183.902 121.192C184.406 121.192 184.826 121.356 185.162 121.684C185.506 122.012 185.678 122.464 185.678 123.04V127H186.398V122.836C186.398 122.372 186.29 121.964 186.074 121.612C185.858 121.26 185.57 120.984 185.21 120.784C184.85 120.584 184.45 120.484 184.01 120.484C183.602 120.484 183.23 120.572 182.894 120.748C182.558 120.924 182.298 121.168 182.114 121.48V117.916H181.394V127ZM192.666 127.144C193.058 127.144 193.426 127.076 193.77 126.94C194.114 126.796 194.418 126.608 194.682 126.376C194.946 126.136 195.146 125.868 195.282 125.572L194.646 125.224C194.454 125.6 194.186 125.896 193.842 126.112C193.506 126.328 193.114 126.436 192.666 126.436C192.21 126.436 191.798 126.324 191.43 126.1C191.07 125.876 190.782 125.568 190.566 125.176C190.35 124.776 190.242 124.32 190.242 123.808C190.242 123.288 190.35 122.832 190.566 122.44C190.782 122.048 191.07 121.74 191.43 121.516C191.798 121.292 192.21 121.18 192.666 121.18C193.114 121.18 193.506 121.288 193.842 121.504C194.186 121.72 194.454 122.012 194.646 122.38L195.282 122.044C195.074 121.596 194.734 121.224 194.262 120.928C193.79 120.632 193.258 120.484 192.666 120.484C192.058 120.484 191.514 120.628 191.034 120.916C190.562 121.204 190.186 121.6 189.906 122.104C189.634 122.6 189.498 123.168 189.498 123.808C189.498 124.44 189.634 125.008 189.906 125.512C190.186 126.016 190.562 126.416 191.034 126.712C191.514 127 192.058 127.144 192.666 127.144ZM196.764 127H197.484V123.16C197.484 122.584 197.648 122.112 197.976 121.744C198.304 121.376 198.736 121.192 199.272 121.192C199.776 121.192 200.196 121.356 200.532 121.684C200.876 122.012 201.048 122.464 201.048 123.04V127H201.768V122.836C201.768 122.372 201.66 121.964 201.444 121.612C201.228 121.26 200.94 120.984 200.58 120.784C200.22 120.584 199.82 120.484 199.38 120.484C198.972 120.484 198.6 120.572 198.264 120.748C197.928 120.924 197.668 121.168 197.484 121.48V117.916H196.764V127ZM203.391 119.38H204.111V118.06H203.391V119.38ZM203.391 127H204.111V120.628H203.391V127ZM205.846 127H206.566V117.916H205.846V127ZM208.302 127H209.022V117.916H208.302V127ZM210.997 127H211.813V125.8H210.997V127ZM215.682 127H216.462V123.46H218.826L220.83 127H221.754L219.642 123.328C220.234 123.168 220.702 122.86 221.046 122.404C221.39 121.948 221.562 121.4 221.562 120.76C221.562 120.224 221.438 119.756 221.19 119.356C220.95 118.948 220.614 118.632 220.182 118.408C219.75 118.176 219.25 118.06 218.682 118.06H215.682V127ZM216.462 122.74V118.78H218.706C219.322 118.78 219.822 118.96 220.206 119.32C220.59 119.68 220.782 120.156 220.782 120.748C220.782 121.348 220.59 121.832 220.206 122.2C219.822 122.56 219.322 122.74 218.706 122.74H216.462ZM225.515 127.144C226.131 127.144 226.675 126.996 227.147 126.7C227.619 126.404 227.963 126.032 228.179 125.584L227.567 125.26C227.351 125.628 227.071 125.924 226.727 126.148C226.383 126.364 225.979 126.472 225.515 126.472C225.083 126.472 224.683 126.372 224.315 126.172C223.955 125.964 223.663 125.676 223.439 125.308C223.215 124.94 223.095 124.516 223.079 124.036H228.287C228.303 123.94 228.315 123.848 228.323 123.76C228.331 123.672 228.335 123.588 228.335 123.508C228.335 122.964 228.211 122.464 227.963 122.008C227.723 121.552 227.383 121.184 226.943 120.904C226.503 120.624 225.991 120.484 225.407 120.484C224.831 120.484 224.311 120.628 223.847 120.916C223.383 121.204 223.015 121.6 222.743 122.104C222.471 122.6 222.335 123.164 222.335 123.796C222.335 124.428 222.475 125 222.755 125.512C223.035 126.016 223.415 126.416 223.895 126.712C224.375 127 224.915 127.144 225.515 127.144ZM225.407 121.156C225.815 121.156 226.183 121.256 226.511 121.456C226.839 121.648 227.099 121.912 227.291 122.248C227.483 122.584 227.575 122.96 227.567 123.376H223.091C223.139 122.936 223.271 122.552 223.487 122.224C223.703 121.888 223.979 121.628 224.315 121.444C224.651 121.252 225.015 121.156 225.407 121.156ZM229.812 127H230.532V117.916H229.812V127ZM232.268 119.38H232.988V118.06H232.268V119.38ZM232.268 127H232.988V120.628H232.268V127ZM237.639 127.144C238.255 127.144 238.799 126.996 239.271 126.7C239.743 126.404 240.087 126.032 240.303 125.584L239.691 125.26C239.475 125.628 239.195 125.924 238.851 126.148C238.507 126.364 238.103 126.472 237.639 126.472C237.207 126.472 236.807 126.372 236.439 126.172C236.079 125.964 235.787 125.676 235.563 125.308C235.339 124.94 235.219 124.516 235.203 124.036H240.411C240.427 123.94 240.439 123.848 240.447 123.76C240.455 123.672 240.459 123.588 240.459 123.508C240.459 122.964 240.335 122.464 240.087 122.008C239.847 121.552 239.507 121.184 239.067 120.904C238.627 120.624 238.115 120.484 237.531 120.484C236.955 120.484 236.435 120.628 235.971 120.916C235.507 121.204 235.139 121.6 234.867 122.104C234.595 122.6 234.459 123.164 234.459 123.796C234.459 124.428 234.599 125 234.879 125.512C235.159 126.016 235.539 126.416 236.019 126.712C236.499 127 237.039 127.144 237.639 127.144ZM237.531 121.156C237.939 121.156 238.307 121.256 238.635 121.456C238.963 121.648 239.223 121.912 239.415 122.248C239.607 122.584 239.699 122.96 239.691 123.376H235.215C235.263 122.936 235.395 122.552 235.611 122.224C235.827 121.888 236.103 121.628 236.439 121.444C236.775 121.252 237.139 121.156 237.531 121.156ZM243.643 127.144C244.179 127.144 244.655 127.024 245.071 126.784C245.495 126.536 245.803 126.24 245.995 125.896V127H246.715V122.596C246.715 122.18 246.611 121.816 246.403 121.504C246.203 121.184 245.927 120.936 245.575 120.76C245.223 120.576 244.815 120.484 244.351 120.484C243.983 120.484 243.635 120.548 243.307 120.676C242.979 120.804 242.691 120.976 242.443 121.192C242.195 121.408 242.011 121.644 241.891 121.9L242.539 122.248C242.707 121.92 242.951 121.66 243.271 121.468C243.591 121.268 243.951 121.168 244.351 121.168C244.839 121.168 245.235 121.3 245.539 121.564C245.843 121.828 245.995 122.172 245.995 122.596V122.956L243.607 123.352C242.871 123.48 242.343 123.728 242.023 124.096C241.711 124.464 241.555 124.88 241.555 125.344C241.555 125.696 241.647 126.008 241.831 126.28C242.015 126.552 242.263 126.764 242.575 126.916C242.895 127.068 243.251 127.144 243.643 127.144ZM242.311 125.32C242.311 125 242.423 124.72 242.647 124.48C242.871 124.24 243.255 124.076 243.799 123.988L245.995 123.628V124.18C245.995 124.596 245.899 124.98 245.707 125.332C245.515 125.684 245.247 125.964 244.903 126.172C244.559 126.38 244.155 126.484 243.691 126.484C243.299 126.484 242.971 126.376 242.707 126.16C242.443 125.944 242.311 125.664 242.311 125.32ZM251.65 127.144C252.25 127.144 252.786 127 253.258 126.712C253.73 126.416 254.102 126.016 254.374 125.512C254.646 125.008 254.782 124.44 254.782 123.808C254.782 123.176 254.646 122.612 254.374 122.116C254.102 121.612 253.73 121.216 253.258 120.928C252.786 120.632 252.25 120.484 251.65 120.484C251.114 120.484 250.63 120.604 250.198 120.844C249.774 121.076 249.434 121.396 249.178 121.804V117.916H248.458V127H249.178V125.788C249.418 126.204 249.754 126.536 250.186 126.784C250.626 127.024 251.114 127.144 251.65 127.144ZM251.626 126.424C251.17 126.424 250.758 126.312 250.39 126.088C250.022 125.856 249.73 125.544 249.514 125.152C249.298 124.752 249.19 124.304 249.19 123.808C249.19 123.312 249.298 122.868 249.514 122.476C249.73 122.084 250.022 121.776 250.39 121.552C250.758 121.32 251.17 121.204 251.626 121.204C252.082 121.204 252.49 121.32 252.85 121.552C253.21 121.776 253.494 122.084 253.702 122.476C253.91 122.868 254.014 123.312 254.014 123.808C254.014 124.304 253.91 124.752 253.702 125.152C253.494 125.544 253.21 125.856 252.85 126.088C252.498 126.312 252.09 126.424 251.626 126.424ZM256.269 127H256.989V117.916H256.269V127ZM261.64 127.144C262.256 127.144 262.8 126.996 263.272 126.7C263.744 126.404 264.088 126.032 264.304 125.584L263.692 125.26C263.476 125.628 263.196 125.924 262.852 126.148C262.508 126.364 262.104 126.472 261.64 126.472C261.208 126.472 260.808 126.372 260.44 126.172C260.08 125.964 259.788 125.676 259.564 125.308C259.34 124.94 259.22 124.516 259.204 124.036H264.412C264.428 123.94 264.44 123.848 264.448 123.76C264.456 123.672 264.46 123.588 264.46 123.508C264.46 122.964 264.336 122.464 264.088 122.008C263.848 121.552 263.508 121.184 263.068 120.904C262.628 120.624 262.116 120.484 261.532 120.484C260.956 120.484 260.436 120.628 259.972 120.916C259.508 121.204 259.14 121.6 258.868 122.104C258.596 122.6 258.46 123.164 258.46 123.796C258.46 124.428 258.6 125 258.88 125.512C259.16 126.016 259.54 126.416 260.02 126.712C260.5 127 261.04 127.144 261.64 127.144ZM261.532 121.156C261.94 121.156 262.308 121.256 262.636 121.456C262.964 121.648 263.224 121.912 263.416 122.248C263.608 122.584 263.7 122.96 263.692 123.376H259.216C259.264 122.936 259.396 122.552 259.612 122.224C259.828 121.888 260.104 121.628 260.44 121.444C260.776 121.252 261.14 121.156 261.532 121.156ZM83.8229 150H87.5069C88.3869 150 89.0709 149.768 89.5589 149.304C90.0549 148.84 90.3029 148.22 90.3029 147.444C90.3029 146.948 90.1709 146.5 89.9069 146.1C89.6429 145.7 89.2829 145.404 88.8269 145.212C89.1789 145.028 89.4509 144.772 89.6429 144.444C89.8429 144.108 89.9429 143.728 89.9429 143.304C89.9429 142.864 89.8389 142.476 89.6309 142.14C89.4309 141.804 89.1469 141.54 88.7789 141.348C88.4189 141.156 87.9949 141.06 87.5069 141.06H83.8229V150ZM84.6029 144.924V141.78H87.4349C87.9709 141.78 88.3909 141.916 88.6949 142.188C89.0069 142.46 89.1629 142.836 89.1629 143.316C89.1629 143.796 89.0029 144.184 88.6829 144.48C88.3709 144.776 87.9549 144.924 87.4349 144.924H84.6029ZM84.6029 149.28V145.632H87.5189C88.1269 145.632 88.6109 145.8 88.9709 146.136C89.3389 146.464 89.5229 146.904 89.5229 147.456C89.5229 148.016 89.3349 148.46 88.9589 148.788C88.5909 149.116 88.0909 149.28 87.4589 149.28H84.6029ZM91.783 150H92.503V140.916H91.783V150ZM96.4943 150.144C96.9103 150.144 97.2823 150.056 97.6103 149.88C97.9463 149.696 98.2063 149.452 98.3903 149.148V150H99.1103V143.628H98.3903V147.456C98.3903 148.04 98.2303 148.516 97.9103 148.884C97.5903 149.252 97.1543 149.436 96.6023 149.436C96.0983 149.436 95.6743 149.276 95.3303 148.956C94.9943 148.636 94.8263 148.196 94.8263 147.636V143.628H94.1063V147.696C94.1063 148.192 94.2143 148.624 94.4303 148.992C94.6543 149.36 94.9463 149.644 95.3063 149.844C95.6663 150.044 96.0623 150.144 96.4943 150.144ZM103.781 150.144C104.397 150.144 104.941 149.996 105.413 149.7C105.885 149.404 106.229 149.032 106.445 148.584L105.833 148.26C105.617 148.628 105.337 148.924 104.993 149.148C104.649 149.364 104.245 149.472 103.781 149.472C103.349 149.472 102.949 149.372 102.581 149.172C102.221 148.964 101.929 148.676 101.705 148.308C101.481 147.94 101.361 147.516 101.345 147.036H106.553C106.569 146.94 106.581 146.848 106.589 146.76C106.597 146.672 106.601 146.588 106.601 146.508C106.601 145.964 106.477 145.464 106.229 145.008C105.989 144.552 105.649 144.184 105.209 143.904C104.769 143.624 104.257 143.484 103.673 143.484C103.097 143.484 102.577 143.628 102.113 143.916C101.649 144.204 101.281 144.6 101.009 145.104C100.737 145.6 100.601 146.164 100.601 146.796C100.601 147.428 100.741 148 101.021 148.512C101.301 149.016 101.681 149.416 102.161 149.712C102.641 150 103.181 150.144 103.781 150.144ZM103.673 144.156C104.081 144.156 104.449 144.256 104.777 144.456C105.105 144.648 105.365 144.912 105.557 145.248C105.749 145.584 105.841 145.96 105.833 146.376H101.357C101.405 145.936 101.537 145.552 101.753 145.224C101.969 144.888 102.245 144.628 102.581 144.444C102.917 144.252 103.281 144.156 103.673 144.156ZM110.395 150.072C110.459 150.072 110.547 150.064 110.659 150.048C110.771 150.04 110.871 150.024 110.959 150V149.352C110.903 149.36 110.827 149.368 110.731 149.376C110.643 149.384 110.567 149.388 110.503 149.388C110.215 149.388 109.995 149.336 109.843 149.232C109.691 149.128 109.587 148.992 109.531 148.824C109.483 148.656 109.459 148.484 109.459 148.308V144.312H110.851V143.628H109.459V142.14H108.739V142.824C108.739 143.072 108.671 143.268 108.535 143.412C108.407 143.556 108.227 143.628 107.995 143.628H107.539V144.312H108.739V148.308C108.739 148.884 108.879 149.324 109.159 149.628C109.447 149.924 109.859 150.072 110.395 150.072ZM115.174 150.144C115.774 150.144 116.318 150 116.806 149.712C117.294 149.424 117.678 149.028 117.958 148.524C118.246 148.02 118.39 147.448 118.39 146.808C118.39 146.168 118.25 145.6 117.97 145.104C117.69 144.6 117.306 144.204 116.818 143.916C116.338 143.628 115.79 143.484 115.174 143.484C114.558 143.484 114.006 143.628 113.518 143.916C113.03 144.204 112.646 144.6 112.366 145.104C112.086 145.6 111.946 146.168 111.946 146.808C111.946 147.44 112.086 148.008 112.366 148.512C112.654 149.016 113.042 149.416 113.53 149.712C114.018 150 114.566 150.144 115.174 150.144ZM115.174 149.436C114.718 149.436 114.302 149.32 113.926 149.088C113.558 148.856 113.262 148.544 113.038 148.152C112.822 147.752 112.714 147.304 112.714 146.808C112.714 146.312 112.822 145.868 113.038 145.476C113.254 145.076 113.546 144.764 113.914 144.54C114.29 144.308 114.71 144.192 115.174 144.192C115.638 144.192 116.054 144.308 116.422 144.54C116.79 144.764 117.082 145.076 117.298 145.476C117.514 145.868 117.622 146.312 117.622 146.808C117.622 147.304 117.514 147.752 117.298 148.152C117.082 148.544 116.786 148.856 116.41 149.088C116.042 149.32 115.63 149.436 115.174 149.436ZM122.844 150.144C123.444 150.144 123.988 150 124.476 149.712C124.964 149.424 125.348 149.028 125.628 148.524C125.916 148.02 126.06 147.448 126.06 146.808C126.06 146.168 125.92 145.6 125.64 145.104C125.36 144.6 124.976 144.204 124.488 143.916C124.008 143.628 123.46 143.484 122.844 143.484C122.228 143.484 121.676 143.628 121.188 143.916C120.7 144.204 120.316 144.6 120.036 145.104C119.756 145.6 119.616 146.168 119.616 146.808C119.616 147.44 119.756 148.008 120.036 148.512C120.324 149.016 120.712 149.416 121.2 149.712C121.688 150 122.236 150.144 122.844 150.144ZM122.844 149.436C122.388 149.436 121.972 149.32 121.596 149.088C121.228 148.856 120.932 148.544 120.708 148.152C120.492 147.752 120.384 147.304 120.384 146.808C120.384 146.312 120.492 145.868 120.708 145.476C120.924 145.076 121.216 144.764 121.584 144.54C121.96 144.308 122.38 144.192 122.844 144.192C123.308 144.192 123.724 144.308 124.092 144.54C124.46 144.764 124.752 145.076 124.968 145.476C125.184 145.868 125.292 146.312 125.292 146.808C125.292 147.304 125.184 147.752 124.968 148.152C124.752 148.544 124.456 148.856 124.08 149.088C123.712 149.32 123.3 149.436 122.844 149.436ZM129.749 150.072C129.813 150.072 129.901 150.064 130.013 150.048C130.125 150.04 130.225 150.024 130.313 150V149.352C130.257 149.36 130.181 149.368 130.085 149.376C129.997 149.384 129.921 149.388 129.857 149.388C129.569 149.388 129.349 149.336 129.197 149.232C129.045 149.128 128.941 148.992 128.885 148.824C128.837 148.656 128.813 148.484 128.813 148.308V144.312H130.205V143.628H128.813V142.14H128.093V142.824C128.093 143.072 128.025 143.268 127.889 143.412C127.761 143.556 127.581 143.628 127.349 143.628H126.893V144.312H128.093V148.308C128.093 148.884 128.233 149.324 128.513 149.628C128.801 149.924 129.213 150.072 129.749 150.072ZM131.798 150H132.518V146.16C132.518 145.584 132.682 145.112 133.01 144.744C133.338 144.376 133.77 144.192 134.306 144.192C134.81 144.192 135.23 144.356 135.566 144.684C135.91 145.012 136.082 145.464 136.082 146.04V150H136.802V145.836C136.802 145.372 136.694 144.964 136.478 144.612C136.262 144.26 135.974 143.984 135.614 143.784C135.254 143.584 134.854 143.484 134.414 143.484C134.006 143.484 133.634 143.572 133.298 143.748C132.962 143.924 132.702 144.168 132.518 144.48V140.916H131.798V150ZM142.038 150H142.818V145.848H147.858V150H148.638V141.06H147.858V145.128H142.818V141.06H142.038V150ZM153.43 150.144C154.046 150.144 154.59 149.996 155.062 149.7C155.534 149.404 155.878 149.032 156.094 148.584L155.482 148.26C155.266 148.628 154.986 148.924 154.642 149.148C154.298 149.364 153.894 149.472 153.43 149.472C152.998 149.472 152.598 149.372 152.23 149.172C151.87 148.964 151.578 148.676 151.354 148.308C151.13 147.94 151.01 147.516 150.994 147.036H156.202C156.218 146.94 156.23 146.848 156.238 146.76C156.246 146.672 156.25 146.588 156.25 146.508C156.25 145.964 156.126 145.464 155.878 145.008C155.638 144.552 155.298 144.184 154.858 143.904C154.418 143.624 153.906 143.484 153.322 143.484C152.746 143.484 152.226 143.628 151.762 143.916C151.298 144.204 150.93 144.6 150.658 145.104C150.386 145.6 150.25 146.164 150.25 146.796C150.25 147.428 150.39 148 150.67 148.512C150.95 149.016 151.33 149.416 151.81 149.712C152.29 150 152.83 150.144 153.43 150.144ZM153.322 144.156C153.73 144.156 154.098 144.256 154.426 144.456C154.754 144.648 155.014 144.912 155.206 145.248C155.398 145.584 155.49 145.96 155.482 146.376H151.006C151.054 145.936 151.186 145.552 151.402 145.224C151.618 144.888 151.894 144.628 152.23 144.444C152.566 144.252 152.93 144.156 153.322 144.156ZM159.434 150.144C159.97 150.144 160.446 150.024 160.862 149.784C161.286 149.536 161.594 149.24 161.786 148.896V150H162.506V145.596C162.506 145.18 162.402 144.816 162.194 144.504C161.994 144.184 161.718 143.936 161.366 143.76C161.014 143.576 160.606 143.484 160.142 143.484C159.774 143.484 159.426 143.548 159.098 143.676C158.77 143.804 158.482 143.976 158.234 144.192C157.986 144.408 157.802 144.644 157.682 144.9L158.33 145.248C158.498 144.92 158.742 144.66 159.062 144.468C159.382 144.268 159.742 144.168 160.142 144.168C160.63 144.168 161.026 144.3 161.33 144.564C161.634 144.828 161.786 145.172 161.786 145.596V145.956L159.398 146.352C158.662 146.48 158.134 146.728 157.814 147.096C157.502 147.464 157.346 147.88 157.346 148.344C157.346 148.696 157.438 149.008 157.622 149.28C157.806 149.552 158.054 149.764 158.366 149.916C158.686 150.068 159.042 150.144 159.434 150.144ZM158.102 148.32C158.102 148 158.214 147.72 158.438 147.48C158.662 147.24 159.046 147.076 159.59 146.988L161.786 146.628V147.18C161.786 147.596 161.69 147.98 161.498 148.332C161.306 148.684 161.038 148.964 160.694 149.172C160.35 149.38 159.946 149.484 159.482 149.484C159.09 149.484 158.762 149.376 158.498 149.16C158.234 148.944 158.102 148.664 158.102 148.32ZM167.117 150.144C167.653 150.144 168.137 150.024 168.569 149.784C169.009 149.536 169.349 149.204 169.589 148.788V150H170.309V140.916H169.589V144.804C169.333 144.396 168.989 144.076 168.557 143.844C168.133 143.604 167.653 143.484 167.117 143.484C166.525 143.484 165.989 143.632 165.509 143.928C165.037 144.216 164.665 144.612 164.393 145.116C164.121 145.612 163.985 146.176 163.985 146.808C163.985 147.44 164.121 148.008 164.393 148.512C164.665 149.016 165.037 149.416 165.509 149.712C165.981 150 166.517 150.144 167.117 150.144ZM167.141 149.424C166.685 149.424 166.277 149.312 165.917 149.088C165.557 148.856 165.273 148.544 165.065 148.152C164.857 147.752 164.753 147.304 164.753 146.808C164.753 146.312 164.857 145.868 165.065 145.476C165.273 145.084 165.557 144.776 165.917 144.552C166.277 144.32 166.685 144.204 167.141 144.204C167.605 144.204 168.017 144.32 168.377 144.552C168.745 144.776 169.037 145.084 169.253 145.476C169.469 145.868 169.577 146.312 169.577 146.808C169.577 147.304 169.469 147.752 169.253 148.152C169.037 148.544 168.745 148.856 168.377 149.088C168.017 149.312 167.605 149.424 167.141 149.424ZM172.06 152.4H172.78V148.788C173.02 149.204 173.356 149.536 173.788 149.784C174.228 150.024 174.716 150.144 175.252 150.144C175.852 150.144 176.388 150 176.86 149.712C177.332 149.416 177.704 149.016 177.976 148.512C178.248 148.008 178.384 147.44 178.384 146.808C178.384 146.176 178.248 145.612 177.976 145.116C177.704 144.612 177.332 144.216 176.86 143.928C176.388 143.632 175.852 143.484 175.252 143.484C174.716 143.484 174.232 143.604 173.8 143.844C173.376 144.076 173.036 144.396 172.78 144.804V143.628H172.06V152.4ZM175.228 149.424C174.772 149.424 174.36 149.312 173.992 149.088C173.624 148.856 173.332 148.544 173.116 148.152C172.9 147.752 172.792 147.304 172.792 146.808C172.792 146.312 172.9 145.868 173.116 145.476C173.332 145.084 173.624 144.776 173.992 144.552C174.36 144.32 174.772 144.204 175.228 144.204C175.684 144.204 176.092 144.32 176.452 144.552C176.812 144.776 177.096 145.084 177.304 145.476C177.512 145.868 177.616 146.312 177.616 146.808C177.616 147.304 177.512 147.752 177.304 148.152C177.096 148.544 176.812 148.856 176.452 149.088C176.1 149.312 175.692 149.424 175.228 149.424ZM179.87 150H180.59V146.16C180.59 145.584 180.754 145.112 181.082 144.744C181.41 144.376 181.842 144.192 182.378 144.192C182.882 144.192 183.302 144.356 183.638 144.684C183.982 145.012 184.154 145.464 184.154 146.04V150H184.874V145.836C184.874 145.372 184.766 144.964 184.55 144.612C184.334 144.26 184.046 143.984 183.686 143.784C183.326 143.584 182.926 143.484 182.486 143.484C182.078 143.484 181.706 143.572 181.37 143.748C181.034 143.924 180.774 144.168 180.59 144.48V140.916H179.87V150ZM189.462 150.144C190.062 150.144 190.606 150 191.094 149.712C191.582 149.424 191.966 149.028 192.246 148.524C192.534 148.02 192.678 147.448 192.678 146.808C192.678 146.168 192.538 145.6 192.258 145.104C191.978 144.6 191.594 144.204 191.106 143.916C190.626 143.628 190.078 143.484 189.462 143.484C188.846 143.484 188.294 143.628 187.806 143.916C187.318 144.204 186.934 144.6 186.654 145.104C186.374 145.6 186.234 146.168 186.234 146.808C186.234 147.44 186.374 148.008 186.654 148.512C186.942 149.016 187.33 149.416 187.818 149.712C188.306 150 188.854 150.144 189.462 150.144ZM189.462 149.436C189.006 149.436 188.59 149.32 188.214 149.088C187.846 148.856 187.55 148.544 187.326 148.152C187.11 147.752 187.002 147.304 187.002 146.808C187.002 146.312 187.11 145.868 187.326 145.476C187.542 145.076 187.834 144.764 188.202 144.54C188.578 144.308 188.998 144.192 189.462 144.192C189.926 144.192 190.342 144.308 190.71 144.54C191.078 144.764 191.37 145.076 191.586 145.476C191.802 145.868 191.91 146.312 191.91 146.808C191.91 147.304 191.802 147.752 191.586 148.152C191.37 148.544 191.074 148.856 190.698 149.088C190.33 149.32 189.918 149.436 189.462 149.436ZM194.168 150H194.888V146.16C194.888 145.584 195.048 145.112 195.368 144.744C195.696 144.376 196.132 144.192 196.676 144.192C197.188 144.192 197.612 144.356 197.948 144.684C198.284 145.012 198.452 145.464 198.452 146.04V150H199.172V145.836C199.172 145.372 199.064 144.964 198.848 144.612C198.632 144.26 198.344 143.984 197.984 143.784C197.624 143.584 197.224 143.484 196.784 143.484C196.376 143.484 196.004 143.572 195.668 143.748C195.332 143.924 195.072 144.168 194.888 144.48V143.628H194.168V150ZM203.711 150.144C204.327 150.144 204.871 149.996 205.343 149.7C205.815 149.404 206.159 149.032 206.375 148.584L205.763 148.26C205.547 148.628 205.267 148.924 204.923 149.148C204.579 149.364 204.175 149.472 203.711 149.472C203.279 149.472 202.879 149.372 202.511 149.172C202.151 148.964 201.859 148.676 201.635 148.308C201.411 147.94 201.291 147.516 201.275 147.036H206.483C206.499 146.94 206.511 146.848 206.519 146.76C206.527 146.672 206.531 146.588 206.531 146.508C206.531 145.964 206.407 145.464 206.159 145.008C205.919 144.552 205.579 144.184 205.139 143.904C204.699 143.624 204.187 143.484 203.603 143.484C203.027 143.484 202.507 143.628 202.043 143.916C201.579 144.204 201.211 144.6 200.939 145.104C200.667 145.6 200.531 146.164 200.531 146.796C200.531 147.428 200.671 148 200.951 148.512C201.231 149.016 201.611 149.416 202.091 149.712C202.571 150 203.111 150.144 203.711 150.144ZM203.603 144.156C204.011 144.156 204.379 144.256 204.707 144.456C205.035 144.648 205.295 144.912 205.487 145.248C205.679 145.584 205.771 145.96 205.763 146.376H201.287C201.335 145.936 201.467 145.552 201.683 145.224C201.899 144.888 202.175 144.628 202.511 144.444C202.847 144.252 203.211 144.156 203.603 144.156ZM208.248 150H209.064V148.8H208.248V150Z" fill="black"/>
<path d="M43.216 60.4V67.484H37.336V60.4H31.876V80H37.336V72.496H43.216V80H48.648V60.4H43.216ZM60.3625 60.4H52.4385V80H60.3625C66.2985 80 70.4985 75.912 70.4985 70.2C70.4985 64.46 66.2985 60.4 60.3625 60.4ZM60.1105 75.072H57.8705V65.356H60.1105C63.0225 65.356 64.9545 67.288 64.9545 70.2C64.9545 73.084 63.0225 75.072 60.1105 75.072ZM80.2458 80.504C84.8098 80.504 88.0858 78.264 88.0858 73.98C88.0858 69.528 84.3338 68.548 81.4218 67.82C79.6018 67.344 78.1178 66.98 78.1178 65.86C78.1178 64.936 79.0418 64.516 79.9938 64.516C81.1138 64.516 82.0378 65.104 82.0378 66.364H87.4698C87.4698 62.36 84.7538 59.952 80.0498 59.952C75.4298 59.952 72.6018 62.164 72.6018 66.028C72.6018 70.48 76.2138 71.348 79.0418 72.048C80.9178 72.496 82.4578 72.86 82.4578 74.092C82.4578 75.156 81.3658 75.772 80.2458 75.772C79.0138 75.772 77.9218 75.072 77.9218 73.672H72.3498C72.3498 77.956 75.4578 80.504 80.2458 80.504ZM108.321 60.4V67.484H102.441V60.4H96.9815V80H102.441V72.496H108.321V80H113.753V60.4H108.321ZM132.641 72.3C132.641 67.876 129.281 64.404 124.409 64.404C119.649 64.404 116.205 67.82 116.205 72.44C116.205 77.06 119.677 80.504 124.409 80.504C128.189 80.504 131.269 78.348 132.333 74.904H127.125C126.649 75.8 125.613 76.332 124.409 76.332C122.757 76.332 121.665 75.436 121.329 73.7H132.557C132.613 73.224 132.641 72.776 132.641 72.3ZM124.409 68.492C125.977 68.492 127.069 69.304 127.517 70.816H121.413C121.833 69.304 122.897 68.492 124.409 68.492ZM147.219 64.88L146.687 66.056C145.455 65.02 143.859 64.432 142.067 64.432C137.447 64.432 134.143 67.764 134.143 72.44C134.143 77.144 137.447 80.504 142.067 80.504C143.831 80.504 145.399 79.944 146.631 78.936L147.079 80H151.111V64.88H147.219ZM142.767 75.912C140.807 75.912 139.379 74.428 139.379 72.44C139.379 70.48 140.807 69.024 142.767 69.024C144.727 69.024 146.155 70.48 146.155 72.44C146.155 74.428 144.727 75.912 142.767 75.912ZM165.205 59.42V65.44C164.141 64.768 162.853 64.404 161.453 64.404C156.833 64.404 153.529 67.764 153.529 72.44C153.529 77.144 156.833 80.532 161.453 80.532C163.217 80.532 164.785 79.916 166.017 78.88L166.521 80H170.357V59.42H165.205ZM162.153 75.912C160.221 75.912 158.765 74.428 158.765 72.468C158.765 70.48 160.221 68.996 162.153 68.996C164.113 68.996 165.541 70.48 165.541 72.468C165.541 74.428 164.113 75.912 162.153 75.912ZM182.468 64.404C180.648 64.404 179.052 65.02 177.82 66.084L177.176 64.88H173.62V85.46H178.772V79.524C179.836 80.168 181.096 80.532 182.468 80.532C187.088 80.532 190.392 77.172 190.392 72.44C190.392 67.736 187.088 64.404 182.468 64.404ZM181.768 75.912C179.808 75.912 178.38 74.428 178.38 72.44C178.38 70.48 179.808 68.996 181.768 68.996C183.7 68.996 185.156 70.48 185.156 72.44C185.156 74.428 183.7 75.912 181.768 75.912ZM202.001 64.46C200.489 64.46 199.089 64.992 197.969 65.888V59.42H192.761V80H197.969V71.936C197.969 70.004 198.949 68.884 200.517 68.884C201.889 68.884 202.505 69.78 202.505 71.516V80H207.713V70.9C207.713 66.98 205.473 64.46 202.001 64.46ZM218.396 80.504C223.324 80.504 226.88 77.116 226.88 72.44C226.88 67.764 223.324 64.404 218.396 64.404C213.468 64.404 209.94 67.764 209.94 72.44C209.94 77.116 213.468 80.504 218.396 80.504ZM218.396 75.828C216.52 75.828 215.148 74.456 215.148 72.468C215.148 70.452 216.52 69.08 218.396 69.08C220.3 69.08 221.672 70.48 221.672 72.468C221.672 74.456 220.3 75.828 218.396 75.828ZM238.42 64.46C236.46 64.46 234.78 65.188 233.66 66.448L232.96 64.88H229.292V80H234.5V71.936C234.5 70.004 235.424 68.884 237.048 68.884C238.364 68.884 239.036 69.752 239.036 71.516V80H244.244V70.788C244.244 66.952 241.92 64.46 238.42 64.46ZM262.907 72.3C262.907 67.876 259.547 64.404 254.675 64.404C249.915 64.404 246.471 67.82 246.471 72.44C246.471 77.06 249.943 80.504 254.675 80.504C258.455 80.504 261.535 78.348 262.599 74.904H257.391C256.915 75.8 255.879 76.332 254.675 76.332C253.023 76.332 251.931 75.436 251.595 73.7H262.823C262.879 73.224 262.907 72.776 262.907 72.3ZM254.675 68.492C256.243 68.492 257.335 69.304 257.783 70.816H251.679C252.099 69.304 253.163 68.492 254.675 68.492Z" fill="black"/>
</svg>
