<svg width="112" height="48" viewBox="0 0 112 48" fill="none" xmlns="http://www.w3.org/2000/svg">
<path d="M73.8864 15.5116L88.848 10.8094L15.8602 5.52737L9.71399 25.3843L73.8864 15.5116Z" stroke="white"/>
<path d="M7 9L104 5L91 37.5L10 35.5L7 9Z" fill="black"/>
<mask id="mask0_31_79" style="mask-type:alpha" maskUnits="userSpaceOnUse" x="0" y="5" width="112" height="38">
<path d="M96 23.5L104 5L111.5 38L0 42.5L13 8.5H15.5L13.5 15.5L56 30.5L96 23.5Z" fill="#505050"/>
</mask>
<g mask="url(#mask0_31_79)">
<path d="M102.597 33.8286L93.7232 13.2509L14.8598 9.02002L5.69231 37.97L102.597 33.8286Z" stroke="white"/>
</g>
<path d="M30.4375 17.6562L30.5 17.6875C30.5 18.125 30.4271 18.3438 30.2812 18.3438C30.1979 18.3438 27.9896 18.7604 23.6562 19.5938L23.625 19.5312C23.9167 18.3229 24.0833 17.6979 24.125 17.6562H30.4375ZM30.3125 19.0938C30.3125 19.1146 30.3229 19.125 30.3438 19.125C30.25 20.0208 30.1771 20.4688 30.125 20.4688H26.0625L25.8125 21.4688H25.8438C26.4271 21.2604 26.9062 21.1562 27.2812 21.1562C28.6562 21.1562 29.5833 21.875 30.0625 23.3125C30.125 23.5521 30.1667 23.875 30.1875 24.2812C30.1875 25.7135 29.6354 26.974 28.5312 28.0625C27.8073 28.6875 26.901 29 25.8125 29H25.6562C23.9635 29 22.849 28.3646 22.3125 27.0938C22.1667 26.6354 22.0625 26.1562 22 25.6562C22.1198 25.6146 23.1198 25.4792 25 25.25L25.0312 25.3125V25.4688C25.0312 26.3229 25.3438 26.75 25.9688 26.75C26.6354 26.75 27.0417 26.1562 27.1875 24.9688V24.4688C27.1094 23.8021 26.849 23.4688 26.4062 23.4688H26.125C25.8021 23.4688 25.4167 23.7188 24.9688 24.2188H24.9375C23.3542 23.974 22.5625 23.8281 22.5625 23.7812C23.1042 21.5885 23.3958 20.4427 23.4375 20.3438C27.7292 19.5521 30.0208 19.1354 30.3125 19.0938ZM35.1562 17.4688H35.4062C36.9167 17.4688 37.9062 18.1771 38.375 19.5938C38.5417 20.224 38.625 20.9531 38.625 21.7812C38.625 23.7344 38.25 25.4844 37.5 27.0312C33.625 27.7604 31.6458 28.125 31.5625 28.125C30.8958 27.5052 30.5625 26.3802 30.5625 24.75C30.5625 22.8021 30.9167 21.0417 31.625 19.4688C32.4375 18.1354 33.6146 17.4688 35.1562 17.4688ZM33.4688 24.75V25.0938C33.4688 26.0521 33.7396 26.5312 34.2812 26.5312C35.0781 26.5312 35.5573 24.9896 35.7188 21.9062V21.2188C35.7188 20.3229 35.4583 19.875 34.9375 19.875C34.1927 19.875 33.7344 21.0521 33.5625 23.4062C33.5 23.724 33.4688 24.1719 33.4688 24.75ZM37.1562 27.5L37.1875 27.5625C36.4427 28.5208 35.401 29 34.0625 29H33.875C33.026 29 32.3906 28.8229 31.9688 28.4688C31.9688 28.4271 33.6979 28.1042 37.1562 27.5Z" fill="white"/>
<path d="M63.4062 17.8125H64.0625C65.8438 17.8125 67.0312 18.5625 67.625 20.0625C67.875 20.6823 68 21.4323 68 22.3125V22.3438C68 23.2188 67.9271 23.6562 67.7812 23.6562L64.5938 24.4688L64.5625 24.4062C64.7083 23.6771 64.7812 23.0521 64.7812 22.5312V22.4375C64.7812 21.4792 64.4479 20.8854 63.7812 20.6562C63.6354 20.6146 63.5104 20.5938 63.4062 20.5938H63.2188C62.1823 20.5938 61.5365 21.4688 61.2812 23.2188C61.2396 23.5938 61.2188 23.9167 61.2188 24.1875V24.3438C61.2188 24.6094 61.25 24.9115 61.3125 25.25C61.276 25.2917 60.2344 25.5625 58.1875 26.0625C58.0625 25.6979 58 25.2188 58 24.625V24.3438C58 22.2917 58.6042 20.5625 59.8125 19.1562C60.6562 18.3854 61.3333 18 61.8438 18C62.3177 17.875 62.8385 17.8125 63.4062 17.8125ZM67.7812 24.2188C67.7812 24.2396 67.7917 24.25 67.8125 24.25C67.4479 25.8646 66.9062 27 66.1875 27.6562C65.3802 28.5521 64.2344 29 62.75 29H62.0938C61.1042 29 60.1979 28.7396 59.375 28.2188C58.7604 27.5312 58.4062 26.9583 58.3125 26.5C60.4115 25.9792 61.4948 25.7188 61.5625 25.7188C61.8125 26.0729 62.1667 26.25 62.625 26.25H62.75C63.4792 26.25 64.0208 25.8438 64.375 25.0312L67.7812 24.2188ZM69.25 17.8125H76.4688C76.5104 17.8177 76.5312 17.8385 76.5312 17.875C76.3646 19.6667 76.25 20.5625 76.1875 20.5625H72.0938C71.9896 21.4062 71.9375 21.8854 71.9375 22H75.4062C75.4479 22.0052 75.4688 22.026 75.4688 22.0625C75.4688 22.2448 75.375 23.0885 75.1875 24.5938H71.6875C71.6354 24.5938 71.5625 25.1771 71.4688 26.3438C71.375 27.2188 71.2917 27.6562 71.2188 27.6562L68.0312 28.4375C68.0312 28.4167 68.0208 28.4062 68 28.4062L69.1875 17.8438L69.25 17.8125ZM71.6875 28.0938C71.6562 28.6979 71.6042 29 71.5312 29H68.4062V28.875C68.4062 28.8125 69.4896 28.5417 71.6562 28.0625C71.6771 28.0625 71.6875 28.0729 71.6875 28.0938ZM77.7656 17.8125H84.9844C85.026 17.8177 85.0469 17.8385 85.0469 17.875C84.8802 19.6667 84.7656 20.5625 84.7031 20.5625H80.6094C80.5052 21.4062 80.4531 21.8854 80.4531 22H83.9219C83.9635 22.0052 83.9844 22.026 83.9844 22.0625C83.9844 22.2448 83.8906 23.0885 83.7031 24.5938H80.2031C80.151 24.5938 80.0781 25.1771 79.9844 26.3438C79.8906 27.2188 79.8073 27.6562 79.7344 27.6562L76.5469 28.4375C76.5469 28.4167 76.5365 28.4062 76.5156 28.4062L77.7031 17.8438L77.7656 17.8125ZM80.2031 28.0938C80.1719 28.6979 80.1198 29 80.0469 29H76.9219V28.875C76.9219 28.8125 78.0052 28.5417 80.1719 28.0625C80.1927 28.0625 80.2031 28.0729 80.2031 28.0938Z" fill="white"/>
<path d="M43.9688 17.0938H44.125C45.2135 17.0938 45.9323 17.6458 46.2812 18.75C46.3438 18.9062 46.3854 19.2083 46.4062 19.6562C46.3125 20.8438 46.125 21.4375 45.8438 21.4375L41.4375 22.25C41.1458 21.8073 41 21.2448 41 20.5625C41 19.2969 41.4688 18.2969 42.4062 17.5625C42.8958 17.25 43.4167 17.0938 43.9688 17.0938ZM49.25 17.0938H50.875C50.9167 17.099 50.9375 17.1198 50.9375 17.1562C49.5885 19.526 48.8698 20.7656 48.7812 20.875C48.724 20.875 48.099 20.9896 46.9062 21.2188C46.9062 21.1458 47.4792 20.1146 48.625 18.125C49.0104 17.4375 49.2188 17.0938 49.25 17.0938ZM43.125 20.7188C43.125 21.2396 43.25 21.5 43.5 21.5H43.5938C43.9635 21.5 44.1823 20.8854 44.25 19.6562V19.5C44.25 19.0208 44.125 18.7812 43.875 18.7812H43.8125C43.4167 18.7812 43.1875 19.4271 43.125 20.7188ZM48.3438 21.5938C48.3438 21.6146 48.3542 21.625 48.375 21.625C45.651 26.401 44.2448 28.8594 44.1562 29H42.4688C42.6042 28.6667 43.6667 26.7812 45.6562 23.3438C46.151 22.4062 46.4427 21.9375 46.5312 21.9375C46.6823 21.8958 47.2865 21.7812 48.3438 21.5938ZM45.5625 22.125V22.1562C44.974 22.8438 44.2448 23.1875 43.375 23.1875C42.8073 23.1875 42.349 23.0521 42 22.7812C44.1615 22.3438 45.349 22.125 45.5625 22.125ZM50 22.875C51.1042 22.875 51.8542 23.4062 52.25 24.4688C52.3333 24.8802 52.375 25.1927 52.375 25.4062C52.375 26.9688 51.7708 28.0729 50.5625 28.7188C50.2292 28.8854 49.875 28.9688 49.5 28.9688H49.1875C48.1875 28.9688 47.5 28.4688 47.125 27.4688C47.0208 27.0885 46.9688 26.7344 46.9688 26.4062C46.9688 25.1667 47.4062 24.1771 48.2812 23.4375C48.8177 23.0625 49.3906 22.875 50 22.875ZM49.0938 26.4688C49.0938 27.0312 49.2396 27.3125 49.5312 27.3125H49.5625C49.9062 27.3125 50.125 26.7708 50.2188 25.6875V25.2812C50.2188 24.8229 50.1042 24.5938 49.875 24.5938H49.75C49.4323 24.5938 49.224 25.1042 49.125 26.125C49.1042 26.2656 49.0938 26.3802 49.0938 26.4688Z" fill="white"/>
</svg>
