<svg width="185" height="192" viewBox="0 0 185 192" fill="none" xmlns="http://www.w3.org/2000/svg">
<g opacity="0.4" filter="url(#filter0_f_297_7)">
<path fill-rule="evenodd" clip-rule="evenodd" d="M141 55.5C141 59.3074 139.15 62.6827 136.299 64.7757C133.365 66.9303 129.771 68.2717 127.197 70.8458C121.572 76.4711 121.011 85.2177 123.064 92.9036C124.029 96.5158 124.543 100.312 124.543 104.228C124.543 128.403 104.946 148 80.7717 148C56.5972 148 37 128.403 37 104.228C37 80.0539 56.5972 60.4566 80.7717 60.4566C84.4071 60.4566 87.9391 60.8998 91.3165 61.7352C99.3556 63.7235 108.456 63.1338 114.312 57.278C116.839 54.7511 118.225 51.2611 120.421 48.4413C122.525 45.7385 125.809 44 129.5 44C135.851 44 141 49.1487 141 55.5Z" fill="black"/>
</g>
<path opacity="0.1" fill-rule="evenodd" clip-rule="evenodd" d="M139.416 65.3879C139.416 68.6449 137.772 71.5145 135.276 73.1982C133.484 74.4068 131.459 75.3364 129.937 76.8715C126.388 80.4522 125.821 85.9011 126.636 90.8763C126.87 92.305 126.992 93.7719 126.992 95.2675C126.992 110.031 115.129 122 100.496 122C85.8626 122 74 110.031 74 95.2675C74 80.5036 85.8626 68.5351 100.496 68.5351C101.754 68.5351 102.991 68.6235 104.202 68.7945C109.437 69.5338 115.164 68.9363 118.885 65.1813C120.358 63.6953 121.281 61.7534 122.469 60.0312C124.149 57.5947 126.946 56 130.111 56C135.25 56 139.416 60.2031 139.416 65.3879Z" fill="white"/>
<path fill-rule="evenodd" clip-rule="evenodd" d="M136 39.5C136 43.3074 134.15 46.6827 131.299 48.7757C128.365 50.9302 124.771 52.2717 122.197 54.8458C116.572 60.4711 116.011 69.2177 118.064 76.9037C119.029 80.5159 119.543 84.312 119.543 88.2283C119.543 112.403 99.9461 132 75.7717 132C51.5972 132 32 112.403 32 88.2283C32 64.0539 51.5972 44.4567 75.7717 44.4567C79.4071 44.4567 82.9391 44.8999 86.3164 45.7352C94.3556 47.7235 103.456 47.1338 109.312 41.278C111.839 38.7511 113.225 35.2611 115.421 32.4413C117.525 29.7385 120.809 28 124.5 28C130.851 28 136 33.1487 136 39.5Z" fill="#FFF1A1"/>
<path fill-rule="evenodd" clip-rule="evenodd" d="M136 39.5C136 43.3074 134.15 46.6827 131.299 48.7757C128.365 50.9302 124.771 52.2717 122.197 54.8458C116.572 60.4711 116.011 69.2177 118.064 76.9037C119.029 80.5159 119.543 84.312 119.543 88.2283C119.543 112.403 99.9461 132 75.7717 132C51.5972 132 32 112.403 32 88.2283C32 64.0539 51.5972 44.4567 75.7717 44.4567C79.4071 44.4567 82.9391 44.8999 86.3164 45.7352C94.3556 47.7235 103.456 47.1338 109.312 41.278C111.839 38.7511 113.225 35.2611 115.421 32.4413C117.525 29.7385 120.809 28 124.5 28C130.851 28 136 33.1487 136 39.5Z" fill="url(#paint0_radial_297_7)" fill-opacity="0.8"/>
<path opacity="0.85" d="M53.856 85.096C54.528 85.096 55.264 85 56.128 84.84C57.472 84.552 58.592 84.168 59.456 83.624C60.352 83.112 61.056 82.472 61.632 81.768C62.176 81.064 62.592 80.36 62.88 79.656C63.168 78.952 63.36 78.28 63.488 77.672C63.584 77.032 63.648 76.552 63.648 76.2V75.624C63.584 74.536 63.296 73.64 62.752 72.904C62.208 72.136 61.504 71.56 60.704 71.144C59.936 70.696 59.04 70.44 58.112 70.344L57.472 70.312C56.768 70.312 56.096 70.408 55.424 70.632H55.328C55.008 70.632 54.848 70.376 54.848 70.024C54.848 69.512 55.232 68.84 56.032 68.744L63.168 68.808C63.904 68.744 64.448 67.208 64.448 65.832C64.448 64.616 64.032 63.496 63.04 63.496L53.856 64.008C50.88 64.168 49.856 67.688 49.856 70.76C49.856 71.848 49.984 72.84 50.176 73.672C50.432 74.728 51.296 74.984 52.352 74.984C53.28 74.984 54.368 74.76 55.296 74.76C55.648 74.76 56 74.792 56.288 74.888C56.64 75.016 56.896 75.144 57.056 75.368C57.216 75.496 57.28 75.688 57.28 75.912L57.248 76.168C57.248 76.2 57.216 76.328 57.12 76.584C57.056 76.84 56.864 77.16 56.608 77.544C56.32 77.896 55.936 78.248 55.456 78.536C54.944 78.824 54.272 79.016 53.44 79.08L52.864 79.112C52.16 79.112 51.328 78.984 50.368 78.76C50.048 78.856 49.6 80.008 49.6 81.256C49.6 83.048 50.496 85.096 53.856 85.096ZM73.4935 85C78.0375 85 82.0695 80.168 82.4855 74.248C82.5175 73.896 82.5175 73.544 82.5175 73.192C82.5175 67.72 79.3175 63.464 75.0615 63.464C70.5495 63.464 66.4855 68.296 66.0695 74.248C66.0375 74.6 66.0375 74.952 66.0375 75.304C66.0375 80.744 69.2375 85 73.4935 85ZM73.4295 79.304C73.2695 79.304 73.0775 79.272 72.9175 79.24C71.5735 78.92 70.7735 77.384 70.7735 75.464C70.7735 74.824 70.8695 74.152 71.0615 73.448C71.7335 70.952 73.4935 69.16 75.1255 69.16C75.3175 69.16 75.4775 69.192 75.6375 69.224C76.9815 69.576 77.7815 71.112 77.7815 73.032C77.7815 73.672 77.7175 74.344 77.5255 75.016C76.8215 77.512 75.0615 79.304 73.4295 79.304Z" fill="black"/>
<path opacity="0.85" d="M57.472 113.968C62.528 113.968 66.912 109.104 67.296 103.12L67.328 102.352C67.328 96.688 63.648 92.24 58.816 92.24C53.792 92.24 49.376 97.104 49.024 103.12L48.992 103.952C48.992 109.552 52.672 113.968 57.472 113.968ZM57.088 107.376C56.704 107.376 56.352 107.312 56.032 107.152C55.04 106.672 54.528 105.616 54.528 104.368C54.528 103.536 54.752 102.64 55.2 101.744C56.16 99.952 57.76 98.864 59.2 98.864C59.584 98.864 59.936 98.928 60.256 99.088C61.248 99.536 61.792 100.592 61.792 101.872C61.792 102.704 61.568 103.6 61.088 104.464C60.16 106.256 58.528 107.376 57.088 107.376ZM71.6325 113.968C73.2005 113.968 74.9285 113.36 75.0565 112.4L75.3125 106.064L79.6645 105.776C81.1685 105.328 81.7445 104.08 81.7445 102.928C81.7445 101.68 81.0725 100.528 80.1125 100.528L74.9605 100.848C74.7045 100.848 74.5445 100.464 74.5445 100.048C74.5445 99.568 74.7365 99.088 75.2485 98.928L81.1685 98.672C82.7365 98.352 83.4725 96.592 83.4725 94.992C83.4725 93.616 82.9605 92.4 81.9045 92.24L70.7045 93.104C69.5205 93.264 68.9125 93.872 68.9125 94.896L69.0725 112.56C69.1685 113.552 70.3525 113.968 71.6325 113.968ZM87.7888 113.968C89.3568 113.968 91.0848 113.36 91.2128 112.4L91.4688 106.064L95.8208 105.776C97.3248 105.328 97.9008 104.08 97.9008 102.928C97.9008 101.68 97.2288 100.528 96.2688 100.528L91.1168 100.848C90.8608 100.848 90.7008 100.464 90.7008 100.048C90.7008 99.568 90.8928 99.088 91.4048 98.928L97.3248 98.672C98.8928 98.352 99.6287 96.592 99.6287 94.992C99.6287 93.616 99.1168 92.4 98.0608 92.24L86.8608 93.104C85.6768 93.264 85.0688 93.872 85.0688 94.896L85.2288 112.56C85.3248 113.552 86.5088 113.968 87.7888 113.968Z" fill="black"/>
<path opacity="0.85" d="M87.96 72.424C90.008 72.424 91.8 70.6 92.024 68.36L92.056 67.976C92.056 65.928 90.584 64.296 88.664 64.296C86.648 64.296 84.824 66.12 84.632 68.36L84.6 68.744C84.6 70.824 86.04 72.424 87.96 72.424ZM87.928 70.28L87.704 70.248C87.096 70.12 86.744 69.544 86.744 68.84C86.744 68.584 86.776 68.328 86.872 68.072C87.16 67.112 87.96 66.44 88.696 66.44L88.92 66.472C89.56 66.6 89.912 67.176 89.912 67.88C89.912 68.136 89.848 68.392 89.784 68.648C89.464 69.608 88.664 70.28 87.928 70.28ZM98.392 84.52C100.44 84.52 102.232 82.696 102.424 80.456L102.456 80.008C102.456 77.992 101.016 76.424 99.096 76.424C97.048 76.424 95.256 78.216 95.032 80.456L95 80.84C95 82.888 96.472 84.52 98.392 84.52ZM98.36 82.376L98.136 82.344C97.528 82.216 97.176 81.672 97.176 80.936C97.176 80.712 97.208 80.424 97.304 80.168C97.592 79.24 98.392 78.536 99.128 78.536L99.352 78.568C99.96 78.696 100.312 79.272 100.312 80.008C100.312 80.232 100.28 80.52 100.184 80.776C99.896 81.704 99.096 82.376 98.36 82.376ZM88.856 85.064C90.136 85.064 91.832 84.392 92.44 83.016L101.016 64.008C101.048 63.912 101.048 63.848 101.048 63.752C101.048 63.144 100.28 62.824 99.256 62.824C97.848 62.824 96.024 63.432 95.352 64.84L87.416 83.72C87.352 83.88 87.32 84.008 87.32 84.136C87.32 84.744 87.992 85.064 88.856 85.064Z" fill="black"/>
<defs>
<filter id="filter0_f_297_7" x="-7" y="0" width="192" height="192" filterUnits="userSpaceOnUse" color-interpolation-filters="sRGB">
<feFlood flood-opacity="0" result="BackgroundImageFix"/>
<feBlend mode="normal" in="SourceGraphic" in2="BackgroundImageFix" result="shape"/>
<feGaussianBlur stdDeviation="22" result="effect1_foregroundBlur_297_7"/>
</filter>
<radialGradient id="paint0_radial_297_7" cx="0" cy="0" r="1" gradientUnits="userSpaceOnUse" gradientTransform="translate(75 89.5) rotate(80.7701) scale(40.5247)">
<stop stop-color="#FFD98F"/>
<stop offset="0.757291" stop-color="#FFD987" stop-opacity="0.86"/>
<stop offset="1" stop-color="#FFD66D" stop-opacity="0.68"/>
</radialGradient>
</defs>
</svg>
