<svg width="373" height="232" viewBox="0 0 373 232" fill="none" xmlns="http://www.w3.org/2000/svg">
<circle cx="188" cy="116" r="116" fill="#25C03E"/>
<path d="M37.0629 137.044C37.6186 136.619 38.192 136.375 38.7829 136.313C39.3327 136.239 39.9057 136.326 40.5018 136.575C41.0677 136.77 41.6417 137.101 42.2238 137.566C42.7758 137.979 43.3056 138.474 43.8134 139.052C44.6972 140.04 45.4916 141.114 46.1965 142.275C46.9537 143.405 47.5541 144.626 47.9978 145.938C48.2745 146.719 48.4069 147.461 48.395 148.164C48.3832 148.868 48.2397 149.404 47.9644 149.772C47.7303 150.151 47.3605 150.295 46.8549 150.203C46.3603 150.071 45.7425 149.574 45.0015 148.713C44.1699 147.695 43.3395 146.92 42.5101 146.389C41.6807 145.857 40.8966 145.404 40.1577 145.03C39.3887 144.603 38.687 144.172 38.0526 143.737C37.4182 143.302 36.8803 142.672 36.4388 141.847C35.8575 140.719 35.6401 139.799 35.7866 139.088C35.9442 138.335 36.3696 137.654 37.0629 137.044Z" fill="white"/>
<path d="M335.427 182.044C334.871 181.619 334.298 181.375 333.707 181.313C333.157 181.239 332.584 181.326 331.988 181.575C331.422 181.77 330.848 182.101 330.266 182.566C329.714 182.979 329.184 183.474 328.676 184.052C327.793 185.04 326.998 186.114 326.293 187.275C325.536 188.405 324.936 189.626 324.492 190.938C324.215 191.719 324.083 192.461 324.095 193.164C324.107 193.868 324.25 194.404 324.525 194.772C324.76 195.151 325.129 195.295 325.635 195.203C326.13 195.071 326.747 194.574 327.488 193.713C328.32 192.695 329.15 191.92 329.98 191.389C330.809 190.857 331.593 190.404 332.332 190.03C333.101 189.603 333.803 189.172 334.437 188.737C335.072 188.302 335.61 187.672 336.051 186.847C336.632 185.719 336.85 184.799 336.703 184.088C336.546 183.335 336.12 182.654 335.427 182.044Z" fill="white"/>
<path d="M45.7055 126.673C46.2612 126.248 46.8345 126.004 47.4255 125.942C47.9753 125.868 48.5482 125.955 49.1443 126.203C49.7103 126.399 50.2843 126.73 50.8664 127.195C51.4183 127.608 51.9482 128.103 52.4559 128.681C53.3398 129.669 54.1341 130.743 54.8391 131.904C55.5963 133.034 56.1967 134.255 56.6404 135.567C56.9171 136.347 57.0495 137.09 57.0376 137.793C57.0258 138.497 56.8822 139.033 56.6069 139.401C56.3729 139.78 56.003 139.923 55.4975 139.832C55.0029 139.7 54.3851 139.203 53.6441 138.342C52.8125 137.324 51.9821 136.549 51.1527 136.018C50.3233 135.486 49.5392 135.033 48.8003 134.658C48.0312 134.232 47.3295 133.801 46.6952 133.366C46.0608 132.931 45.5229 132.301 45.0814 131.475C44.5001 130.348 44.2827 129.428 44.4292 128.717C44.5868 127.964 45.0122 127.283 45.7055 126.673Z" fill="white"/>
<path d="M326.784 171.673C326.229 171.248 325.655 171.004 325.064 170.942C324.515 170.868 323.942 170.955 323.346 171.203C322.78 171.399 322.206 171.73 321.623 172.195C321.072 172.608 320.542 173.103 320.034 173.681C319.15 174.669 318.356 175.743 317.651 176.904C316.894 178.034 316.293 179.255 315.849 180.567C315.573 181.347 315.44 182.09 315.452 182.793C315.464 183.497 315.608 184.033 315.883 184.401C316.117 184.78 316.487 184.923 316.992 184.832C317.487 184.7 318.105 184.203 318.846 183.342C319.677 182.324 320.508 181.549 321.337 181.018C322.167 180.486 322.951 180.033 323.69 179.658C324.459 179.232 325.16 178.801 325.795 178.366C326.429 177.931 326.967 177.301 327.408 176.475C327.99 175.348 328.207 174.428 328.061 173.717C327.903 172.964 327.478 172.283 326.784 171.673Z" fill="white"/>
</svg>
