<svg width="240" height="78" viewBox="0 0 240 78" fill="none" xmlns="http://www.w3.org/2000/svg">
<rect width="70" height="41" fill="#FB2D61"/>
<path d="M54.7614 73V58.4545H59.8466C60.8598 58.4545 61.6955 58.6297 62.3537 58.9801C63.0118 59.3258 63.5019 59.7921 63.8239 60.3793C64.1458 60.9616 64.3068 61.608 64.3068 62.3182C64.3068 62.9432 64.1955 63.4593 63.973 63.8665C63.7552 64.2737 63.4664 64.5956 63.1065 64.8324C62.7514 65.0691 62.3655 65.2443 61.9489 65.358V65.5C62.3939 65.5284 62.8414 65.6847 63.2912 65.9688C63.741 66.2528 64.1174 66.66 64.4205 67.1903C64.7235 67.7206 64.875 68.3693 64.875 69.1364C64.875 69.8655 64.7093 70.5213 64.3778 71.1037C64.0464 71.6861 63.5232 72.1477 62.8082 72.4886C62.0933 72.8295 61.1629 73 60.017 73H54.7614ZM56.5227 71.4375H60.017C61.1676 71.4375 61.9844 71.215 62.4673 70.7699C62.955 70.3201 63.1989 69.7756 63.1989 69.1364C63.1989 68.6439 63.0734 68.1894 62.8224 67.7727C62.5715 67.3513 62.214 67.0152 61.75 66.7642C61.286 66.5085 60.7367 66.3807 60.1023 66.3807H56.5227V71.4375ZM56.5227 64.8466H59.7898C60.3201 64.8466 60.7983 64.7424 61.2244 64.5341C61.6553 64.3258 61.9962 64.0322 62.2472 63.6534C62.5028 63.2746 62.6307 62.8295 62.6307 62.3182C62.6307 61.679 62.4081 61.1368 61.9631 60.6918C61.518 60.242 60.8125 60.017 59.8466 60.017H56.5227V64.8466ZM72.1158 73.2273C71.0646 73.2273 70.1579 72.9953 69.3956 72.5312C68.638 72.0625 68.0533 71.4091 67.6413 70.571C67.2341 69.7282 67.0305 68.7481 67.0305 67.6307C67.0305 66.5133 67.2341 65.5284 67.6413 64.6761C68.0533 63.8191 68.6262 63.1515 69.3601 62.6733C70.0987 62.1903 70.9605 61.9489 71.9453 61.9489C72.5135 61.9489 73.0746 62.0436 73.6286 62.233C74.1825 62.4223 74.6868 62.7301 75.1413 63.1562C75.5959 63.5777 75.9581 64.1364 76.228 64.8324C76.4979 65.5284 76.6328 66.3854 76.6328 67.4034V68.1136H68.2237V66.6648H74.9283C74.9283 66.0492 74.8052 65.5 74.5589 65.017C74.3175 64.5341 73.9718 64.1529 73.522 63.8736C73.0769 63.5942 72.5514 63.4545 71.9453 63.4545C71.2777 63.4545 70.7 63.6203 70.2124 63.9517C69.7294 64.2784 69.3577 64.7045 69.0973 65.2301C68.8369 65.7557 68.7067 66.3191 68.7067 66.9205V67.8864C68.7067 68.7102 68.8487 69.4086 69.1328 69.9815C69.4216 70.5497 69.8217 70.983 70.3331 71.2812C70.8445 71.5748 71.4387 71.7216 72.1158 71.7216C72.5561 71.7216 72.9538 71.66 73.3089 71.5369C73.6688 71.4091 73.9789 71.2197 74.2393 70.9688C74.4998 70.7131 74.701 70.3958 74.843 70.017L76.4624 70.4716C76.2919 71.0208 76.0054 71.5038 75.603 71.9205C75.2005 72.3324 74.7034 72.6544 74.1115 72.8864C73.5196 73.1136 72.8544 73.2273 72.1158 73.2273ZM83.9268 62.0909V63.5114H78.2734V62.0909H83.9268ZM79.9212 59.4773H81.5973V69.875C81.5973 70.3485 81.666 70.7036 81.8033 70.9403C81.9453 71.1723 82.1252 71.3286 82.343 71.4091C82.5656 71.4848 82.8 71.5227 83.0462 71.5227C83.2308 71.5227 83.3823 71.5133 83.5007 71.4943C83.6191 71.4706 83.7138 71.4517 83.7848 71.4375L84.1257 72.9432C84.0121 72.9858 83.8535 73.0284 83.6499 73.071C83.4463 73.1184 83.1882 73.142 82.8757 73.142C82.4022 73.142 81.9382 73.0402 81.4837 72.8366C81.0339 72.633 80.6598 72.3229 80.3615 71.9062C80.0679 71.4896 79.9212 70.964 79.9212 70.3295V59.4773ZM91.1925 62.0909V63.5114H85.5391V62.0909H91.1925ZM87.1868 59.4773H88.8629V69.875C88.8629 70.3485 88.9316 70.7036 89.0689 70.9403C89.2109 71.1723 89.3909 71.3286 89.6087 71.4091C89.8312 71.4848 90.0656 71.5227 90.3118 71.5227C90.4964 71.5227 90.648 71.5133 90.7663 71.4943C90.8847 71.4706 90.9794 71.4517 91.0504 71.4375L91.3913 72.9432C91.2777 72.9858 91.1191 73.0284 90.9155 73.071C90.7119 73.1184 90.4538 73.142 90.1413 73.142C89.6679 73.142 89.2038 73.0402 88.7493 72.8366C88.2995 72.633 87.9254 72.3229 87.6271 71.9062C87.3336 71.4896 87.1868 70.964 87.1868 70.3295V59.4773ZM98.1705 73.2273C97.1193 73.2273 96.2126 72.9953 95.4503 72.5312C94.6927 72.0625 94.108 71.4091 93.696 70.571C93.2888 69.7282 93.0852 68.7481 93.0852 67.6307C93.0852 66.5133 93.2888 65.5284 93.696 64.6761C94.108 63.8191 94.6809 63.1515 95.4148 62.6733C96.1534 62.1903 97.0152 61.9489 98 61.9489C98.5682 61.9489 99.1293 62.0436 99.6832 62.233C100.237 62.4223 100.741 62.7301 101.196 63.1562C101.651 63.5777 102.013 64.1364 102.283 64.8324C102.553 65.5284 102.688 66.3854 102.688 67.4034V68.1136H94.2784V66.6648H100.983C100.983 66.0492 100.86 65.5 100.614 65.017C100.372 64.5341 100.027 64.1529 99.5767 63.8736C99.1316 63.5942 98.6061 63.4545 98 63.4545C97.3324 63.4545 96.7547 63.6203 96.267 63.9517C95.7841 64.2784 95.4124 64.7045 95.152 65.2301C94.8916 65.7557 94.7614 66.3191 94.7614 66.9205V67.8864C94.7614 68.7102 94.9034 69.4086 95.1875 69.9815C95.4763 70.5497 95.8764 70.983 96.3878 71.2812C96.8991 71.5748 97.4934 71.7216 98.1705 71.7216C98.6108 71.7216 99.0085 71.66 99.3636 71.5369C99.7235 71.4091 100.034 71.2197 100.294 70.9688C100.554 70.7131 100.756 70.3958 100.898 70.017L102.517 70.4716C102.347 71.0208 102.06 71.5038 101.658 71.9205C101.255 72.3324 100.758 72.6544 100.166 72.8864C99.5743 73.1136 98.9091 73.2273 98.1705 73.2273ZM105.237 73V62.0909H106.857V63.7386H106.97C107.169 63.1989 107.529 62.7609 108.05 62.4247C108.571 62.0885 109.158 61.9205 109.811 61.9205C109.934 61.9205 110.088 61.9228 110.273 61.9276C110.457 61.9323 110.597 61.9394 110.692 61.9489V63.6534C110.635 63.6392 110.505 63.6179 110.301 63.5895C110.102 63.5563 109.892 63.5398 109.669 63.5398C109.139 63.5398 108.665 63.651 108.249 63.8736C107.837 64.0914 107.51 64.3944 107.268 64.7827C107.032 65.1662 106.913 65.6042 106.913 66.0966V73H105.237Z" fill="white"/>
<path d="M1.76136 73V58.4545H6.84659C7.85985 58.4545 8.69555 58.6297 9.35369 58.9801C10.0118 59.3258 10.5019 59.7921 10.8239 60.3793C11.1458 60.9616 11.3068 61.608 11.3068 62.3182C11.3068 62.9432 11.1955 63.4593 10.973 63.8665C10.7552 64.2737 10.4664 64.5956 10.1065 64.8324C9.75142 65.0691 9.36553 65.2443 8.94886 65.358V65.5C9.39394 65.5284 9.84138 65.6847 10.2912 65.9688C10.741 66.2528 11.1174 66.66 11.4205 67.1903C11.7235 67.7206 11.875 68.3693 11.875 69.1364C11.875 69.8655 11.7093 70.5213 11.3778 71.1037C11.0464 71.6861 10.5232 72.1477 9.80824 72.4886C9.09328 72.8295 8.16288 73 7.01705 73H1.76136ZM3.52273 71.4375H7.01705C8.16761 71.4375 8.98438 71.215 9.46733 70.7699C9.95502 70.3201 10.1989 69.7756 10.1989 69.1364C10.1989 68.6439 10.0734 68.1894 9.82244 67.7727C9.5715 67.3513 9.21402 67.0152 8.75 66.7642C8.28598 66.5085 7.73674 66.3807 7.10227 66.3807H3.52273V71.4375ZM3.52273 64.8466H6.78977C7.32008 64.8466 7.7983 64.7424 8.22443 64.5341C8.6553 64.3258 8.99621 64.0322 9.24716 63.6534C9.50284 63.2746 9.63068 62.8295 9.63068 62.3182C9.63068 61.679 9.40814 61.1368 8.96307 60.6918C8.51799 60.242 7.8125 60.017 6.84659 60.017H3.52273V64.8466ZM21.4169 68.5398V62.0909H23.093V73H21.4169V71.1534H21.3033C21.0476 71.7074 20.6499 72.1785 20.1101 72.5668C19.5703 72.9503 18.8885 73.142 18.0646 73.142C17.3828 73.142 16.7768 72.9929 16.2464 72.6946C15.7161 72.3916 15.2995 71.937 14.9964 71.331C14.6934 70.7202 14.5419 69.9508 14.5419 69.0227V62.0909H16.218V68.9091C16.218 69.7045 16.4406 70.339 16.8857 70.8125C17.3355 71.286 17.9084 71.5227 18.6044 71.5227C19.0211 71.5227 19.4448 71.4162 19.8757 71.2031C20.3113 70.9901 20.6759 70.6634 20.9695 70.223C21.2678 69.7827 21.4169 69.2216 21.4169 68.5398ZM26.163 73V62.0909H27.8391V73H26.163ZM27.0153 60.2727C26.6886 60.2727 26.4068 60.1615 26.1701 59.9389C25.9381 59.7164 25.8221 59.4489 25.8221 59.1364C25.8221 58.8239 25.9381 58.5563 26.1701 58.3338C26.4068 58.1113 26.6886 58 27.0153 58C27.342 58 27.6213 58.1113 27.8533 58.3338C28.0901 58.5563 28.2085 58.8239 28.2085 59.1364C28.2085 59.4489 28.0901 59.7164 27.8533 59.9389C27.6213 60.1615 27.342 60.2727 27.0153 60.2727ZM32.5852 58.4545V73H30.9091V58.4545H32.5852ZM39.7745 73.2273C38.8654 73.2273 38.0629 72.9976 37.3668 72.5384C36.6708 72.0743 36.1263 71.4209 35.7333 70.5781C35.3403 69.7306 35.1438 68.7292 35.1438 67.5739C35.1438 66.428 35.3403 65.4337 35.7333 64.5909C36.1263 63.7481 36.6732 63.0971 37.3739 62.6378C38.0747 62.1785 38.8844 61.9489 39.8029 61.9489C40.5131 61.9489 41.0742 62.0672 41.4862 62.304C41.9028 62.536 42.2201 62.8011 42.4379 63.0994C42.6604 63.393 42.8332 63.6345 42.9563 63.8239H43.0984V58.4545H44.7745V73H43.1552V71.3239H42.9563C42.8332 71.5227 42.658 71.7737 42.4308 72.0767C42.2035 72.375 41.8791 72.6425 41.4577 72.8793C41.0363 73.1113 40.4753 73.2273 39.7745 73.2273ZM40.0018 71.7216C40.6741 71.7216 41.2423 71.5464 41.7063 71.196C42.1703 70.8409 42.5231 70.3509 42.7646 69.7259C43.006 69.0961 43.1268 68.3693 43.1268 67.5455C43.1268 66.7311 43.0084 66.0185 42.7717 65.4077C42.5349 64.7921 42.1845 64.3139 41.7205 63.973C41.2565 63.6274 40.6836 63.4545 40.0018 63.4545C39.2915 63.4545 38.6997 63.6368 38.2262 64.0014C37.7575 64.3613 37.4047 64.8513 37.168 65.4716C36.936 66.0871 36.82 66.7784 36.82 67.5455C36.82 68.322 36.9383 69.0275 37.1751 69.6619C37.4165 70.2917 37.7717 70.7936 38.2404 71.1676C38.7139 71.5369 39.301 71.7216 40.0018 71.7216Z" fill="white"/>
<path d="M120.358 73H118.511L123.852 58.4545H125.67L131.011 73H129.165L124.818 60.7557H124.705L120.358 73ZM121.04 67.3182H128.483V68.8807H121.04V67.3182ZM140.777 64.5341L139.271 64.9602C139.177 64.7093 139.037 64.4654 138.852 64.2287C138.672 63.9872 138.426 63.7884 138.114 63.6321C137.801 63.4759 137.401 63.3977 136.913 63.3977C136.246 63.3977 135.689 63.5516 135.244 63.8594C134.804 64.1624 134.584 64.5483 134.584 65.017C134.584 65.4337 134.735 65.7628 135.038 66.0043C135.341 66.2457 135.815 66.447 136.459 66.608L138.078 67.0057C139.054 67.2424 139.78 67.6046 140.259 68.0923C140.737 68.5753 140.976 69.1979 140.976 69.9602C140.976 70.5852 140.796 71.1439 140.436 71.6364C140.081 72.1288 139.584 72.517 138.945 72.8011C138.305 73.0852 137.562 73.2273 136.714 73.2273C135.602 73.2273 134.681 72.9858 133.952 72.5028C133.223 72.0199 132.761 71.3144 132.567 70.3864L134.158 69.9886C134.309 70.5758 134.596 71.0161 135.017 71.3097C135.443 71.6032 136 71.75 136.686 71.75C137.467 71.75 138.088 71.5843 138.547 71.2528C139.011 70.9167 139.243 70.5142 139.243 70.0455C139.243 69.6667 139.11 69.3494 138.845 69.0938C138.58 68.8333 138.173 68.6392 137.624 68.5114L135.805 68.0852C134.806 67.8485 134.072 67.4815 133.604 66.9844C133.14 66.4825 132.908 65.8551 132.908 65.1023C132.908 64.4867 133.08 63.9422 133.426 63.4688C133.777 62.9953 134.252 62.6236 134.854 62.3537C135.46 62.0838 136.146 61.9489 136.913 61.9489C137.993 61.9489 138.84 62.1856 139.456 62.6591C140.076 63.1326 140.517 63.7576 140.777 64.5341ZM151.226 64.5341L149.721 64.9602C149.626 64.7093 149.486 64.4654 149.301 64.2287C149.122 63.9872 148.875 63.7884 148.563 63.6321C148.25 63.4759 147.85 63.3977 147.363 63.3977C146.695 63.3977 146.139 63.5516 145.694 63.8594C145.253 64.1624 145.033 64.5483 145.033 65.017C145.033 65.4337 145.185 65.7628 145.488 66.0043C145.791 66.2457 146.264 66.447 146.908 66.608L148.527 67.0057C149.503 67.2424 150.23 67.6046 150.708 68.0923C151.186 68.5753 151.425 69.1979 151.425 69.9602C151.425 70.5852 151.245 71.1439 150.885 71.6364C150.53 72.1288 150.033 72.517 149.394 72.8011C148.755 73.0852 148.011 73.2273 147.164 73.2273C146.051 73.2273 145.13 72.9858 144.401 72.5028C143.672 72.0199 143.21 71.3144 143.016 70.3864L144.607 69.9886C144.758 70.5758 145.045 71.0161 145.466 71.3097C145.892 71.6032 146.449 71.75 147.135 71.75C147.917 71.75 148.537 71.5843 148.996 71.2528C149.46 70.9167 149.692 70.5142 149.692 70.0455C149.692 69.6667 149.56 69.3494 149.294 69.0938C149.029 68.8333 148.622 68.6392 148.073 68.5114L146.255 68.0852C145.256 67.8485 144.522 67.4815 144.053 66.9844C143.589 66.4825 143.357 65.8551 143.357 65.1023C143.357 64.4867 143.53 63.9422 143.875 63.4688C144.226 62.9953 144.702 62.6236 145.303 62.3537C145.909 62.0838 146.596 61.9489 147.363 61.9489C148.442 61.9489 149.29 62.1856 149.905 62.6591C150.525 63.1326 150.966 63.7576 151.226 64.5341ZM153.948 73V62.0909H155.624V73H153.948ZM154.8 60.2727C154.474 60.2727 154.192 60.1615 153.955 59.9389C153.723 59.7164 153.607 59.4489 153.607 59.1364C153.607 58.8239 153.723 58.5563 153.955 58.3338C154.192 58.1113 154.474 58 154.8 58C155.127 58 155.406 58.1113 155.638 58.3338C155.875 58.5563 155.994 58.8239 155.994 59.1364C155.994 59.4489 155.875 59.7164 155.638 59.9389C155.406 60.1615 155.127 60.2727 154.8 60.2727ZM163.098 77.3182C162.288 77.3182 161.592 77.214 161.01 77.0057C160.427 76.8021 159.942 76.5322 159.554 76.196C159.17 75.8646 158.865 75.5095 158.637 75.1307L159.973 74.1932C160.124 74.392 160.316 74.6193 160.548 74.875C160.78 75.1354 161.097 75.3603 161.5 75.5497C161.907 75.7438 162.44 75.8409 163.098 75.8409C163.978 75.8409 164.705 75.6278 165.278 75.2017C165.851 74.7756 166.137 74.108 166.137 73.1989V70.983H165.995C165.872 71.1818 165.697 71.428 165.47 71.7216C165.247 72.0104 164.925 72.2685 164.504 72.4957C164.087 72.7183 163.524 72.8295 162.814 72.8295C161.933 72.8295 161.142 72.6212 160.441 72.2045C159.745 71.7879 159.194 71.1818 158.787 70.3864C158.384 69.5909 158.183 68.625 158.183 67.4886C158.183 66.3712 158.379 65.3982 158.772 64.5696C159.165 63.7363 159.712 63.0923 160.413 62.6378C161.114 62.1785 161.923 61.9489 162.842 61.9489C163.552 61.9489 164.116 62.0672 164.532 62.304C164.954 62.536 165.276 62.8011 165.498 63.0994C165.725 63.393 165.901 63.6345 166.024 63.8239H166.194V62.0909H167.814V73.3125C167.814 74.25 167.6 75.0123 167.174 75.5994C166.753 76.1913 166.185 76.6245 165.47 76.8991C164.76 77.1785 163.969 77.3182 163.098 77.3182ZM163.041 71.3239C163.713 71.3239 164.281 71.17 164.745 70.8622C165.209 70.5545 165.562 70.1117 165.804 69.5341C166.045 68.9564 166.166 68.2652 166.166 67.4602C166.166 66.6742 166.047 65.9806 165.811 65.3793C165.574 64.7779 165.224 64.3068 164.76 63.9659C164.296 63.625 163.723 63.4545 163.041 63.4545C162.331 63.4545 161.739 63.6345 161.265 63.9943C160.797 64.3542 160.444 64.8371 160.207 65.4432C159.975 66.0492 159.859 66.7216 159.859 67.4602C159.859 68.2178 159.977 68.8878 160.214 69.4702C160.456 70.0478 160.811 70.5024 161.279 70.8338C161.753 71.1605 162.34 71.3239 163.041 71.3239ZM172.558 66.4375V73H170.882V62.0909H172.501V63.7955H172.643C172.899 63.2415 173.287 62.7964 173.808 62.4602C174.329 62.1193 175.001 61.9489 175.825 61.9489C176.564 61.9489 177.21 62.1004 177.764 62.4034C178.318 62.7017 178.749 63.1562 179.056 63.767C179.364 64.3731 179.518 65.1402 179.518 66.0682V73H177.842V66.1818C177.842 65.3248 177.619 64.6572 177.174 64.179C176.729 63.696 176.118 63.4545 175.342 63.4545C174.807 63.4545 174.329 63.5705 173.907 63.8026C173.491 64.0346 173.162 64.3731 172.92 64.8182C172.679 65.2633 172.558 65.803 172.558 66.4375ZM182.581 73V62.0909H184.2V63.7955H184.342C184.57 63.2131 184.937 62.7609 185.443 62.4389C185.95 62.1122 186.558 61.9489 187.268 61.9489C187.988 61.9489 188.587 62.1122 189.065 62.4389C189.548 62.7609 189.925 63.2131 190.195 63.7955H190.308C190.588 63.232 191.007 62.7846 191.565 62.4531C192.124 62.117 192.794 61.9489 193.575 61.9489C194.551 61.9489 195.348 62.2543 195.969 62.8651C196.589 63.4711 196.899 64.4157 196.899 65.6989V73H195.223V65.6989C195.223 64.8939 195.003 64.3187 194.562 63.973C194.122 63.6274 193.604 63.4545 193.007 63.4545C192.24 63.4545 191.646 63.6866 191.224 64.1506C190.803 64.6098 190.592 65.1922 190.592 65.8977V73H188.888V65.5284C188.888 64.9081 188.687 64.4086 188.284 64.0298C187.882 63.6463 187.363 63.4545 186.729 63.4545C186.293 63.4545 185.886 63.5705 185.507 63.8026C185.133 64.0346 184.83 64.3565 184.598 64.7685C184.371 65.1757 184.257 65.6468 184.257 66.1818V73H182.581ZM204.538 73.2273C203.487 73.2273 202.58 72.9953 201.817 72.5312C201.06 72.0625 200.475 71.4091 200.063 70.571C199.656 69.7282 199.452 68.7481 199.452 67.6307C199.452 66.5133 199.656 65.5284 200.063 64.6761C200.475 63.8191 201.048 63.1515 201.782 62.6733C202.521 62.1903 203.382 61.9489 204.367 61.9489C204.935 61.9489 205.496 62.0436 206.05 62.233C206.604 62.4223 207.109 62.7301 207.563 63.1562C208.018 63.5777 208.38 64.1364 208.65 64.8324C208.92 65.5284 209.055 66.3854 209.055 67.4034V68.1136H200.646V66.6648H207.35C207.35 66.0492 207.227 65.5 206.981 65.017C206.739 64.5341 206.394 64.1529 205.944 63.8736C205.499 63.5942 204.973 63.4545 204.367 63.4545C203.7 63.4545 203.122 63.6203 202.634 63.9517C202.151 64.2784 201.78 64.7045 201.519 65.2301C201.259 65.7557 201.129 66.3191 201.129 66.9205V67.8864C201.129 68.7102 201.271 69.4086 201.555 69.9815C201.844 70.5497 202.244 70.983 202.755 71.2812C203.266 71.5748 203.861 71.7216 204.538 71.7216C204.978 71.7216 205.376 71.66 205.731 71.5369C206.091 71.4091 206.401 71.2197 206.661 70.9688C206.922 70.7131 207.123 70.3958 207.265 70.017L208.884 70.4716C208.714 71.0208 208.427 71.5038 208.025 71.9205C207.622 72.3324 207.125 72.6544 206.533 72.8864C205.942 73.1136 205.276 73.2273 204.538 73.2273ZM213.281 66.4375V73H211.604V62.0909H213.224V63.7955H213.366C213.621 63.2415 214.01 62.7964 214.531 62.4602C215.051 62.1193 215.724 61.9489 216.548 61.9489C217.286 61.9489 217.933 62.1004 218.487 62.4034C219.04 62.7017 219.471 63.1562 219.779 63.767C220.087 64.3731 220.241 65.1402 220.241 66.0682V73H218.565V66.1818C218.565 65.3248 218.342 64.6572 217.897 64.179C217.452 63.696 216.841 63.4545 216.065 63.4545C215.53 63.4545 215.051 63.5705 214.63 63.8026C214.213 64.0346 213.884 64.3731 213.643 64.8182C213.401 65.2633 213.281 65.803 213.281 66.4375ZM228.048 62.0909V63.5114H222.395V62.0909H228.048ZM224.042 59.4773H225.718V69.875C225.718 70.3485 225.787 70.7036 225.924 70.9403C226.066 71.1723 226.246 71.3286 226.464 71.4091C226.687 71.4848 226.921 71.5227 227.167 71.5227C227.352 71.5227 227.503 71.5133 227.622 71.4943C227.74 71.4706 227.835 71.4517 227.906 71.4375L228.247 72.9432C228.133 72.9858 227.975 73.0284 227.771 73.071C227.567 73.1184 227.309 73.142 226.997 73.142C226.523 73.142 226.059 73.0402 225.605 72.8366C225.155 72.633 224.781 72.3229 224.483 71.9062C224.189 71.4896 224.042 70.964 224.042 70.3295V59.4773ZM238.101 64.5341L236.596 64.9602C236.501 64.7093 236.361 64.4654 236.176 64.2287C235.997 63.9872 235.75 63.7884 235.438 63.6321C235.125 63.4759 234.725 63.3977 234.238 63.3977C233.57 63.3977 233.014 63.5516 232.569 63.8594C232.128 64.1624 231.908 64.5483 231.908 65.017C231.908 65.4337 232.06 65.7628 232.363 66.0043C232.666 66.2457 233.139 66.447 233.783 66.608L235.402 67.0057C236.378 67.2424 237.105 67.6046 237.583 68.0923C238.061 68.5753 238.3 69.1979 238.3 69.9602C238.3 70.5852 238.12 71.1439 237.76 71.6364C237.405 72.1288 236.908 72.517 236.269 72.8011C235.63 73.0852 234.886 73.2273 234.039 73.2273C232.926 73.2273 232.005 72.9858 231.276 72.5028C230.547 72.0199 230.085 71.3144 229.891 70.3864L231.482 69.9886C231.633 70.5758 231.92 71.0161 232.341 71.3097C232.767 71.6032 233.324 71.75 234.01 71.75C234.792 71.75 235.412 71.5843 235.871 71.2528C236.335 70.9167 236.567 70.5142 236.567 70.0455C236.567 69.6667 236.435 69.3494 236.169 69.0938C235.904 68.8333 235.497 68.6392 234.948 68.5114L233.13 68.0852C232.131 67.8485 231.397 67.4815 230.928 66.9844C230.464 66.4825 230.232 65.8551 230.232 65.1023C230.232 64.4867 230.405 63.9422 230.75 63.4688C231.101 62.9953 231.577 62.6236 232.178 62.3537C232.784 62.0838 233.471 61.9489 234.238 61.9489C235.317 61.9489 236.165 62.1856 236.78 62.6591C237.4 63.1326 237.841 63.7576 238.101 64.5341Z" fill="white"/>
<path d="M10.1136 29V11.5455H12.2273V27.125H20.3409V29H10.1136ZM28.8295 29.2727C27.5682 29.2727 26.4801 28.9943 25.5653 28.4375C24.6562 27.875 23.9545 27.0909 23.4602 26.0852C22.9716 25.0739 22.7273 23.8977 22.7273 22.5568C22.7273 21.2159 22.9716 20.0341 23.4602 19.0114C23.9545 17.983 24.642 17.1818 25.5227 16.608C26.4091 16.0284 27.4432 15.7386 28.625 15.7386C29.3068 15.7386 29.9801 15.8523 30.6449 16.0795C31.3097 16.3068 31.9148 16.6761 32.4602 17.1875C33.0057 17.6932 33.4403 18.3636 33.7642 19.1989C34.0881 20.0341 34.25 21.0625 34.25 22.2841V23.1364H24.1591V21.3977H32.2045C32.2045 20.6591 32.0568 20 31.7614 19.4205C31.4716 18.8409 31.0568 18.3835 30.517 18.0483C29.983 17.7131 29.3523 17.5455 28.625 17.5455C27.8239 17.5455 27.1307 17.7443 26.5455 18.142C25.9659 18.5341 25.5199 19.0455 25.2074 19.6761C24.8949 20.3068 24.7386 20.983 24.7386 21.7045V22.8636C24.7386 23.8523 24.9091 24.6903 25.25 25.3778C25.5966 26.0597 26.0767 26.5795 26.6903 26.9375C27.304 27.2898 28.017 27.4659 28.8295 27.4659C29.358 27.4659 29.8352 27.392 30.2614 27.2443C30.6932 27.0909 31.0653 26.8636 31.3778 26.5625C31.6903 26.2557 31.9318 25.875 32.1023 25.4205L34.0455 25.9659C33.8409 26.625 33.4972 27.2045 33.0142 27.7045C32.5313 28.1989 31.9347 28.5852 31.2244 28.8636C30.5142 29.1364 29.7159 29.2727 28.8295 29.2727ZM43.0028 15.9091V17.6136H36.2188V15.9091H43.0028ZM38.196 12.7727H40.2074V25.25C40.2074 25.8182 40.2898 26.2443 40.4545 26.5284C40.625 26.8068 40.8409 26.9943 41.1023 27.0909C41.3693 27.1818 41.6506 27.2273 41.946 27.2273C42.1676 27.2273 42.3494 27.2159 42.4915 27.1932C42.6335 27.1648 42.7472 27.142 42.8324 27.125L43.2415 28.9318C43.1051 28.983 42.9148 29.0341 42.6705 29.0852C42.4261 29.142 42.1165 29.1705 41.7415 29.1705C41.1733 29.1705 40.6165 29.0483 40.071 28.804C39.5313 28.5597 39.0824 28.1875 38.7244 27.6875C38.3722 27.1875 38.196 26.5568 38.196 25.7955V12.7727ZM48.4808 11.5455V13.0795C48.4808 13.5455 48.3956 14.0426 48.2251 14.571C48.0604 15.0938 47.8161 15.6023 47.4922 16.0966C47.174 16.5852 46.7876 17.0114 46.3331 17.375L45.2422 16.4886C45.6001 15.9773 45.9098 15.446 46.1712 14.8949C46.4382 14.3381 46.5717 13.7443 46.5717 13.1136V11.5455H48.4808ZM58.5589 18.8409L56.7521 19.3523C56.6385 19.0511 56.4709 18.7585 56.2493 18.4744C56.0334 18.1847 55.7379 17.946 55.3629 17.7585C54.9879 17.571 54.5078 17.4773 53.9226 17.4773C53.1214 17.4773 52.4538 17.6619 51.9197 18.0312C51.3913 18.3949 51.1271 18.858 51.1271 19.4205C51.1271 19.9205 51.3089 20.3153 51.6726 20.6051C52.0362 20.8949 52.6044 21.1364 53.3771 21.3295L55.3203 21.8068C56.4908 22.0909 57.3629 22.5256 57.9368 23.1108C58.5107 23.6903 58.7976 24.4375 58.7976 25.3523C58.7976 26.1023 58.5817 26.7727 58.1499 27.3636C57.7237 27.9545 57.1271 28.4205 56.3601 28.7614C55.593 29.1023 54.701 29.2727 53.6839 29.2727C52.3487 29.2727 51.2436 28.983 50.3686 28.4034C49.4936 27.8239 48.9396 26.9773 48.7067 25.8636L50.6158 25.3864C50.7976 26.0909 51.1413 26.6193 51.647 26.9716C52.1584 27.3239 52.826 27.5 53.6499 27.5C54.5874 27.5 55.3317 27.3011 55.8828 26.9034C56.4396 26.5 56.718 26.017 56.718 25.4545C56.718 25 56.5589 24.6193 56.2408 24.3125C55.9226 24 55.4339 23.767 54.7749 23.6136L52.593 23.1023C51.3942 22.8182 50.5135 22.3778 49.951 21.7812C49.3942 21.179 49.1158 20.4261 49.1158 19.5227C49.1158 18.7841 49.3232 18.1307 49.7379 17.5625C50.1584 16.9943 50.7294 16.5483 51.451 16.2244C52.1783 15.9006 53.0021 15.7386 53.9226 15.7386C55.218 15.7386 56.2351 16.0227 56.9737 16.5909C57.718 17.1591 58.2464 17.9091 58.5589 18.8409Z" fill="white"/>
</svg>
