<svg width="89" height="39" viewBox="0 0 89 39" fill="none" xmlns="http://www.w3.org/2000/svg">
<path opacity="0.85" d="M44.12 10.52V23H42.38V10.52H39.3V9H47.2V10.52H44.12ZM47.9047 23V13H49.3047L49.4247 14.02C49.6514 13.6733 49.9314 13.3933 50.2647 13.18C50.598 12.9667 51.0114 12.86 51.5047 12.86C51.7447 12.86 51.9514 12.8733 52.1247 12.9C52.298 12.9133 52.4447 12.9333 52.5647 12.96V14.74C52.3914 14.7 52.1914 14.66 51.9647 14.62C51.7514 14.58 51.5514 14.56 51.3647 14.56C51.0314 14.56 50.7514 14.6267 50.5247 14.76C50.3114 14.8933 50.1314 15.0733 49.9847 15.3C49.8514 15.5133 49.7514 15.76 49.6847 16.04C49.6314 16.3067 49.6047 16.5733 49.6047 16.84V23H47.9047ZM54.5625 10.8V9H56.4625V10.8H54.5625ZM54.6625 23V13H56.3625V23H54.6625ZM59.5648 26.4V13H60.9648L61.1248 13.86C61.7648 13.1933 62.5515 12.86 63.4848 12.86C64.6582 12.86 65.4782 13.24 65.9448 14C66.4115 14.7467 66.6448 15.8667 66.6448 17.36C66.6448 18.4533 66.5715 19.3733 66.4248 20.12C66.2782 20.8533 66.0382 21.4467 65.7048 21.9C65.3715 22.34 64.9315 22.66 64.3848 22.86C63.8515 23.0467 63.1848 23.14 62.3848 23.14C62.1582 23.14 61.9515 23.1333 61.7648 23.12C61.5782 23.1067 61.4115 23.0867 61.2648 23.06V26.4H59.5648ZM63.1648 14.3C62.8848 14.3 62.6248 14.3533 62.3848 14.46C62.1582 14.5667 61.9582 14.7067 61.7848 14.88C61.6248 15.0533 61.4982 15.24 61.4048 15.44C61.3115 15.6267 61.2648 15.8133 61.2648 16V21.62C61.4115 21.6467 61.5915 21.6667 61.8048 21.68C62.0182 21.6933 62.2782 21.7 62.5848 21.7C63.0648 21.7 63.4515 21.6133 63.7448 21.44C64.0515 21.2667 64.2848 21.0067 64.4448 20.66C64.6182 20.3133 64.7382 19.8867 64.8048 19.38C64.8715 18.86 64.9048 18.2533 64.9048 17.56C64.9048 16.92 64.8715 16.3933 64.8048 15.98C64.7515 15.5667 64.6515 15.2333 64.5048 14.98C64.3715 14.7267 64.1915 14.5533 63.9648 14.46C63.7515 14.3533 63.4848 14.3 63.1648 14.3ZM69.5453 26.4V13H70.9453L71.1053 13.86C71.7453 13.1933 72.532 12.86 73.4653 12.86C74.6386 12.86 75.4586 13.24 75.9253 14C76.392 14.7467 76.6253 15.8667 76.6253 17.36C76.6253 18.4533 76.552 19.3733 76.4053 20.12C76.2586 20.8533 76.0186 21.4467 75.6853 21.9C75.352 22.34 74.912 22.66 74.3653 22.86C73.832 23.0467 73.1653 23.14 72.3653 23.14C72.1386 23.14 71.932 23.1333 71.7453 23.12C71.5586 23.1067 71.392 23.0867 71.2453 23.06V26.4H69.5453ZM73.1453 14.3C72.8653 14.3 72.6053 14.3533 72.3653 14.46C72.1386 14.5667 71.9386 14.7067 71.7653 14.88C71.6053 15.0533 71.4786 15.24 71.3853 15.44C71.292 15.6267 71.2453 15.8133 71.2453 16V21.62C71.392 21.6467 71.572 21.6667 71.7853 21.68C71.9986 21.6933 72.2586 21.7 72.5653 21.7C73.0453 21.7 73.432 21.6133 73.7253 21.44C74.032 21.2667 74.2653 21.0067 74.4253 20.66C74.5986 20.3133 74.7186 19.8867 74.7853 19.38C74.852 18.86 74.8853 18.2533 74.8853 17.56C74.8853 16.92 74.852 16.3933 74.7853 15.98C74.732 15.5667 74.632 15.2333 74.4853 14.98C74.352 14.7267 74.172 14.5533 73.9453 14.46C73.732 14.3533 73.4653 14.3 73.1453 14.3ZM86.8258 17.8C86.8258 18.8533 86.7458 19.7267 86.5858 20.42C86.4258 21.1 86.1858 21.6467 85.8658 22.06C85.5458 22.46 85.1458 22.74 84.6658 22.9C84.1991 23.06 83.6524 23.14 83.0258 23.14C82.4124 23.14 81.8658 23.06 81.3858 22.9C80.9191 22.74 80.5258 22.46 80.2058 22.06C79.8858 21.6467 79.6391 21.1 79.4658 20.42C79.3058 19.7267 79.2258 18.8533 79.2258 17.8C79.2258 16.0933 79.5324 14.8467 80.1458 14.06C80.7591 13.26 81.7191 12.86 83.0258 12.86C84.3324 12.86 85.2924 13.26 85.9058 14.06C86.5191 14.8467 86.8258 16.0933 86.8258 17.8ZM85.0858 18.1C85.0858 17.3933 85.0524 16.7933 84.9858 16.3C84.9191 15.8067 84.8058 15.4133 84.6458 15.12C84.4991 14.8133 84.2924 14.5933 84.0258 14.46C83.7591 14.3267 83.4258 14.26 83.0258 14.26C82.6258 14.26 82.2924 14.3267 82.0258 14.46C81.7591 14.5933 81.5458 14.8133 81.3858 15.12C81.2391 15.4133 81.1324 15.8067 81.0658 16.3C80.9991 16.7933 80.9658 17.3933 80.9658 18.1C80.9658 19.4067 81.1191 20.34 81.4258 20.9C81.7324 21.46 82.2658 21.74 83.0258 21.74C83.7858 21.74 84.3191 21.46 84.6258 20.9C84.9324 20.34 85.0858 19.4067 85.0858 18.1Z" fill="white"/>
<g filter="url(#filter0_d_293_6)">
<rect x="2" width="30" height="30" rx="14" fill="#FF7F65"/>
</g>
<path d="M20.5057 7.3359L20.7413 8.04794L20.7428 8.04743C22.3433 7.51406 23.3097 7.77115 23.7686 8.23065C24.2283 8.69094 24.4848 9.66026 23.9557 11.2604C23.9556 11.2607 23.9555 11.261 23.9554 11.2612L21.4067 18.9059L21.4065 18.9062C20.9947 20.1437 20.5348 21.013 20.0845 21.5582C19.6322 22.1058 19.2589 22.25 19.0013 22.25C18.7437 22.25 18.3704 22.1058 17.9182 21.5582C17.4679 21.013 17.008 20.1437 16.5961 18.9062C16.3775 18.2493 16.2424 17.7288 16.166 17.3219C16.1968 17.3124 16.227 17.3021 16.2566 17.2912C16.6744 17.136 17.022 16.7972 17.0619 16.3002C17.0957 15.8787 16.8881 15.5313 16.6791 15.3223C16.4701 15.1133 16.1227 14.9059 15.7013 14.9397C15.2044 14.9796 14.8655 15.3269 14.7103 15.7448C14.6993 15.7744 14.689 15.8046 14.6795 15.8354C14.2725 15.759 13.7518 15.624 13.0945 15.4053C11.8565 14.9935 10.9869 14.5341 10.4415 14.0845C9.89372 13.6328 9.75 13.2606 9.75 13.0042C9.75 12.7476 9.89395 12.3746 10.4421 11.9217C10.9877 11.471 11.8576 11.01 13.0956 10.5959C15.6671 9.73597 17.5787 9.09891 18.8473 8.67687C19.4817 8.46585 19.9553 8.30858 20.2702 8.20409L20.6239 8.08681L20.712 8.05762L20.734 8.05035L20.7395 8.04854L20.7408 8.04809L20.7412 8.04798L20.7413 8.04795L20.5057 7.3359Z" stroke="white" stroke-width="1.5" stroke-linecap="round" stroke-linejoin="round"/>
<defs>
<filter id="filter0_d_293_6" x="0" y="0" width="34" height="39" filterUnits="userSpaceOnUse" color-interpolation-filters="sRGB">
<feFlood flood-opacity="0" result="BackgroundImageFix"/>
<feColorMatrix in="SourceAlpha" type="matrix" values="0 0 0 0 0 0 0 0 0 0 0 0 0 0 0 0 0 0 127 0" result="hardAlpha"/>
<feMorphology radius="3" operator="erode" in="SourceAlpha" result="effect1_dropShadow_293_6"/>
<feOffset dy="7"/>
<feGaussianBlur stdDeviation="2.5"/>
<feComposite in2="hardAlpha" operator="out"/>
<feColorMatrix type="matrix" values="0 0 0 0 0 0 0 0 0 0 0 0 0 0 0 0 0 0 0.14 0"/>
<feBlend mode="normal" in2="BackgroundImageFix" result="effect1_dropShadow_293_6"/>
<feBlend mode="normal" in="SourceGraphic" in2="effect1_dropShadow_293_6" result="shape"/>
</filter>
</defs>
</svg>
