<svg width="74" height="110" viewBox="0 0 74 110" fill="none" xmlns="http://www.w3.org/2000/svg">
<path d="M3.40439 6.03875C7.20068 4.5908 10.1753 4.31732 13.9133 5.81218C16.6228 6.8957 19.2826 9.43671 20.0359 12.3941C21.0296 16.2946 21.1807 24.5449 14.9203 22.2722C13.0294 21.5858 13.3109 20.0595 15.1377 19.1926C17.5078 18.0678 20.3194 19.4737 22.4731 22.4258C25.1123 26.0433 25.601 29.0555 25.7184 34.8481" stroke="white" stroke-linecap="round"/>
<path d="M21.7367 30.3392C22.7582 31.4766 23.5924 32.7099 24.1084 33.6319C24.5291 34.3838 25.3588 35.8195 25.7631 35.3C26.2541 34.6691 26.7899 33.8489 27.3522 32.8605C27.8311 32.0188 28.5038 31.1545 29.3446 30.0741" stroke="white" stroke-linecap="round"/>
<path d="M13.3717 51.6302C26.614 41.5912 49.13 38.7985 59.2268 47.4035C71.6408 57.9833 73.8425 72.6239 67.129 87.9885C62.2061 99.2553 57.6543 105.18 45.338 106.926C34.0139 108.53 22.8761 102.717 16.7156 97.9044C9.46183 92.2382 1.92022 83.0564 0.962729 70.9898C-0.456454 53.1047 21.1473 44.9333 32.7665 42.6459C39.1007 41.399 44.9941 42.5494 51.8035 45.7279C59.1607 49.1621 63.3888 54.6533 67.129 59.6573C74.7032 69.7905 67.7684 83.1455 61.4027 93.2736C55.0993 103.303 42.7217 111.549 30.365 107.457C18.294 103.459 5.14115 93.6691 2.12394 80.886C0.709922 74.8952 0.527902 67.3691 1.88074 61.377C3.53395 54.0544 10.2707 50.2472 16.7156 47.4035C26.1108 43.258 30.0625 40.5869 40.3093 39.5894C46.7371 38.9637 57.8864 43.2758 62.5793 47.4035C71.0647 54.8671 72.9746 61.6551 72.8937 72.3284C72.7942 85.4552 66.3558 95.4301 54.4717 101.203C46.5633 105.044 36.3375 105.963 27.6594 104.883C22.9844 104.302 16.4374 103.738 13.3717 99.6769C8.64948 93.4221 3.71062 80.3833 3.4321 72.8785C3.10207 63.9856 8.70027 55.1716 13.3717 51.6302Z" stroke="white" stroke-linecap="round"/>
<path d="M27.5524 73.5129L27.6461 73.5598C27.6461 74.2161 27.5367 74.5442 27.318 74.5442C27.193 74.5442 23.8805 75.1692 17.3805 76.4192L17.3336 76.3254C17.7711 74.5129 18.0211 73.5754 18.0836 73.5129H27.5524ZM27.3649 75.6692C27.3649 75.7004 27.3805 75.7161 27.4117 75.7161C27.2711 77.0598 27.1617 77.7317 27.0836 77.7317H20.9899L20.6149 79.2317H20.6617C21.5367 78.9192 22.2555 78.7629 22.818 78.7629C24.8805 78.7629 26.2711 79.8411 26.9899 81.9973C27.0836 82.3567 27.1461 82.8411 27.1774 83.4504C27.1774 85.5989 26.3492 87.4895 24.693 89.1223C23.6071 90.0598 22.2477 90.5286 20.6149 90.5286H20.3805C17.8414 90.5286 16.1696 89.5754 15.3649 87.6692C15.1461 86.9817 14.9899 86.2629 14.8961 85.5129C15.0758 85.4504 16.5758 85.2473 19.3961 84.9036L19.443 84.9973V85.2317C19.443 86.5129 19.9117 87.1536 20.8492 87.1536C21.8492 87.1536 22.4586 86.2629 22.6774 84.4817V83.7317C22.5602 82.7317 22.1696 82.2317 21.5055 82.2317H21.0836C20.5992 82.2317 20.0211 82.6067 19.3492 83.3567H19.3024C16.9274 82.9895 15.7399 82.7708 15.7399 82.7004C16.5524 79.4114 16.9899 77.6926 17.0524 77.5442C23.4899 76.3567 26.9274 75.7317 27.3649 75.6692ZM34.6305 73.2317H35.0055C37.2711 73.2317 38.7555 74.2942 39.4586 76.4192C39.7086 77.3645 39.8336 78.4583 39.8336 79.7004C39.8336 82.6301 39.2711 85.2551 38.1461 87.5754C32.3336 88.6692 29.3649 89.2161 29.2399 89.2161C28.2399 88.2864 27.7399 86.5989 27.7399 84.1536C27.7399 81.2317 28.2711 78.5911 29.3336 76.2317C30.5524 74.2317 32.318 73.2317 34.6305 73.2317ZM32.0992 84.1536V84.6692C32.0992 86.1067 32.5055 86.8254 33.318 86.8254C34.5133 86.8254 35.2321 84.5129 35.4742 79.8879V78.8567C35.4742 77.5129 35.0836 76.8411 34.3024 76.8411C33.1852 76.8411 32.4977 78.6067 32.2399 82.1379C32.1461 82.6145 32.0992 83.2864 32.0992 84.1536ZM37.6305 88.2786L37.6774 88.3723C36.5602 89.8098 34.9977 90.5286 32.9899 90.5286H32.7086C31.4352 90.5286 30.4821 90.2629 29.8492 89.7317C29.8492 89.6692 32.443 89.1848 37.6305 88.2786Z" fill="#8CFF45"/>
<path d="M47.6071 74.6458H47.8024C49.163 74.6458 50.0615 75.3359 50.4977 76.7161C50.5758 76.9114 50.6279 77.289 50.6539 77.8489C50.5367 79.3333 50.3024 80.0754 49.9508 80.0754L44.443 81.0911C44.0784 80.5377 43.8961 79.8346 43.8961 78.9817C43.8961 77.3997 44.4821 76.1497 45.6539 75.2317C46.2659 74.8411 46.917 74.6458 47.6071 74.6458ZM54.2086 74.6458H56.2399C56.292 74.6523 56.318 74.6783 56.318 74.7239C54.6318 77.6861 53.7334 79.2356 53.6227 79.3723C53.5511 79.3723 52.7698 79.5155 51.2789 79.802C51.2789 79.7109 51.9951 78.4218 53.4274 75.9348C53.9091 75.0754 54.1696 74.6458 54.2086 74.6458ZM46.5524 79.177C46.5524 79.828 46.7086 80.1536 47.0211 80.1536H47.1383C47.6005 80.1536 47.874 79.3853 47.9586 77.8489V77.6536C47.9586 77.0546 47.8024 76.7551 47.4899 76.7551H47.4117C46.917 76.7551 46.6305 77.5624 46.5524 79.177ZM53.0758 80.2708C53.0758 80.2968 53.0888 80.3098 53.1149 80.3098C49.7099 86.2799 47.9521 89.3528 47.8414 89.5286H45.7321C45.9013 89.1119 47.2295 86.7551 49.7164 82.4583C50.3349 81.2864 50.6995 80.7004 50.8102 80.7004C50.999 80.6484 51.7542 80.5051 53.0758 80.2708ZM49.5992 80.9348V80.9739C48.8636 81.8333 47.9521 82.2629 46.8649 82.2629C46.1552 82.2629 45.5823 82.0937 45.1461 81.7551C47.8479 81.2083 49.3323 80.9348 49.5992 80.9348ZM55.1461 81.8723C56.5263 81.8723 57.4638 82.5364 57.9586 83.8645C58.0628 84.3788 58.1149 84.7694 58.1149 85.0364C58.1149 86.9895 57.3597 88.3697 55.8492 89.177C55.4326 89.3853 54.9899 89.4895 54.5211 89.4895H54.1305C52.8805 89.4895 52.0211 88.8645 51.5524 87.6145C51.4222 87.1392 51.3571 86.6965 51.3571 86.2864C51.3571 84.7369 51.9039 83.4999 52.9977 82.5754C53.6683 82.1067 54.3844 81.8723 55.1461 81.8723ZM54.0133 86.3645C54.0133 87.0676 54.1956 87.4192 54.5602 87.4192H54.5992C55.0289 87.4192 55.3024 86.7421 55.4196 85.3879V84.8801C55.4196 84.3072 55.2763 84.0208 54.9899 84.0208H54.8336C54.4365 84.0208 54.1761 84.6588 54.0524 85.9348C54.0263 86.1106 54.0133 86.2538 54.0133 86.3645Z" fill="#8CFF45"/>
<path d="M28.1646 57.0811C28.1679 56.5806 28.0055 56.1978 27.6774 55.9327C27.3526 55.6675 26.8985 55.535 26.3152 55.535C25.8975 55.535 25.5247 55.6012 25.1965 55.7338C24.8717 55.8631 24.6066 56.0421 24.4011 56.2708C24.1989 56.4961 24.0746 56.753 24.0282 57.0413C23.9851 57.2833 24.0067 57.4921 24.0929 57.6678C24.1823 57.8434 24.3099 57.9909 24.4757 58.1102C24.6447 58.2262 24.8303 58.324 25.0325 58.4036C25.2347 58.4798 25.4302 58.5428 25.6191 58.5925L26.5737 58.851C26.8819 58.9306 27.1951 59.0383 27.5133 59.1742C27.8315 59.3101 28.1182 59.489 28.3734 59.7111C28.6286 59.9332 28.8192 60.2083 28.9451 60.5364C29.0711 60.8645 29.0959 61.2573 29.0197 61.7146C28.9203 62.2913 28.6866 62.8034 28.3187 63.2509C27.9508 63.6983 27.4652 64.0513 26.862 64.3098C26.2588 64.5683 25.5595 64.6976 24.764 64.6976C24.0017 64.6976 23.3604 64.5766 22.84 64.3347C22.323 64.0927 21.9435 63.7497 21.7015 63.3056C21.4596 62.8581 21.3734 62.3278 21.443 61.7146H22.9892C22.9527 62.0825 23.019 62.3891 23.188 62.6344C23.3604 62.8763 23.6023 63.057 23.9139 63.1763C24.2254 63.2923 24.5784 63.3503 24.9728 63.3503C25.4103 63.3503 25.8097 63.2824 26.171 63.1465C26.5322 63.0073 26.8305 62.815 27.0659 62.5698C27.3012 62.3212 27.4454 62.0312 27.4984 61.6997C27.5514 61.3981 27.5083 61.1512 27.3691 60.959C27.2332 60.7667 27.0277 60.6076 26.7527 60.4817C26.4809 60.3557 26.171 60.2447 25.823 60.1486L24.6745 59.8205C23.8956 59.5984 23.3057 59.2719 22.9046 58.8411C22.5036 58.4102 22.3594 57.8401 22.4721 57.1308C22.5715 56.5442 22.8168 56.0321 23.2079 55.5946C23.599 55.1571 24.0862 54.8174 24.6696 54.5754C25.2529 54.3302 25.8859 54.2075 26.5687 54.2075C27.2581 54.2075 27.8447 54.3302 28.3286 54.5754C28.8125 54.8207 29.1705 55.1588 29.4025 55.5896C29.6345 56.0205 29.7157 56.5177 29.6461 57.0811H28.1646ZM32.4712 64.6976C31.9873 64.6976 31.5647 64.6081 31.2035 64.4291C30.8422 64.2468 30.5754 63.9833 30.403 63.6386C30.2307 63.294 30.186 62.8714 30.2688 62.3709C30.3417 61.94 30.4842 61.5854 30.6964 61.307C30.9118 61.0286 31.1736 60.8082 31.4819 60.6458C31.7901 60.48 32.1249 60.3557 32.4861 60.2729C32.8474 60.19 33.212 60.1287 33.5799 60.0889C34.0439 60.0359 34.4201 59.9912 34.7084 59.9547C35.0001 59.9182 35.2189 59.8619 35.3647 59.7857C35.5105 59.7061 35.5984 59.5769 35.6282 59.3979V59.3631C35.6978 58.9322 35.6348 58.5975 35.4393 58.3588C35.247 58.1169 34.9123 57.9959 34.435 57.9959C33.9378 57.9959 33.5202 58.1053 33.1822 58.324C32.8474 58.5428 32.6005 58.788 32.4414 59.0598L31.109 58.7416C31.3476 58.2776 31.6509 57.9031 32.0188 57.6181C32.39 57.3297 32.796 57.1209 33.2368 56.9916C33.6777 56.8591 34.1284 56.7928 34.5891 56.7928C34.894 56.7928 35.2106 56.8292 35.5387 56.9021C35.8668 56.9717 36.1651 57.101 36.4336 57.2899C36.7054 57.4788 36.9075 57.749 37.0401 58.1003C37.1727 58.4483 37.1926 58.9007 37.0998 59.4575L36.2596 64.5286H34.8079L34.9868 63.4845H34.9272C34.8012 63.6768 34.6256 63.8657 34.4002 64.0513C34.1781 64.2369 33.9064 64.391 33.5849 64.5136C33.2634 64.6363 32.8922 64.6976 32.4712 64.6976ZM32.9783 63.5044C33.3926 63.5044 33.7589 63.4232 34.077 63.2608C34.3985 63.0984 34.6587 62.8863 34.8576 62.6244C35.0565 62.3593 35.1807 62.0759 35.2305 61.7743L35.3945 60.7899C35.3315 60.843 35.2205 60.891 35.0614 60.9341C34.9056 60.9772 34.73 61.0153 34.5344 61.0485C34.3389 61.0816 34.1467 61.1098 33.9577 61.133C33.7721 61.1562 33.618 61.1777 33.4954 61.1976C33.2037 61.2341 32.9303 61.2954 32.6751 61.3815C32.4232 61.4677 32.2127 61.592 32.0437 61.7544C31.8746 61.9135 31.7686 62.1256 31.7255 62.3908C31.6658 62.7587 31.7537 63.0371 31.989 63.226C32.2276 63.4116 32.5574 63.5044 32.9783 63.5044ZM45.7715 56.8922L41.7296 64.5286H40.1387L38.6372 56.8922H40.1735L41.128 62.7686H41.2076L44.1159 56.8922H45.7715ZM48.9073 64.6827C48.1583 64.6827 47.5385 64.5219 47.0479 64.2004C46.5607 63.8756 46.2193 63.4199 46.0238 62.8333C45.8282 62.2433 45.7967 61.5522 45.9293 60.7601C46.0586 59.9779 46.3188 59.2885 46.7099 58.6919C47.101 58.0953 47.5882 57.6297 48.1715 57.2949C48.7582 56.9601 49.4061 56.7928 50.1154 56.7928C50.5463 56.7928 50.9523 56.864 51.3334 57.0065C51.7179 57.1491 52.0444 57.3728 52.3128 57.6777C52.5813 57.9826 52.7669 58.3787 52.8697 58.8659C52.9757 59.3498 52.9724 59.9381 52.8597 60.6308L52.7752 61.1578H46.6999L46.8739 60.0442H51.4876C51.5572 59.6531 51.5389 59.3067 51.4329 59.0051C51.3268 58.7002 51.1445 58.4599 50.886 58.2842C50.6308 58.1086 50.3093 58.0208 49.9215 58.0208C49.5238 58.0208 49.1526 58.1252 48.8079 58.334C48.4632 58.5428 48.1748 58.8096 47.9428 59.1344C47.7141 59.4559 47.5699 59.7873 47.5103 60.1287L47.3363 61.1479C47.2501 61.7047 47.265 62.1521 47.381 62.4902C47.5003 62.8283 47.7092 63.0735 48.0074 63.226C48.3057 63.3785 48.6786 63.4547 49.1261 63.4547C49.4144 63.4547 49.6812 63.4149 49.9265 63.3354C50.1751 63.2525 50.3955 63.1315 50.5877 62.9725C50.7799 62.8101 50.9407 62.6079 51.0699 62.3659L52.4322 62.6195C52.2499 63.0338 51.988 63.3967 51.6467 63.7083C51.3053 64.0165 50.9026 64.2568 50.4386 64.4291C49.9779 64.5982 49.4674 64.6827 48.9073 64.6827Z" fill="white"/>
</svg>
