<svg width="242" height="76" viewBox="0 0 242 76" fill="none" xmlns="http://www.w3.org/2000/svg">
<path d="M1.584 29H13.608V25.76H5.304V21.656H13.128V18.416H5.304V14.36H13.608V11.12H1.584V29ZM15.4528 29H19.0528V21.344C19.0528 20.592 19.2768 19.992 19.7248 19.544C20.1728 19.08 20.7488 18.848 21.4528 18.848C22.1568 18.848 22.7328 19.08 23.1808 19.544C23.6288 19.992 23.8528 20.592 23.8528 21.344V29H27.4528V20.576C27.4528 19.584 27.2448 18.72 26.8288 17.984C26.4128 17.232 25.8288 16.648 25.0768 16.232C24.3408 15.816 23.4768 15.608 22.4848 15.608C21.6528 15.608 20.9168 15.768 20.2768 16.088C19.6368 16.392 19.1488 16.864 18.8128 17.504V15.896H15.4528V29ZM29.82 14.72H33.42V11.12H29.82V14.72ZM28.236 34.328C29.868 34.328 31.14 33.904 32.052 33.056C32.964 32.224 33.42 31.032 33.42 29.48V15.896H29.82V29.48C29.82 30.632 29.132 31.208 27.756 31.208C27.484 31.208 27.212 31.184 26.94 31.136V34.208C27.292 34.288 27.724 34.328 28.236 34.328ZM42.5584 29.288C43.8544 29.288 45.0304 28.992 46.0864 28.4C47.1424 27.808 47.9824 27 48.6064 25.976C49.2464 24.936 49.5664 23.76 49.5664 22.448C49.5664 21.12 49.2464 19.944 48.6064 18.92C47.9824 17.896 47.1424 17.088 46.0864 16.496C45.0304 15.904 43.8544 15.608 42.5584 15.608C41.2624 15.608 40.0784 15.904 39.0064 16.496C37.9504 17.088 37.1024 17.896 36.4624 18.92C35.8384 19.944 35.5264 21.12 35.5264 22.448C35.5264 23.76 35.8384 24.936 36.4624 25.976C37.1024 27 37.9504 27.808 39.0064 28.4C40.0784 28.992 41.2624 29.288 42.5584 29.288ZM42.5584 26.048C41.5824 26.048 40.7824 25.712 40.1584 25.04C39.5504 24.368 39.2464 23.504 39.2464 22.448C39.2464 21.408 39.5504 20.552 40.1584 19.88C40.7824 19.192 41.5824 18.848 42.5584 18.848C43.5344 18.848 44.3264 19.192 44.9344 19.88C45.5424 20.552 45.8464 21.408 45.8464 22.448C45.8464 23.504 45.5424 24.368 44.9344 25.04C44.3264 25.712 43.5344 26.048 42.5584 26.048ZM53.4928 34.328C55.8928 34.328 57.6288 32.96 58.7008 30.224L64.3168 15.896H60.4528L57.3568 24.32L54.2608 15.896H50.3968L55.5568 29L55.3168 29.552C55.1248 29.984 54.8768 30.368 54.5728 30.704C54.2688 31.04 53.7648 31.208 53.0608 31.208C52.4848 31.208 51.9408 31.128 51.4288 30.968V33.92C51.7008 34.064 52.0128 34.168 52.3648 34.232C52.7328 34.296 53.1088 34.328 53.4928 34.328ZM72.2428 34.328C74.6428 34.328 76.3788 32.96 77.4508 30.224L83.0668 15.896H79.2028L76.1068 24.32L73.0108 15.896H69.1468L74.3068 29L74.0668 29.552C73.8748 29.984 73.6268 30.368 73.3228 30.704C73.0188 31.04 72.5148 31.208 71.8108 31.208C71.2348 31.208 70.6908 31.128 70.1788 30.968V33.92C70.4508 34.064 70.7628 34.168 71.1148 34.232C71.4828 34.296 71.8588 34.328 72.2428 34.328ZM90.9099 29.288C92.2059 29.288 93.3819 28.992 94.4379 28.4C95.4939 27.808 96.3339 27 96.9579 25.976C97.5979 24.936 97.9179 23.76 97.9179 22.448C97.9179 21.12 97.5979 19.944 96.9579 18.92C96.3339 17.896 95.4939 17.088 94.4379 16.496C93.3819 15.904 92.2059 15.608 90.9099 15.608C89.6139 15.608 88.4299 15.904 87.3579 16.496C86.3019 17.088 85.4539 17.896 84.8139 18.92C84.1899 19.944 83.8779 21.12 83.8779 22.448C83.8779 23.76 84.1899 24.936 84.8139 25.976C85.4539 27 86.3019 27.808 87.3579 28.4C88.4299 28.992 89.6139 29.288 90.9099 29.288ZM90.9099 26.048C89.9339 26.048 89.1339 25.712 88.5099 25.04C87.9019 24.368 87.5979 23.504 87.5979 22.448C87.5979 21.408 87.9019 20.552 88.5099 19.88C89.1339 19.192 89.9339 18.848 90.9099 18.848C91.8859 18.848 92.6779 19.192 93.2859 19.88C93.8939 20.552 94.1979 21.408 94.1979 22.448C94.1979 23.504 93.8939 24.368 93.2859 25.04C92.6779 25.712 91.8859 26.048 90.9099 26.048ZM104.743 29.288C105.575 29.288 106.311 29.136 106.951 28.832C107.591 28.512 108.079 28.032 108.415 27.392V29H111.775V15.896H108.175V23.552C108.175 24.304 107.951 24.912 107.503 25.376C107.055 25.824 106.479 26.048 105.775 26.048C105.071 26.048 104.495 25.824 104.047 25.376C103.599 24.912 103.375 24.304 103.375 23.552V15.896H99.7748V23.84C99.7748 25.472 100.199 26.792 101.047 27.8C101.911 28.792 103.143 29.288 104.743 29.288ZM114.406 29H118.006V21.944C118.006 20.968 118.278 20.216 118.822 19.688C119.366 19.144 120.078 18.872 120.958 18.872H122.086V15.752H121.318C120.518 15.752 119.806 15.904 119.182 16.208C118.574 16.496 118.102 17.048 117.766 17.864V15.896H114.406V29ZM127.976 29H131.576V21.344C131.576 20.592 131.8 19.992 132.248 19.544C132.696 19.08 133.272 18.848 133.976 18.848C134.68 18.848 135.256 19.08 135.704 19.544C136.152 19.992 136.376 20.592 136.376 21.344V29H139.976V20.576C139.976 19.584 139.768 18.72 139.352 17.984C138.936 17.232 138.352 16.648 137.6 16.232C136.864 15.816 136 15.608 135.008 15.608C134.272 15.608 133.608 15.736 133.016 15.992C132.424 16.232 131.944 16.608 131.576 17.12V10.832H127.976V29ZM148.847 29.288C150.143 29.288 151.319 28.992 152.375 28.4C153.431 27.808 154.271 27 154.895 25.976C155.535 24.936 155.855 23.76 155.855 22.448C155.855 21.12 155.535 19.944 154.895 18.92C154.271 17.896 153.431 17.088 152.375 16.496C151.319 15.904 150.143 15.608 148.847 15.608C147.551 15.608 146.367 15.904 145.295 16.496C144.239 17.088 143.391 17.896 142.751 18.92C142.127 19.944 141.815 21.12 141.815 22.448C141.815 23.76 142.127 24.936 142.751 25.976C143.391 27 144.239 27.808 145.295 28.4C146.367 28.992 147.551 29.288 148.847 29.288ZM148.847 26.048C147.871 26.048 147.071 25.712 146.447 25.04C145.839 24.368 145.535 23.504 145.535 22.448C145.535 21.408 145.839 20.552 146.447 19.88C147.071 19.192 147.871 18.848 148.847 18.848C149.823 18.848 150.615 19.192 151.223 19.88C151.831 20.552 152.135 21.408 152.135 22.448C152.135 23.504 151.831 24.368 151.223 25.04C150.615 25.712 149.823 26.048 148.847 26.048ZM157.976 29H161.576V10.832H157.976V29ZM164.211 14.72H167.811V11.12H164.211V14.72ZM164.211 29H167.811V15.896H164.211V29ZM176.613 29.288C177.413 29.288 178.157 29.16 178.845 28.904C179.549 28.632 180.133 28.248 180.597 27.752V29H183.957V10.832H180.357V17C179.429 16.072 178.173 15.608 176.589 15.608C175.341 15.608 174.213 15.912 173.205 16.52C172.197 17.128 171.397 17.952 170.805 18.992C170.213 20.016 169.917 21.168 169.917 22.448C169.917 23.712 170.205 24.864 170.781 25.904C171.373 26.944 172.173 27.768 173.181 28.376C174.189 28.984 175.333 29.288 176.613 29.288ZM177.045 26.048C176.053 26.048 175.237 25.712 174.597 25.04C173.957 24.368 173.637 23.504 173.637 22.448C173.637 21.408 173.957 20.552 174.597 19.88C175.237 19.192 176.053 18.848 177.045 18.848C178.021 18.848 178.813 19.184 179.421 19.856C180.045 20.528 180.357 21.392 180.357 22.448C180.357 23.52 180.045 24.392 179.421 25.064C178.813 25.72 178.021 26.048 177.045 26.048ZM190.649 29.288C192.281 29.288 193.593 28.784 194.585 27.776V29H197.945V20.36C197.945 19.416 197.705 18.592 197.225 17.888C196.761 17.168 196.105 16.608 195.257 16.208C194.409 15.808 193.433 15.608 192.329 15.608C190.937 15.608 189.713 15.928 188.657 16.568C187.617 17.208 186.905 18.072 186.521 19.16L189.401 20.528C189.625 19.952 189.977 19.488 190.457 19.136C190.953 18.784 191.521 18.608 192.161 18.608C192.833 18.608 193.361 18.776 193.745 19.112C194.145 19.448 194.345 19.864 194.345 20.36V20.72L190.721 21.296C189.153 21.552 187.985 22.04 187.217 22.76C186.449 23.48 186.065 24.392 186.065 25.496C186.065 26.68 186.473 27.608 187.289 28.28C188.121 28.952 189.241 29.288 190.649 29.288ZM189.785 25.376C189.785 24.944 189.921 24.616 190.193 24.392C190.465 24.152 190.857 23.984 191.369 23.888L194.345 23.36V23.768C194.345 24.568 194.073 25.248 193.529 25.808C192.985 26.368 192.265 26.648 191.369 26.648C190.921 26.648 190.545 26.536 190.241 26.312C189.937 26.088 189.785 25.776 189.785 25.376ZM202.626 34.328C205.026 34.328 206.762 32.96 207.834 30.224L213.45 15.896H209.586L206.49 24.32L203.394 15.896H199.53L204.69 29L204.45 29.552C204.258 29.984 204.01 30.368 203.706 30.704C203.402 31.04 202.898 31.208 202.194 31.208C201.618 31.208 201.074 31.128 200.562 30.968V33.92C200.834 34.064 201.146 34.168 201.498 34.232C201.866 34.296 202.242 34.328 202.626 34.328ZM4.776 67H7.896L10.944 58.6L13.968 67H17.088L21.624 53.896H17.88L15.336 61.504L12.504 53.896H9.384L6.528 61.504L3.984 53.896H0.264L4.776 67ZM23.2106 52.72H26.8106V49.12H23.2106V52.72ZM23.2106 67H26.8106V53.896H23.2106V67ZM35.757 67.144C36.029 67.144 36.317 67.128 36.621 67.096C36.925 67.064 37.197 67.032 37.437 67V63.952C37.101 64 36.821 64.024 36.597 64.024C35.109 64.024 34.365 63.36 34.365 62.032V57.016H37.437V53.896H34.365V50.92H30.765V51.88C30.765 53.224 30.069 53.896 28.677 53.896H28.557V57.016H30.765V62.272C30.765 63.808 31.197 65.008 32.061 65.872C32.941 66.72 34.173 67.144 35.757 67.144ZM39.5466 67H43.1466V59.344C43.1466 58.592 43.3706 57.992 43.8186 57.544C44.2666 57.08 44.8426 56.848 45.5466 56.848C46.2506 56.848 46.8266 57.08 47.2746 57.544C47.7226 57.992 47.9466 58.592 47.9466 59.344V67H51.5466V58.576C51.5466 57.584 51.3386 56.72 50.9226 55.984C50.5066 55.232 49.9226 54.648 49.1706 54.232C48.4346 53.816 47.5706 53.608 46.5786 53.608C45.8426 53.608 45.1786 53.736 44.5866 53.992C43.9946 54.232 43.5146 54.608 43.1466 55.12V48.832H39.5466V67Z" fill="white"/>
<path d="M62.8 67H66.52V52.36H70.984V49.12H58.264V52.36H62.8V67ZM71.1325 67H74.7325V59.944C74.7325 58.968 75.0045 58.216 75.5485 57.688C76.0925 57.144 76.8045 56.872 77.6845 56.872H78.8125V53.752H78.0445C77.2445 53.752 76.5325 53.904 75.9085 54.208C75.3005 54.496 74.8285 55.048 74.4925 55.864V53.896H71.1325V67ZM80.3903 52.72H83.9903V49.12H80.3903V52.72ZM80.3903 67H83.9903V53.896H80.3903V67ZM86.6247 71.8H90.2247V65.992C90.6887 66.424 91.2407 66.752 91.8807 66.976C92.5367 67.184 93.2327 67.288 93.9687 67.288C95.2487 67.288 96.3927 66.984 97.4007 66.376C98.4087 65.768 99.2007 64.944 99.7767 63.904C100.369 62.864 100.665 61.712 100.665 60.448C100.665 59.168 100.369 58.016 99.7767 56.992C99.1847 55.952 98.3847 55.128 97.3767 54.52C96.3687 53.912 95.2407 53.608 93.9927 53.608C92.2487 53.608 90.9127 54.16 89.9847 55.264V53.896H86.6247V71.8ZM93.5367 64.048C92.5607 64.048 91.7607 63.72 91.1367 63.064C90.5287 62.392 90.2247 61.52 90.2247 60.448C90.2247 59.392 90.5287 58.528 91.1367 57.856C91.7607 57.184 92.5607 56.848 93.5367 56.848C94.5287 56.848 95.3447 57.192 95.9847 57.88C96.6247 58.552 96.9447 59.408 96.9447 60.448C96.9447 61.504 96.6247 62.368 95.9847 63.04C95.3447 63.712 94.5287 64.048 93.5367 64.048ZM102.773 71.8H106.373V65.992C106.837 66.424 107.389 66.752 108.029 66.976C108.685 67.184 109.381 67.288 110.117 67.288C111.397 67.288 112.541 66.984 113.549 66.376C114.557 65.768 115.349 64.944 115.925 63.904C116.517 62.864 116.813 61.712 116.813 60.448C116.813 59.168 116.517 58.016 115.925 56.992C115.333 55.952 114.533 55.128 113.525 54.52C112.517 53.912 111.389 53.608 110.141 53.608C108.397 53.608 107.061 54.16 106.133 55.264V53.896H102.773V71.8ZM109.685 64.048C108.709 64.048 107.909 63.72 107.285 63.064C106.677 62.392 106.373 61.52 106.373 60.448C106.373 59.392 106.677 58.528 107.285 57.856C107.909 57.184 108.709 56.848 109.685 56.848C110.677 56.848 111.493 57.192 112.133 57.88C112.773 58.552 113.093 59.408 113.093 60.448C113.093 61.504 112.773 62.368 112.133 63.04C111.493 63.712 110.677 64.048 109.685 64.048ZM125.426 67.288C126.722 67.288 127.898 66.992 128.954 66.4C130.01 65.808 130.85 65 131.474 63.976C132.114 62.936 132.434 61.76 132.434 60.448C132.434 59.12 132.114 57.944 131.474 56.92C130.85 55.896 130.01 55.088 128.954 54.496C127.898 53.904 126.722 53.608 125.426 53.608C124.13 53.608 122.946 53.904 121.874 54.496C120.818 55.088 119.97 55.896 119.33 56.92C118.706 57.944 118.394 59.12 118.394 60.448C118.394 61.76 118.706 62.936 119.33 63.976C119.97 65 120.818 65.808 121.874 66.4C122.946 66.992 124.13 67.288 125.426 67.288ZM125.426 64.048C124.45 64.048 123.65 63.712 123.026 63.04C122.418 62.368 122.114 61.504 122.114 60.448C122.114 59.408 122.418 58.552 123.026 57.88C123.65 57.192 124.45 56.848 125.426 56.848C126.402 56.848 127.194 57.192 127.802 57.88C128.41 58.552 128.714 59.408 128.714 60.448C128.714 61.504 128.41 62.368 127.802 63.04C127.194 63.712 126.402 64.048 125.426 64.048Z" fill="black"/>
</svg>
